SplineFontDB: 3.0
FontName: PeanutsMerged
FullName: PeanutsMerged
FamilyName: PeanutsMerged
Weight: Book
Copyright: (c)1999 John K. Barrow---Aestheticware---If you use this font or even just like it, you MUST do something to make the world look a little better. Violators will be shot---Based on the friendly handwriting of Sparky---Alternate characters included
Version: Altsys Fontographer 4.1 11/4/99
ItalicAngle: 0
UnderlinePosition: -143
UnderlineWidth: 20
Ascent: 800
Descent: 200
InvalidEm: 0
sfntRevision: 0x00010000
LayerCount: 2
Layer: 0 1 "Back" 1
Layer: 1 1 "Fore" 0
XUID: [1021 270 -1409152759 15662307]
StyleMap: 0x0040
FSType: 1
OS2Version: 0
OS2_WeightWidthSlopeOnly: 0
OS2_UseTypoMetrics: 0
CreationTime: 941720971
ModificationTime: 1551340642
PfmFamily: 81
TTFWeight: 400
TTFWidth: 5
LineGap: 0
VLineGap: 0
Panose: 0 0 4 0 0 0 0 0 0 0
OS2TypoAscent: 972
OS2TypoAOffset: 0
OS2TypoDescent: -200
OS2TypoDOffset: 0
OS2TypoLinegap: 0
OS2WinAscent: 972
OS2WinAOffset: 0
OS2WinDescent: 124
OS2WinDOffset: 0
HheadAscent: 972
HheadAOffset: 0
HheadDescent: -200
HheadDOffset: 0
OS2SubXSize: 700
OS2SubYSize: 650
OS2SubXOff: 0
OS2SubYOff: 143
OS2SupXSize: 700
OS2SupYSize: 650
OS2SupXOff: 0
OS2SupYOff: 453
OS2StrikeYSize: 50
OS2StrikeYPos: 259
OS2Vendor: 'Alts'
OS2UnicodeRanges: 00000000.00000000.00000000.00000000
Lookup: 258 0 0 "'kern' Horizontal Kerning in Latin lookup 0" { "'kern' Horizontal Kerning in Latin lookup 0 subtable"  } ['kern' ('latn' <'dflt' > ) ]
MarkAttachClasses: 1
DEI: 91125
TtTable: prep
NPUSHB
 7
 6
 6
 1
 1
 0
 0
 1
SCANTYPE
PUSHW_1
 511
SCANCTRL
RCVT
ROUND[Grey]
WCVTP
RCVT
ROUND[Grey]
WCVTP
RCVT
ROUND[Grey]
WCVTP
PUSHB_4
 3
 2
 70
 0
CALL
PUSHB_4
 5
 4
 70
 0
CALL
PUSHB_2
 2
 2
RCVT
ROUND[Grey]
WCVTP
PUSHB_2
 4
 4
RCVT
ROUND[Grey]
WCVTP
EndTTInstrs
TtTable: fpgm
NPUSHB
 1
 0
FDEF
SROUND
RCVT
DUP
PUSHB_1
 3
CINDEX
RCVT
SWAP
SUB
ROUND[Grey]
RTG
SWAP
ROUND[Grey]
ADD
WCVTP
ENDF
EndTTInstrs
ShortTable: cvt  20
  7
  791
  95
  84
  108
  122
  69
  23143

StartChar: .notdef
Encoding: 65536 -1 0
Width: 500
Flags: W
LayerCount: 2
Fore
SplineSet
63 0 m 1,0,-1
 63 800 l 1,1,-1
 438 800 l 1,2,-1
 438 0 l 1,3,-1
 63 0 l 1,0,-1
125 63 m 1,4,-1
 375 63 l 1,5,-1
 375 738 l 1,6,-1
 125 738 l 1,7,-1
 125 63 l 1,4,-1
EndSplineSet
Validated: 1
EndChar

StartChar: exclam
Encoding: 33 33 4
Width: 198
Flags: W
LayerCount: 2
Fore
SplineSet
68 256 m 0,0,1
 72 256 72 256 103 267 c 0,2,3
 111 269 111 269 126 277 c 0,4,5
 144 293 144 293 144 337 c 0,6,7
 144 358 144 358 138 400 c 0,8,9
 134 427 134 427 134 429 c 0,10,11
 134 432 134 432 135 438 c 0,12,13
 135 444 135 444 135 447 c 128,-1,14
 135 450 135 450 135 455 c 0,15,16
 134 461 134 461 133 464 c 0,17,18
 133 468 133 468 134 476 c 0,19,20
 134 485 134 485 134 488 c 0,21,22
 134 496 134 496 132 511 c 128,-1,23
 130 526 130 526 130 534 c 0,24,25
 130 537 130 537 130 544.5 c 128,-1,26
 130 552 130 552 130 556 c 128,-1,27
 130 560 130 560 130 569 c 0,28,29
 129 579 129 579 129 584 c 0,30,31
 129 593 129 593 132.5 611 c 128,-1,32
 136 629 136 629 136 638 c 0,33,34
 136 642 136 642 135 649.5 c 128,-1,35
 134 657 134 657 134 660 c 0,36,37
 134 666 134 666 136 675.5 c 128,-1,38
 138 685 138 685 138 689 c 0,39,40
 139 700 139 700 139 713 c 0,41,42
 139 789 139 789 106 793 c 1,43,44
 93 784 93 784 72 760 c 1,45,46
 44 716 44 716 44 608 c 0,47,48
 44 593 44 593 40 561.5 c 128,-1,49
 36 530 36 530 36 514 c 256,50,51
 36 498 36 498 36 467 c 0,52,53
 37 436 37 436 37 420 c 0,54,55
 37 417 37 417 37 409 c 0,56,57
 38 402 38 402 38 398 c 0,58,59
 38 388 38 388 34 364.5 c 128,-1,60
 30 341 30 341 30 327 c 0,61,62
 30 256 30 256 68 256 c 0,0,1
113 194 m 0,63,64
 76 189 76 189 68.5 182 c 128,-1,65
 61 175 61 175 57 163 c 0,66,67
 52 144 52 144 51 143 c 0,68,69
 30 95 30 95 30 72 c 0,70,71
 30 45 30 45 54 19 c 0,72,73
 61 11 61 11 79 11 c 256,74,75
 97 11 97 11 115 24 c 0,76,77
 122 29 122 29 143 59.5 c 128,-1,78
 164 90 164 90 167 98 c 0,79,80
 167 108 167 108 169 129 c 0,81,82
 169 132 169 132 170.5 139 c 128,-1,83
 172 146 172 146 172 150 c 0,84,85
 172 164 172 164 162.5 175 c 128,-1,86
 153 186 153 186 138 188 c 0,87,88
 118 192 118 192 113 194 c 0,63,64
EndSplineSet
Validated: 9
EndChar

StartChar: quotesingle
Encoding: 39 39 5
Width: 135
Flags: W
LayerCount: 2
Fore
SplineSet
42 547 m 0,0,1
 61 546 61 546 89 574 c 0,2,3
 93 576 93 576 98 583 c 128,-1,4
 103 590 103 590 102.5 609.5 c 128,-1,5
 102 629 102 629 105 636 c 128,-1,6
 108 643 108 643 113 657 c 0,7,8
 112 664 112 664 113 678 c 0,9,10
 118 693 118 693 122 708 c 0,11,12
 124 711 124 711 127 719 c 1,13,14
 126 711 126 711 126 736 c 0,15,16
 126 739 126 739 127 744.5 c 128,-1,17
 128 750 128 750 128 753 c 0,18,19
 127 757 127 757 124 770 c 0,20,21
 115 829 115 829 76 845 c 0,22,23
 72 847 72 847 64 850 c 1,24,25
 52 847 52 847 32 832 c 1,26,27
 22 817 22 817 24 795 c 0,28,29
 25 790 25 790 27 780 c 0,30,31
 27 741 27 741 27 740 c 2,32,33
 27 740 27 740 26 718 c 0,34,35
 25 712 25 712 24 703 c 0,36,37
 24 698 24 698 25 687 c 0,38,39
 24 682 24 682 22.5 672 c 128,-1,40
 21 662 21 662 20 646 c 0,41,42
 18 640 18 640 15 628 c 0,43,44
 8 580 8 580 27 557 c 0,45,46
 35 548 35 548 42 547 c 0,0,1
EndSplineSet
Validated: 41
EndChar

StartChar: parenleft
Encoding: 40 40 6
Width: 369
VWidth: 1266
Flags: W
LayerCount: 2
Fore
SplineSet
279.559570312 949.895507812 m 1,0,-1
 282.9609375 955.565429688 l 1,1,-1
 297.703125 957.833984375 l 1,2,3
 305.640625 954.431640625 305.640625 954.431640625 311.311523438 946.493164062 c 128,-1,4
 316.981445312 938.556640625 316.981445312 938.556640625 321.516601562 929.484375 c 1,5,-1
 305.640625 902.267578125 l 2,6,7
 276.157226562 846.702148438 276.157226562 846.702148438 255.745117188 790.001953125 c 128,-1,8
 235.333007812 733.301757812 235.333007812 733.301757812 219.45703125 654.48828125 c 128,-1,9
 203.581054688 575.67578125 203.581054688 575.67578125 203.581054688 482.6875 c 0,10,11
 203.581054688 376.091796875 203.581054688 376.091796875 231.36328125 272.8984375 c 128,-1,12
 259.146484375 169.704101562 259.146484375 169.704101562 287.49609375 113.571289062 c 128,-1,13
 315.846679688 57.4375 315.846679688 57.4375 346.46484375 29.087890625 c 2,14,-1
 349.866210938 25.6865234375 l 1,15,-1
 354.403320312 21.150390625 l 1,16,-1
 347.598632812 -33.2822265625 l 1,17,-1
 303.373046875 -65.0341796875 l 1,18,-1
 276.157226562 -54.828125 l 1,19,20
 192.240234375 57.4375 192.240234375 57.4375 161.056640625 168.5703125 c 128,-1,21
 129.87109375 279.702148438 129.87109375 279.702148438 124.767578125 327.330078125 c 128,-1,22
 119.665039062 374.958007812 119.665039062 374.958007812 118.53125 414.081054688 c 128,-1,23
 117.396484375 453.204101562 117.396484375 453.204101562 117.396484375 457.740234375 c 0,24,25
 117.396484375 574.541015625 117.396484375 574.541015625 149.1484375 676.036132812 c 128,-1,26
 180.901367188 777.528320312 180.901367188 777.528320312 259.146484375 913.608398438 c 2,27,-1
 279.559570312 949.895507812 l 1,0,-1
EndSplineSet
EndChar

StartChar: parenright
Encoding: 41 41 7
Width: 376
VWidth: 1266
Flags: W
LayerCount: 2
Fore
SplineSet
72.8076171875 909.986328125 m 1,0,-1
 48.9921875 931.532226562 l 1,1,-1
 63.7353515625 961.016601562 l 1,2,3
 93.21875 963.284179688 93.21875 963.284179688 120.435546875 952.510742188 c 128,-1,4
 147.651367188 941.73828125 147.651367188 941.73828125 182.237304688 909.418945312 c 128,-1,5
 216.825195312 877.100585938 216.825195312 877.100585938 244.041015625 820.400390625 c 128,-1,6
 271.256835938 763.701171875 271.256835938 763.701171875 283.1640625 707.000976562 c 128,-1,7
 295.071289062 650.30078125 295.071289062 650.30078125 297.338867188 601.538085938 c 128,-1,8
 299.607421875 552.776367188 299.607421875 552.776367188 299.607421875 496.076171875 c 2,9,-1
 299.607421875 384.944335938 l 2,10,11
 299.607421875 349.790039062 299.607421875 349.790039062 292.802734375 306.698242188 c 128,-1,12
 285.999023438 263.606445312 285.999023438 263.606445312 271.82421875 188.1953125 c 128,-1,13
 257.649414062 112.784179688 257.649414062 112.784179688 230.432617188 47.01171875 c 128,-1,14
 203.216796875 -18.759765625 203.216796875 -18.759765625 154.455078125 -69.7900390625 c 1,15,-1
 141.981445312 -70.923828125 l 1,16,-1
 96.62109375 -67.521484375 l 1,17,-1
 63.7353515625 -21.0283203125 l 1,18,-1
 70.5390625 15.2607421875 l 1,19,20
 105.692382812 28.8681640625 105.692382812 28.8681640625 132.909179688 78.197265625 c 128,-1,21
 160.125 127.526367188 160.125 127.526367188 182.8046875 214.84375 c 128,-1,22
 205.485351562 302.162109375 205.485351562 302.162109375 211.721679688 332.212890625 c 128,-1,23
 217.958984375 362.263671875 217.958984375 362.263671875 217.958984375 401.954101562 c 0,24,25
 225.896484375 474.53125 225.896484375 474.53125 225.896484375 544.837890625 c 0,26,27
 225.896484375 624.21875 225.896484375 624.21875 216.2578125 683.75390625 c 128,-1,28
 206.619140625 743.288085938 206.619140625 743.288085938 184.506835938 796.5859375 c 128,-1,29
 162.392578125 849.883789062 162.392578125 849.883789062 139.146484375 875.965820312 c 128,-1,30
 115.899414062 902.048828125 115.899414062 902.048828125 88.6826171875 907.71875 c 2,31,-1
 72.8076171875 909.986328125 l 1,0,-1
EndSplineSet
EndChar

StartChar: asterisk
Encoding: 42 42 8
Width: 365
Flags: W
LayerCount: 2
Fore
SplineSet
337 513 m 0,0,1
 337 516 337 516 339.5 521 c 128,-1,2
 342 526 342 526 342 529 c 0,3,4
 342 551 342 551 326 559 c 128,-1,5
 310 567 310 567 310 579 c 0,6,7
 310 583 310 583 317 589 c 128,-1,8
 324 595 324 595 325.5 597.5 c 128,-1,9
 327 600 327 600 330 607 c 0,10,11
 344 631 344 631 344 636 c 0,12,13
 344 659 344 659 338 671 c 0,14,15
 334 679 334 679 319.5 691 c 128,-1,16
 305 703 305 703 295 703 c 0,17,18
 290 703 290 703 277 697.5 c 128,-1,19
 264 692 264 692 259 692 c 0,20,21
 255 696 255 696 251 711 c 0,22,23
 250 713 250 713 249 716 c 0,24,25
 249 720 249 720 252.5 727.5 c 128,-1,26
 256 735 256 735 256 740 c 0,27,28
 256 746 256 746 242 764 c 0,29,30
 240 770 240 770 232 782 c 0,31,32
 229 786 229 786 205 791 c 0,33,34
 199 793 199 793 186 796 c 1,35,36
 174 791 174 791 170.5 787 c 128,-1,37
 167 783 167 783 162 763.5 c 128,-1,38
 157 744 157 744 157 738 c 0,39,40
 157 734 157 734 157 727 c 0,41,42
 158 720 158 720 158 717 c 256,43,44
 158 714 158 714 152 683 c 128,-1,45
 146 652 146 652 145 651 c 0,46,47
 143 647 143 647 138 647 c 0,48,49
 137 647 137 647 113 654 c 128,-1,50
 89 661 89 661 77 661 c 256,51,52
 65 661 65 661 52 647 c 0,53,54
 47 644 47 644 41.5 637.5 c 128,-1,55
 36 631 36 631 28 604 c 128,-1,56
 20 577 20 577 20 578 c 1,57,58
 20 575 20 575 30 551.5 c 128,-1,59
 40 528 40 528 52 528 c 0,60,61
 65 528 65 528 76 534 c 128,-1,62
 87 540 87 540 90 541 c 0,63,64
 110 535 110 535 110 529 c 0,65,66
 110 528 110 528 102.5 510.5 c 128,-1,67
 95 493 95 493 92 490.5 c 128,-1,68
 89 488 89 488 84 481 c 0,69,70
 83 480 83 480 74 419 c 0,71,72
 72 406 72 406 72 410 c 1,73,74
 72 393 72 393 103 393 c 0,75,76
 105 393 105 393 110 394 c 0,77,78
 114 394 114 394 116 394 c 0,79,80
 121 394 121 394 131 393 c 128,-1,81
 141 392 141 392 146 392 c 0,82,83
 154 392 154 392 168 397 c 128,-1,84
 182 402 182 402 189 403 c 0,85,86
 202 405 202 405 208 434 c 0,87,88
 209 437 209 437 218.5 449 c 128,-1,89
 228 461 228 461 231 463 c 128,-1,90
 234 465 234 465 241 465 c 0,91,92
 249 465 249 465 259 452 c 0,93,94
 273 432 273 432 284 432 c 0,95,96
 289 432 289 432 292.5 439.5 c 128,-1,97
 296 447 296 447 297 448 c 0,98,99
 303 450 303 450 316 458 c 0,100,101
 318 461 318 461 327.5 481 c 128,-1,102
 337 501 337 501 337 504 c 1,103,104
 337 501 337 501 337 513 c 0,0,1
309 504 m 1,105,106
 309 501 309 501 299.5 496.5 c 128,-1,107
 290 492 290 492 286 492 c 0,108,109
 281 492 281 492 251 513 c 0,110,111
 247 519 247 519 238 531 c 0,112,113
 227 540 227 540 222 540 c 0,114,115
 207 540 207 540 202 531 c 0,116,117
 201 530 201 530 201 526 c 0,118,119
 201 523 201 523 201 518 c 0,120,121
 200 513 200 513 200 510 c 0,122,123
 200 505 200 505 202 494.5 c 128,-1,124
 204 484 204 484 204 479 c 0,125,126
 204 466 204 466 179 440 c 0,127,128
 175 437 175 437 168 430 c 1,129,130
 156 431 156 431 161 431 c 1,131,132
 155 431 155 431 148 429 c 1,133,-1
 148 428 l 1,134,135
 139 428 139 428 127 432 c 0,136,137
 112 437 112 437 112 444 c 1,138,139
 112 439 112 439 120 466 c 0,140,141
 120 475 120 475 125 491 c 0,142,143
 127 494 127 494 151 510 c 0,144,145
 166 520 166 520 166 547 c 0,146,147
 166 563 166 563 137 570 c 0,148,149
 122 573 122 573 115 572 c 0,150,151
 97 578 97 578 75 578 c 0,152,153
 63 578 63 578 63 589 c 0,154,155
 63 598 63 598 76 607.5 c 128,-1,156
 89 617 89 617 98 617 c 0,157,158
 105 617 105 617 114 611 c 0,159,160
 120 607 120 607 127.5 603 c 128,-1,161
 135 599 135 599 155 599 c 0,162,163
 178 599 178 599 178 620 c 0,164,165
 178 623 178 623 176 629 c 128,-1,166
 174 635 174 635 174 638 c 256,167,168
 174 641 174 641 175 646 c 128,-1,169
 176 651 176 651 176 653 c 0,170,171
 176 656 176 656 175 661.5 c 128,-1,172
 174 667 174 667 174 670 c 0,173,174
 174 679 174 679 180.5 695 c 128,-1,175
 187 711 187 711 187 718 c 0,176,177
 187 721 187 721 185.5 728 c 128,-1,178
 184 735 184 735 184 739 c 0,179,180
 184 754 184 754 193 761 c 1,181,182
 203 759 203 759 205.5 753 c 128,-1,183
 208 747 208 747 210 740 c 0,184,185
 218 727 218 727 218 718 c 0,186,187
 218 715 218 715 213 698 c 128,-1,188
 208 681 208 681 207.5 678.5 c 128,-1,189
 207 676 207 676 204.5 670 c 128,-1,190
 202 664 202 664 202 660 c 0,191,192
 202 650 202 650 216 638.5 c 128,-1,193
 230 627 230 627 240 627 c 0,194,195
 248 627 248 627 262 639 c 0,196,197
 280 655 280 655 286 658 c 0,198,199
 287 658 287 658 290 661.5 c 128,-1,200
 293 665 293 665 296 665 c 0,201,202
 300 665 300 665 305 659 c 128,-1,203
 310 653 310 653 310 648 c 0,204,205
 310 635 310 635 300 621 c 0,206,207
 297 617 297 617 291 612 c 1,208,-1
 291 613 l 1,209,-1
 289 613 l 1,210,-1
 288 612 l 1,211,212
 276 609 276 609 268 601 c 0,213,214
 268 600 268 600 263 600 c 0,215,216
 235 600 235 600 235 581 c 0,217,218
 235 568 235 568 248 564.5 c 128,-1,219
 261 561 261 561 273 558 c 2,220,-1
 288 552 l 2,221,222
 290 549 290 549 295 544 c 0,223,224
 315 527 315 527 315 520 c 0,225,226
 315 502 315 502 309 504 c 1,105,106
EndSplineSet
Validated: 5
EndChar

StartChar: comma
Encoding: 44 44 9
Width: 130
Flags: W
LayerCount: 2
Fore
SplineSet
111 82 m 0,0,1
 109 88 109 88 103 101 c 0,2,3
 102 103 102 103 97 107.5 c 128,-1,4
 92 112 92 112 76 112 c 0,5,6
 67 109 67 109 53 98 c 0,7,8
 51 93 51 93 47 82 c 0,9,10
 47 75 47 75 44 61.5 c 128,-1,11
 41 48 41 48 32 24 c 1,12,-1
 31 8 l 1,13,-1
 24 -21 l 2,14,15
 21 -28 21 -28 16 -45 c 1,16,17
 16 -45 16 -45 18 -68 c 0,18,19
 19 -85 19 -85 19 -86 c 0,20,21
 21 -95 21 -95 28 -100 c 0,22,23
 31 -102 31 -102 37 -105 c 0,24,25
 55 -108 55 -108 69 -90 c 0,26,27
 72 -85 72 -85 78 -74 c 0,28,29
 83 -70 83 -70 91 -59 c 2,30,-1
 99 -40 l 2,31,32
 100 -38 100 -38 106 -28 c 0,33,34
 107 -23 107 -23 108 -13 c 0,35,36
 109 -6 109 -6 111 8 c 0,37,38
 111 24 111 24 111 23 c 1,39,40
 112 35 112 35 115 57 c 1,41,42
 112 70 112 70 111 82 c 0,0,1
EndSplineSet
Validated: 37
EndChar

StartChar: period
Encoding: 46 46 10
Width: 211
VWidth: 1190
Flags: W
LayerCount: 2
Fore
SplineSet
384.01953125 950.756835938 m 1024,0,-1
195.620117188 21.95703125 m 2,1,-1
 195.620117188 31.5576171875 l 2,2,3
 195.620117188 35.1572265625 195.620117188 35.1572265625 193.219726562 42.357421875 c 0,4,5
 194.419921875 45.95703125 194.419921875 45.95703125 194.419921875 51.95703125 c 0,6,7
 190.8203125 59.1572265625 190.8203125 59.1572265625 184.8203125 73.5576171875 c 0,8,9
 183.620117188 80.7568359375 183.620117188 80.7568359375 176.419921875 95.1572265625 c 1,10,-1
 170.419921875 98.7568359375 l 2,11,12
 159.620117188 108.357421875 159.620117188 108.357421875 155.419921875 109.557617188 c 128,-1,13
 151.219726562 110.756835938 151.219726562 110.756835938 145.219726562 111.95703125 c 2,14,-1
 134.419921875 116.756835938 l 1,15,16
 91.2197265625 122.756835938 91.2197265625 122.756835938 97.2197265625 122.756835938 c 1,17,18
 96.01953125 122.756835938 96.01953125 122.756835938 93.6201171875 121.557617188 c 0,19,20
 85.2197265625 121.557617188 85.2197265625 121.557617188 80.419921875 119.157226562 c 1,21,-1
 80.419921875 119.157226562 l 1,22,23
 64.8203125 119.157226562 64.8203125 119.157226562 60.01953125 116.756835938 c 128,-1,24
 55.2197265625 114.357421875 55.2197265625 114.357421875 44.419921875 108.357421875 c 0,25,26
 38.419921875 105.95703125 38.419921875 105.95703125 28.8203125 101.157226562 c 2,27,-1
 20.419921875 92.7568359375 l 2,28,29
 12.01953125 86.7568359375 12.01953125 86.7568359375 0.01953125 72.357421875 c 0,30,31
 -2.3798828125 68.7568359375 -2.3798828125 68.7568359375 -3.580078125 53.1572265625 c 0,32,33
 -5.98046875 32.7568359375 -5.98046875 32.7568359375 15.6201171875 5.1572265625 c 0,34,35
 18.01953125 0.357421875 18.01953125 0.357421875 25.2197265625 -6.8427734375 c 0,36,37
 43.2197265625 -23.642578125 43.2197265625 -23.642578125 74.419921875 -24.8427734375 c 0,38,39
 79.2197265625 -22.4423828125 79.2197265625 -22.4423828125 88.8203125 -22.4423828125 c 0,40,41
 96.01953125 -23.642578125 96.01953125 -23.642578125 111.620117188 -26.04296875 c 0,42,43
 115.219726562 -27.2431640625 115.219726562 -27.2431640625 126.01953125 -29.642578125 c 0,44,45
 150.01953125 -32.04296875 150.01953125 -32.04296875 168.01953125 -26.04296875 c 0,46,47
 174.01953125 -24.8427734375 174.01953125 -24.8427734375 184.8203125 -16.4423828125 c 0,48,49
 188.419921875 -14.04296875 188.419921875 -14.04296875 192.01953125 -8.04296875 c 128,-1,50
 195.620117188 -2.04296875 195.620117188 -2.04296875 195.620117188 21.95703125 c 2,1,-1
EndSplineSet
Validated: 524325
EndChar

StartChar: question
Encoding: 63 63 11
Width: 464
Flags: W
LayerCount: 2
Fore
SplineSet
442 639 m 0,0,1
 442 622 442 622 440 609 c 1,2,3
 434 597 434 597 424 572 c 0,4,5
 422 562 422 562 417 543 c 2,6,-1
 415 527 l 1,7,8
 408 519 408 519 395 502 c 1,9,-1
 387 477 l 2,10,11
 380 463 380 463 350 421 c 1,12,-1
 331 409 l 2,13,14
 311 392 311 392 299 365 c 0,15,16
 298 359 298 359 292 347 c 0,17,18
 290 345 290 345 281.5 341 c 128,-1,19
 273 337 273 337 256 327 c 0,20,21
 243 321 243 321 226 324 c 0,22,23
 220 325 220 325 213 333 c 2,24,-1
 209 337 l 2,25,26
 199 347 199 347 199 357 c 0,27,28
 199 366 199 366 210 382 c 0,29,30
 223 403 223 403 225 407 c 0,31,32
 230 415 230 415 242 430 c 0,33,34
 244 433 244 433 264 462 c 0,35,36
 274 472 274 472 292 491 c 0,37,38
 296 495 296 495 326 553 c 0,39,40
 330 559 330 559 337 571 c 1,41,-1
 339 585 l 2,42,43
 343 613 343 613 332 630 c 0,44,45
 317 653 317 653 292 660 c 0,46,47
 291 660 291 660 276 663 c 0,48,49
 265 668 265 668 243 676 c 1,50,-1
 221 678 l 2,51,52
 200 681 200 681 193 680 c 0,53,54
 191 679 191 679 159 664 c 1,55,-1
 138 658 l 2,56,57
 112 647 112 647 97 640 c 1,58,-1
 82 625 l 2,59,60
 81 624 81 624 69 620 c 0,61,62
 47 613 47 613 32 622 c 0,63,64
 24 628 24 628 22 632 c 0,65,66
 16 645 16 645 22 656 c 0,67,68
 29 667 29 667 36 677 c 0,69,70
 66 728 66 728 152 773 c 1,71,-1
 184 781 l 1,72,-1
 205 782 l 1,73,-1
 229 790 l 2,74,75
 226 790 226 790 249 788 c 1,76,-1
 267 791 l 2,77,78
 264 791 264 791 306 791 c 1,79,-1
 320 794 l 1,80,-1
 341 791 l 1,81,-1
 372 779 l 1,82,83
 386 778 386 778 409 771 c 0,84,85
 412 768 412 768 423 751 c 128,-1,86
 434 734 434 734 438 713 c 0,87,88
 438 712 438 712 440 671 c 0,89,90
 441 660 441 660 442 639 c 0,0,1
289 74 m 0,91,92
 287 67 287 67 281 53 c 0,93,94
 266 27 266 27 239 12 c 0,95,96
 238 11 238 11 221 8 c 0,97,98
 208 6 208 6 208 6 c 1,99,-1
 199 9 l 2,100,101
 191 10 191 10 178.5 19.5 c 128,-1,102
 166 29 166 29 166 50 c 0,103,104
 166 101 166 101 205 151 c 0,105,106
 212 159 212 159 239 182 c 1,107,-1
 262 181 l 2,108,109
 267 177 267 177 276 171 c 0,110,111
 280 168 280 168 288 163 c 0,112,113
 307 141 307 141 301 109 c 0,114,115
 299 96 299 96 289 74 c 0,91,92
EndSplineSet
Validated: 37
EndChar

StartChar: A
Encoding: 65 65 12
Width: 628
Flags: W
LayerCount: 2
Fore
SplineSet
113 77 m 0,0,1
 113 83 113 83 110.5 94.5 c 128,-1,2
 108 106 108 106 108 110 c 256,3,4
 108 114 108 114 110 121 c 128,-1,5
 112 128 112 128 112 131 c 0,6,7
 112 133 112 133 112 137 c 0,8,9
 111 140 111 140 111 142 c 0,10,11
 111 151 111 151 122.5 157 c 128,-1,12
 134 163 134 163 144 169 c 1,13,14
 180 170 180 170 178 170 c 1,15,16
 187 170 187 170 206 159 c 0,17,18
 218 153 218 153 238 153 c 0,19,20
 262 153 262 153 297 161 c 0,21,22
 310 165 310 165 337 171 c 0,23,24
 350 170 350 170 376 173 c 0,25,26
 435 187 435 187 428 187 c 1,27,28
 443 187 443 187 465 156 c 0,29,30
 466 150 466 150 471 140 c 128,-1,31
 476 130 476 130 480 122.5 c 128,-1,32
 484 115 484 115 493 100 c 0,33,34
 493 96 493 96 496 87 c 1,35,36
 501 85 501 85 510 71 c 0,37,38
 511 63 511 63 513 53 c 0,39,40
 523 34 523 34 535 15.5 c 128,-1,41
 547 -3 547 -3 572 -3 c 0,42,43
 593 -3 593 -3 608 10 c 128,-1,44
 623 23 623 23 623 44 c 0,45,46
 623 68 623 68 618 79 c 0,47,48
 610 94 610 94 601 108 c 0,49,50
 598 118 598 118 590 135 c 0,51,52
 584 143 584 143 574 160 c 1,53,54
 573 170 573 170 568 186 c 0,55,56
 565 188 565 188 561 194 c 0,57,58
 550 216 550 216 549 226 c 0,59,60
 541 282 541 282 540 283 c 0,61,62
 535 290 535 290 530.5 299.5 c 128,-1,63
 526 309 526 309 508 325 c 0,64,65
 501 330 501 330 489.5 346 c 128,-1,66
 478 362 478 362 475 400 c 0,67,68
 475 411 475 411 468 425 c 0,69,70
 462 436 462 436 455 448 c 0,71,72
 453 457 453 457 448 469 c 1,73,74
 428 488 428 488 423 510 c 0,75,76
 419 529 419 529 419 551 c 0,77,78
 419 557 419 557 420.5 569 c 128,-1,79
 422 581 422 581 422 588 c 0,80,81
 422 606 422 606 389 660 c 0,82,83
 387 667 387 667 380 680 c 2,84,-1
 367 700 l 2,85,86
 366 705 366 705 364 714 c 0,87,88
 361 720 361 720 357 731 c 0,89,90
 355 761 355 761 347 805 c 0,91,92
 340 822 340 822 306 822 c 0,93,94
 296 822 296 822 284.5 813.5 c 128,-1,95
 273 805 273 805 272 796 c 0,96,97
 273 789 273 789 273 776 c 0,98,99
 272 773 272 773 269.5 765.5 c 128,-1,100
 267 758 267 758 267 754 c 1,101,102
 267 757 267 757 269 744 c 0,103,104
 268 739 268 739 270 730 c 0,105,106
 277 705 277 705 277 691 c 0,107,108
 277 676 277 676 267 657 c 0,109,110
 262 653 262 653 254 642.5 c 128,-1,111
 246 632 246 632 240.5 622.5 c 128,-1,112
 235 613 235 613 226 597 c 0,113,114
 225 592 225 592 222 583 c 0,115,116
 220 579 220 579 218 567 c 128,-1,117
 216 555 216 555 210 530 c 1,118,119
 203 519 203 519 190 496 c 1,120,121
 190 496 190 496 183 475 c 0,122,123
 180 472 180 472 176 465 c 0,124,125
 176 461 176 461 175 454 c 0,126,127
 166 443 166 443 151 419 c 0,128,129
 148 407 148 407 140 383 c 0,130,131
 131 366 131 366 119 333 c 0,132,133
 117 326 117 326 102 303 c 0,134,135
 102 299 102 299 99.5 294 c 128,-1,136
 97 289 97 289 88 264 c 0,137,138
 84 258 84 258 79 247 c 0,139,140
 78 239 78 239 75 224 c 1,141,142
 66 215 66 215 52 201 c 0,143,144
 50 195 50 195 45.5 181.5 c 128,-1,145
 41 168 41 168 41 169 c 1,146,147
 41 167 41 167 43 164 c 128,-1,148
 45 161 45 161 45 159 c 0,149,150
 45 149 45 149 36 133 c 0,151,152
 24 112 24 112 23 108 c 0,153,154
 22 101 22 101 13 83 c 0,155,156
 7 61 7 61 7 56 c 0,157,158
 7 43 7 43 18.5 30 c 128,-1,159
 30 17 30 17 42 17 c 0,160,161
 59 17 59 17 74 23 c 0,162,163
 77 25 77 25 82 28 c 0,164,165
 92 32 92 32 107 47 c 0,166,167
 113 58 113 58 113 77 c 0,0,1
196 314 m 2,168,169
 196 330 196 330 201 340 c 0,170,171
 209 357 209 357 210 359 c 0,172,173
 213 370 213 370 219 390 c 0,174,175
 222 395 222 395 224 403.5 c 128,-1,176
 226 412 226 412 230 429 c 0,177,178
 235 435 235 435 242 447 c 0,179,180
 253 478 253 478 268 506 c 0,181,182
 270 515 270 515 273 529 c 0,183,184
 277 540 277 540 295 565 c 0,185,186
 296 566 296 566 309 575 c 1,187,188
 330 571 330 571 347 528 c 1,189,190
 347 528 347 528 349 493 c 0,191,192
 349 488 349 488 352.5 479.5 c 128,-1,193
 356 471 356 471 356 469 c 0,194,195
 356 466 356 466 354.5 462 c 128,-1,196
 353 458 353 458 353 456 c 0,197,198
 353 451 353 451 358 443.5 c 128,-1,199
 363 436 363 436 363 434 c 0,200,201
 366 400 366 400 372 391 c 0,202,203
 376 386 376 386 383 377 c 0,204,205
 384 372 384 372 389 363 c 2,206,-1
 392 352 l 1,207,208
 408 330 408 330 408 313 c 0,209,210
 408 288 408 288 407 283 c 0,211,212
 403 271 403 271 384 266 c 0,213,214
 382 266 382 266 380 266 c 0,215,216
 375 266 375 266 375 266 c 2,217,218
 364 266 364 266 352.5 268.5 c 128,-1,219
 341 271 341 271 335 271 c 0,220,221
 311 272 311 272 263 276 c 0,222,223
 259 277 259 277 246 280 c 128,-1,224
 233 283 233 283 228 283 c 0,225,226
 224 283 224 283 221 282 c 0,227,228
 196 282 196 282 196 299 c 2,229,-1
 196 314 l 2,168,169
EndSplineSet
Validated: 41
EndChar

StartChar: B
Encoding: 66 66 13
Width: 497
Flags: W
LayerCount: 2
Fore
SplineSet
24 565 m 0,0,1
 24 558 24 558 25 531 c 0,2,3
 25 528 25 528 26.5 520 c 128,-1,4
 28 512 28 512 28 508 c 256,5,6
 28 504 28 504 26.5 496.5 c 128,-1,7
 25 489 25 489 25 485 c 0,8,9
 25 479 25 479 26.5 468 c 128,-1,10
 28 457 28 457 28 451 c 0,11,12
 28 444 28 444 27 430 c 128,-1,13
 26 416 26 416 26 409 c 0,14,15
 26 406 26 406 26 401 c 0,16,17
 27 395 27 395 27 392 c 0,18,19
 27 363 27 363 26 349 c 0,20,21
 26 341 26 341 20.5 323 c 128,-1,22
 15 305 15 305 15 295 c 0,23,24
 15 272 15 272 21.5 225.5 c 128,-1,25
 28 179 28 179 28 156 c 0,26,27
 28 150 28 150 30.5 136 c 128,-1,28
 33 122 33 122 33 116 c 2,29,-1
 33 76 l 2,30,31
 33 71 33 71 43 47 c 0,32,33
 45 41 45 41 52 30 c 0,34,35
 68 15 68 15 109 15 c 0,36,37
 114 15 114 15 124.5 16 c 128,-1,38
 135 17 135 17 140 17 c 0,39,40
 143 17 143 17 149.5 16 c 128,-1,41
 156 15 156 15 159 14 c 0,42,43
 174 14 174 14 192 14 c 0,44,45
 204 14 204 14 233 22 c 128,-1,46
 262 30 262 30 271.5 36.5 c 128,-1,47
 281 43 281 43 300 56 c 0,48,49
 309 60 309 60 327 67 c 0,50,51
 333 71 333 71 345 77 c 0,52,53
 351 79 351 79 361.5 85 c 128,-1,54
 372 91 372 91 381.5 103 c 128,-1,55
 391 115 391 115 400 127 c 0,56,57
 419 142 419 142 451 177 c 0,58,59
 457 185 457 185 459 198 c 0,60,61
 463 217 463 217 464 220 c 0,62,63
 486 290 486 290 486 333 c 0,64,65
 486 385 486 385 460 436 c 0,66,67
 455 441 455 441 445 451 c 0,68,69
 440 453 440 453 432 457 c 0,70,71
 396 478 396 478 396 505 c 0,72,73
 396 511 396 511 417 542 c 0,74,75
 440 577 440 577 442 583.5 c 128,-1,76
 444 590 444 590 447 601 c 0,77,78
 461 642 461 642 461 655 c 0,79,80
 461 678 461 678 453 709 c 0,81,82
 443 744 443 744 429 757 c 128,-1,83
 415 770 415 770 392 778 c 0,84,85
 378 779 378 779 351 784 c 0,86,87
 344 786 344 786 329 790 c 0,88,89
 303 798 303 798 308 798 c 1,90,91
 305 798 305 798 303 797 c 0,92,93
 295 797 295 797 281.5 798.5 c 128,-1,94
 268 800 268 800 262 800 c 1,95,-1
 261 798 l 1,96,-1
 255 798 l 2,97,98
 248 798 248 798 243 797 c 1,99,-1
 243 796 l 1,100,-1
 243 796 l 1,101,-1
 242 796 l 1,102,-1
 242 797 l 1,103,104
 216 788 216 788 202 786 c 0,105,106
 192 785 192 785 183 780 c 0,107,108
 170 773 170 773 165 771 c 0,109,110
 148 765 148 765 140 764 c 0,111,112
 136 764 136 764 128 763 c 0,113,114
 125 763 125 763 118 764 c 0,115,116
 111 764 111 764 107 764 c 0,117,118
 101 764 101 764 97 762 c 0,119,120
 87 762 87 762 80 756.5 c 128,-1,121
 73 751 73 751 47.5 706 c 128,-1,122
 22 661 22 661 21 652 c 0,123,124
 20 647 20 647 20 642 c 0,125,126
 20 633 20 633 23.5 616 c 128,-1,127
 27 599 27 599 27 590 c 0,128,129
 27 586 27 586 25.5 577.5 c 128,-1,130
 24 569 24 569 24 565 c 0,0,1
218 690 m 0,131,132
 225 690 225 690 237.5 687.5 c 128,-1,133
 250 685 250 685 257.5 684.5 c 128,-1,134
 265 684 265 684 284 683 c 0,135,136
 291 681 291 681 304 677 c 0,137,138
 352 663 352 663 368 634 c 0,139,140
 375 623 375 623 375 615 c 0,141,142
 375 603 375 603 353 583 c 0,143,144
 337 570 337 570 321 556 c 0,145,146
 310 544 310 544 287 524 c 0,147,148
 280 521 280 521 267 514 c 2,149,-1
 253 504 l 2,150,151
 243 501 243 501 228 496 c 0,152,153
 222 492 222 492 209 486 c 0,154,155
 202 483 202 483 183 477 c 0,156,157
 176 476 176 476 159.5 464 c 128,-1,158
 143 452 143 452 137 452 c 0,159,160
 126 452 126 452 119 471 c 0,161,162
 114 486 114 486 114 500 c 1,163,164
 114 498 114 498 116 517 c 0,165,166
 115 528 115 528 116 549 c 0,167,168
 116 552 116 552 116 558 c 0,169,170
 117 564 117 564 117 568 c 0,171,172
 117 575 117 575 114 590.5 c 128,-1,173
 111 606 111 606 111 614 c 0,174,175
 111 635 111 635 129 655 c 0,176,177
 131 660 131 660 137 667 c 0,178,179
 141 668 141 668 150 672 c 0,180,181
 193 690 193 690 218 690 c 0,131,132
181 385 m 1,182,183
 205 385 205 385 249 382 c 0,184,185
 267 381 267 381 296 373 c 0,186,187
 301 372 301 372 310 369 c 1,188,189
 327 371 327 371 359 365 c 0,190,191
 376 358 376 358 391.5 338.5 c 128,-1,192
 407 319 407 319 409 301 c 0,193,194
 410 291 410 291 410 281 c 0,195,196
 410 265 410 265 405 255 c 128,-1,197
 400 245 400 245 386 225 c 0,198,199
 378 208 378 208 354 180 c 1,200,201
 342 176 342 176 321 164 c 0,202,203
 307 152 307 152 292 140 c 128,-1,204
 277 128 277 128 262 124 c 0,205,206
 259 123 259 123 253 122 c 0,207,208
 227 113 227 113 225 113 c 2,209,-1
 225 112 l 1,210,-1
 221 112 l 2,211,212
 220 112 220 112 218 112 c 0,213,214
 216 111 216 111 215 111 c 0,215,216
 208 111 208 111 166 126 c 1,217,218
 154 126 154 126 131 134 c 1,219,220
 114 145 114 145 114 181 c 0,221,222
 114 187 114 187 112 210 c 0,223,224
 112 218 112 218 112 235 c 0,225,226
 111 273 111 273 109 298 c 0,227,228
 108 301 108 301 106.5 308.5 c 128,-1,229
 105 316 105 316 105 320 c 0,230,231
 105 346 105 346 112 355 c 128,-1,232
 119 364 119 364 144 375 c 0,233,234
 158 380 158 380 181 385 c 1,182,183
EndSplineSet
Validated: 37
EndChar

StartChar: C
Encoding: 67 67 14
Width: 580
Flags: W
LayerCount: 2
Fore
SplineSet
28 299 m 0,0,1
 28 296 28 296 27 289 c 0,2,3
 27 283 27 283 27 280 c 0,4,5
 27 274 27 274 28 263 c 128,-1,6
 29 252 29 252 29 246 c 0,7,8
 29 244 29 244 29 239 c 0,9,10
 28 235 28 235 28 233 c 0,11,12
 30 214 30 214 32 203 c 0,13,14
 41 174 41 174 64 138 c 0,15,16
 68 135 68 135 75 127 c 0,17,18
 79 122 79 122 83 111.5 c 128,-1,19
 87 101 87 101 94 81 c 0,20,21
 95 77 95 77 104 63 c 0,22,23
 110 53 110 53 124 34 c 1,24,25
 142 18 142 18 165 18 c 0,26,27
 168 18 168 18 173.5 19 c 128,-1,28
 179 20 179 20 182 20 c 256,29,30
 185 20 185 20 202.5 13 c 128,-1,31
 220 6 220 6 229 6 c 0,32,33
 234 6 234 6 242.5 11.5 c 128,-1,34
 251 17 251 17 258 17 c 0,35,36
 266 17 266 17 280.5 12 c 128,-1,37
 295 7 295 7 303 7 c 1,38,39
 299 7 299 7 317 11 c 0,40,41
 329 11 329 11 353 17 c 0,42,43
 363 23 363 23 374.5 30 c 128,-1,44
 386 37 386 37 397 37 c 0,45,46
 401 37 401 37 409 36 c 0,47,48
 418 36 418 36 422 36 c 0,49,50
 438 36 438 36 446 43 c 0,51,52
 459 54 459 54 460 54 c 0,53,54
 467 55 467 55 480 57 c 1,55,56
 494 64 494 64 521 76 c 1,57,58
 530 86 530 86 539 96 c 128,-1,59
 548 106 548 106 548 117 c 0,60,61
 548 132 548 132 537.5 148 c 128,-1,62
 527 164 527 164 514 169 c 0,63,64
 510 170 510 170 496 170 c 0,65,66
 493 170 493 170 491 170 c 0,67,68
 479 169 479 169 466 159 c 1,69,70
 409 159 409 159 390 144 c 1,71,72
 381 144 381 144 377 141 c 0,73,74
 371 141 371 141 360 142 c 0,75,76
 348 142 348 142 342 142 c 0,77,78
 334 142 334 142 329 139 c 1,79,80
 335 139 335 139 310 143 c 0,81,82
 271 150 271 150 249 150 c 0,83,84
 247 150 247 150 243 150 c 0,85,86
 239 149 239 149 237 149 c 0,87,88
 210 149 210 149 189 166 c 0,89,90
 177 175 177 175 169 195 c 0,91,92
 158 224 158 224 156 228 c 0,93,94
 150 234 150 234 138 248 c 0,95,96
 124 266 124 266 124 283 c 0,97,98
 124 287 124 287 125.5 295 c 128,-1,99
 127 303 127 303 127 307 c 256,100,101
 127 311 127 311 125 318 c 128,-1,102
 123 325 123 325 123 328 c 0,103,104
 123 333 123 333 123 342 c 0,105,106
 123 345 123 345 121 350 c 128,-1,107
 119 355 119 355 119 359 c 0,108,109
 119 368 119 368 122 382 c 0,110,111
 126 400 126 400 127 406 c 0,112,113
 133 462 133 462 135 475 c 0,114,115
 142 522 142 522 156.5 538.5 c 128,-1,116
 171 555 171 555 202 589 c 0,117,118
 207 597 207 597 219 611 c 0,119,120
 223 613 223 613 230 618 c 128,-1,121
 237 623 237 623 252 634 c 0,122,123
 260 644 260 644 280 660 c 0,124,125
 286 662 286 662 297 665 c 0,126,127
 305 669 305 669 320 675 c 0,128,129
 369 688 369 688 379 688 c 0,130,131
 411 687 411 687 473 695 c 0,132,133
 477 694 477 694 492 694 c 0,134,135
 498 694 498 694 510 691.5 c 128,-1,136
 522 689 522 689 528 689 c 0,137,138
 541 689 541 689 554 701 c 128,-1,139
 567 713 567 713 567 726 c 0,140,141
 567 737 567 737 559.5 753 c 128,-1,142
 552 769 552 769 544.5 773.5 c 128,-1,143
 537 778 537 778 494 784 c 0,144,145
 482 787 482 787 458 790 c 0,146,147
 450 790 450 790 433 791 c 0,148,149
 429 792 429 792 422 794 c 0,150,151
 411 795 411 795 390 795 c 0,152,153
 365 795 365 795 350 786 c 1,154,155
 340 786 340 786 336 784 c 0,156,157
 325 784 325 784 309 773 c 0,158,159
 297 765 297 765 284 757 c 0,160,161
 277 755 277 755 264 748 c 0,162,163
 258 745 258 745 247 739 c 1,164,165
 230 739 230 739 209 723 c 0,166,167
 192 710 192 710 176 696 c 0,168,169
 164 688 164 688 141 668 c 0,170,171
 137 661 137 661 127 648 c 0,172,173
 122 643 122 643 113 635 c 0,174,175
 106 632 106 632 94 622 c 0,176,177
 91 616 91 616 84 604 c 0,178,179
 79 597 79 597 72 585.5 c 128,-1,180
 65 574 65 574 55 537.5 c 128,-1,181
 45 501 45 501 43 488 c 0,182,183
 40 482 40 482 36 470 c 0,184,185
 35 462 35 462 30 448 c 0,186,187
 28 444 28 444 24 436 c 0,188,189
 23 434 23 434 19 373 c 0,190,191
 19 371 19 371 18 365.5 c 128,-1,192
 17 360 17 360 17 357 c 256,193,194
 17 354 17 354 18 346 c 0,195,196
 18 338 18 338 18 334 c 0,197,198
 18 328 18 328 23 316.5 c 128,-1,199
 28 305 28 305 28 299 c 0,0,1
EndSplineSet
Validated: 37
EndChar

StartChar: D
Encoding: 68 68 15
Width: 638
Flags: W
LayerCount: 2
Fore
SplineSet
545 365 m 0,0,1
 540 358 540 358 529 344 c 0,2,3
 524 339 524 339 511.5 324.5 c 128,-1,4
 499 310 499 310 477 283 c 1,5,-1
 464 261 l 2,6,7
 458 255 458 255 447 243 c 0,8,9
 445 239 445 239 439 230 c 0,10,11
 435 226 435 226 428 218 c 0,12,13
 425 213 425 213 418 202 c 0,14,15
 417 201 417 201 404 191 c 0,16,17
 399 187 399 187 387 170 c 0,18,19
 387 169 387 169 379 164 c 128,-1,20
 371 159 371 159 365.5 148.5 c 128,-1,21
 360 138 360 138 356 134 c 0,22,23
 345 124 345 124 303 90 c 0,24,25
 294 83 294 83 289.5 72 c 128,-1,26
 285 61 285 61 282 57.5 c 128,-1,27
 279 54 279 54 260 48 c 0,28,29
 248 42 248 42 223 31 c 0,30,31
 221 29 221 29 216 27 c 128,-1,32
 211 25 211 25 205 22 c 0,33,34
 190 12 190 12 161 0 c 0,35,36
 157 0 157 0 144.5 -3 c 128,-1,37
 132 -6 132 -6 125 -6 c 0,38,39
 83 -6 83 -6 71 38 c 0,40,41
 70 45 70 45 67 60 c 0,42,43
 60 84 60 84 60 82 c 1,44,45
 60 85 60 85 61 92 c 0,46,47
 61 98 61 98 61 101 c 0,48,49
 61 113 61 113 57.5 135 c 128,-1,50
 54 157 54 157 54 168 c 0,51,52
 54 170 54 170 54 173 c 0,53,54
 55 177 55 177 55 179 c 0,55,56
 55 184 55 184 52.5 193 c 128,-1,57
 50 202 50 202 50 206 c 0,58,59
 50 211 50 211 51 219.5 c 128,-1,60
 52 228 52 228 52 232 c 0,61,62
 52 238 52 238 51 249 c 128,-1,63
 50 260 50 260 50 266 c 0,64,65
 50 275 50 275 52.5 295 c 128,-1,66
 55 315 55 315 55 326 c 0,67,68
 55 334 55 334 51.5 351 c 128,-1,69
 48 368 48 368 48 376 c 0,70,71
 48 381 48 381 49 389.5 c 128,-1,72
 50 398 50 398 50 402 c 0,73,74
 50 407 50 407 43 450 c 0,75,76
 43 451 43 451 43 480 c 0,77,78
 43 484 43 484 43 493 c 0,79,80
 44 502 44 502 44 507 c 0,81,82
 44 525 44 525 43 561 c 128,-1,83
 42 597 42 597 42 615 c 0,84,85
 42 620 42 620 44.5 630.5 c 128,-1,86
 47 641 47 641 47 647 c 0,87,88
 47 660 47 660 41.5 679 c 128,-1,89
 36 698 36 698 36 706 c 0,90,91
 36 748 36 748 52 767 c 2,92,-1
 56 772 l 2,93,94
 61 779 61 779 65 787 c 0,95,96
 69 792 69 792 81 793 c 0,97,98
 86 796 86 796 95 802 c 1,99,100
 109 803 109 803 118 803 c 0,101,102
 124 803 124 803 136.5 801 c 128,-1,103
 149 799 149 799 155 799 c 2,104,-1
 161 799 l 2,105,106
 164 801 164 801 167 801 c 0,107,108
 172 801 172 801 182 797.5 c 128,-1,109
 192 794 192 794 197 794 c 0,110,111
 201 794 201 794 207.5 796.5 c 128,-1,112
 214 799 214 799 217 799 c 0,113,114
 226 799 226 799 243 793 c 0,115,116
 252 793 252 793 269 791 c 2,117,-1
 294 787 l 2,118,119
 299 788 299 788 307 788 c 2,120,-1
 310 788 l 1,121,122
 318 783 318 783 322 783 c 0,123,124
 324 783 324 783 327.5 784 c 128,-1,125
 331 785 331 785 334.5 785 c 128,-1,126
 338 785 338 785 349 786 c 0,127,128
 368 788 368 788 362 788 c 1,129,130
 371 788 371 788 372 780 c 1,131,-1
 390 782 l 1,132,-1
 389 786 l 1,133,134
 396 789 396 789 399 789 c 0,135,136
 400 789 400 789 407 782 c 128,-1,137
 414 775 414 775 417 774 c 0,138,139
 424 770 424 770 461 767 c 1,140,141
 467 760 467 760 482 755 c 0,142,143
 490 749 490 749 508 739 c 2,144,-1
 527 730 l 2,145,146
 531 724 531 724 538 716 c 0,147,148
 556 694 556 694 570 670 c 0,149,150
 572 664 572 664 576 653 c 0,151,152
 579 648 579 648 584 639 c 0,153,154
 585 636 585 636 591 599 c 0,155,156
 597 567 597 567 597 567 c 2,157,158
 597 570 597 570 595 549.5 c 128,-1,159
 593 529 593 529 588 490 c 1,160,161
 582 479 582 479 573 455 c 0,162,163
 571 448 571 448 568 434 c 0,164,165
 565 428 565 428 560 413 c 128,-1,166
 555 398 555 398 545 365 c 0,0,1
331 652 m 0,167,168
 328 652 328 652 323.5 651 c 128,-1,169
 319 650 319 650 316 650 c 0,170,171
 304 650 304 650 284 654 c 0,172,173
 258 658 258 658 251 658.5 c 128,-1,174
 244 659 244 659 231 660 c 0,175,176
 226 661 226 661 215 665.5 c 128,-1,177
 204 670 204 670 194 670 c 0,178,179
 188 670 188 670 178 669 c 0,180,181
 177 669 177 669 166 665 c 0,182,183
 134 655 134 655 134 575 c 0,184,185
 134 544 134 544 138 514 c 0,186,187
 139 511 139 511 142 501 c 128,-1,188
 145 491 145 491 145 485 c 0,189,190
 145 483 145 483 143.5 479 c 128,-1,191
 142 475 142 475 142 473 c 0,192,193
 142 472 142 472 143 468 c 0,194,195
 143 465 143 465 143 464 c 0,196,197
 143 454 143 454 142 436 c 128,-1,198
 141 418 141 418 141 409 c 0,199,200
 141 405 141 405 142.5 396.5 c 128,-1,201
 144 388 144 388 144 384 c 0,202,203
 144 379 144 379 141 369.5 c 128,-1,204
 138 360 138 360 138 356 c 256,205,206
 138 352 138 352 138 343 c 0,207,208
 137 336 137 336 137 331 c 0,209,210
 137 328 137 328 139 321.5 c 128,-1,211
 141 315 141 315 141 312 c 0,212,213
 141 306 141 306 141 293 c 0,214,215
 141 289 141 289 142 279.5 c 128,-1,216
 143 270 143 270 143 264 c 0,217,218
 143 262 143 262 142 257.5 c 128,-1,219
 141 253 141 253 141 251 c 0,220,221
 142 233 142 233 142 240 c 1,222,223
 142 237 142 237 142 230 c 0,224,225
 141 224 141 224 141 220 c 0,226,227
 142 216 142 216 143 207 c 1,228,229
 143 210 143 210 143 173 c 0,230,231
 144 167 144 167 151 145 c 0,232,233
 158 120 158 120 179 120 c 0,234,235
 183 120 183 120 187 120 c 0,236,237
 191 123 191 123 203 124 c 0,238,239
 211 125 211 125 234 140 c 0,240,241
 247 152 247 152 259 168 c 0,242,243
 268 183 268 183 286 203 c 1,244,245
 316 224 316 224 356 257 c 1,246,247
 363 268 363 268 378 289 c 0,248,249
 384 294 384 294 393 306 c 0,250,251
 398 315 398 315 409 332 c 0,252,253
 413 341 413 341 423 359 c 0,254,255
 432 367 432 367 450 385 c 1,256,257
 461 404 461 404 488 440 c 0,258,259
 502 455 502 455 502 500 c 0,260,261
 502 542 502 542 475 579 c 0,262,263
 471 586 471 586 463 597 c 0,264,265
 459 603 459 603 443 609 c 0,266,267
 438 611 438 611 433 620 c 128,-1,268
 428 629 428 629 422 632 c 0,269,270
 413 633 413 633 397 638 c 2,271,-1
 376 647 l 2,272,273
 366 647 366 647 351 648 c 0,274,275
 348 648 348 648 341.5 650 c 128,-1,276
 335 652 335 652 331 652 c 0,167,168
EndSplineSet
Validated: 37
EndChar

StartChar: E
Encoding: 69 69 16
Width: 554
Flags: W
LayerCount: 2
Fore
SplineSet
438 17 m 2,0,1
 436 17 436 17 431 18 c 128,-1,2
 426 19 426 19 424 19 c 0,3,4
 415 19 415 19 398 18 c 128,-1,5
 381 17 381 17 371.5 17 c 128,-1,6
 362 17 362 17 344 14 c 128,-1,7
 326 11 326 11 318 11 c 0,8,9
 282 10 282 10 209 9 c 0,10,11
 203 9 203 9 190 8 c 128,-1,12
 177 7 177 7 170 7 c 0,13,14
 110 7 110 7 84 17 c 0,15,16
 77 20 77 20 65.5 31.5 c 128,-1,17
 54 43 54 43 52 49 c 0,18,19
 51 51 51 51 51 71 c 0,20,21
 51 74 51 74 51 79 c 0,22,23
 50 85 50 85 50 87 c 0,24,25
 50 95 50 95 53.5 112 c 128,-1,26
 57 129 57 129 57 137 c 1,27,28
 57 129 57 129 57 165 c 0,29,30
 57 167 57 167 57 173 c 0,31,32
 56 177 56 177 56 180 c 0,33,34
 58 200 58 200 58 198 c 1,35,36
 58 202 58 202 56 209.5 c 128,-1,37
 54 217 54 217 54 220 c 0,38,39
 54 230 54 230 59 248.5 c 128,-1,40
 64 267 64 267 64 272 c 0,41,42
 64 300 64 300 55 319 c 0,43,44
 51 325 51 325 47.5 335.5 c 128,-1,45
 44 346 44 346 41 366 c 0,46,47
 38 381 38 381 38 378 c 1,48,49
 38 381 38 381 42.5 389.5 c 128,-1,50
 47 398 47 398 47 424 c 0,51,52
 47 434 47 434 52.5 446 c 128,-1,53
 58 458 58 458 58 463 c 0,54,55
 58 465 58 465 57 468.5 c 128,-1,56
 56 472 56 472 56 473 c 0,57,58
 56 475 56 475 57 479.5 c 128,-1,59
 58 484 58 484 58 486 c 0,60,61
 56 499 56 499 57 521 c 0,62,63
 57 524 57 524 53 535 c 0,64,65
 51 539 51 539 51 552 c 0,66,67
 51 555 51 555 50 561.5 c 128,-1,68
 49 568 49 568 49 571 c 0,69,70
 49 579 49 579 53.5 593 c 128,-1,71
 58 607 58 607 58.5 613.5 c 128,-1,72
 59 620 59 620 60 634 c 0,73,74
 60 636 60 636 61.5 641.5 c 128,-1,75
 63 647 63 647 63 650 c 0,76,77
 63 656 63 656 53.5 677.5 c 128,-1,78
 44 699 44 699 44 712 c 0,79,80
 44 713 44 713 49 733 c 0,81,82
 50 739 50 739 52.5 750 c 128,-1,83
 55 761 55 761 67 769 c 128,-1,84
 79 777 79 777 90 777 c 0,85,86
 93 778 93 778 99 778 c 0,87,88
 102 778 102 778 109 778 c 0,89,90
 116 777 116 777 119 777 c 0,91,92
 123 777 123 777 130 778 c 0,93,94
 136 778 136 778 140 778 c 0,95,96
 144 780 144 780 151 780 c 0,97,98
 155 780 155 780 164 779 c 128,-1,99
 173 778 173 778 178 778 c 0,100,101
 187 784 187 784 199 784 c 0,102,103
 202 786 202 786 231 786 c 0,104,105
 239 787 239 787 252 791 c 1,106,107
 262 789 262 789 291 788 c 0,108,109
 292 788 292 788 304 789 c 1,110,111
 311 794 311 794 320 794 c 0,112,113
 323 795 323 795 328 795 c 0,114,115
 332 795 332 795 342 795 c 0,116,117
 351 794 351 794 356 794 c 0,118,119
 362 798 362 798 398 798 c 0,120,121
 403 800 403 800 421 800 c 1,122,-1
 425 802 l 1,123,124
 435 802 435 802 464 788 c 0,125,126
 474 786 474 786 492 779 c 0,127,128
 506 770 506 770 506 743 c 1,129,130
 506 743 506 743 498 723 c 0,131,132
 494 711 494 711 484 697 c 1,133,134
 471 693 471 693 446 684 c 0,135,136
 437 679 437 679 433 679 c 0,137,138
 425 680 425 680 410 679 c 0,139,140
 386 676 386 676 387 676 c 1,141,142
 376 676 376 676 355 678.5 c 128,-1,143
 334 681 334 681 323 681 c 0,144,145
 319 681 319 681 311.5 680 c 128,-1,146
 304 679 304 679 301 679 c 0,147,148
 293 679 293 679 278 678 c 0,149,150
 273 677 273 677 265 675 c 0,151,152
 245 672 245 672 204 672 c 1,153,154
 206 672 206 672 183 669 c 0,155,156
 150 665 150 665 141 662 c 0,157,158
 118 653 118 653 118 631 c 0,159,160
 118 618 118 618 124 603 c 128,-1,161
 130 588 130 588 130 586 c 0,162,163
 130 581 130 581 125 571.5 c 128,-1,164
 120 562 120 562 120 556 c 0,165,166
 120 554 120 554 121 550.5 c 128,-1,167
 122 547 122 547 122 546 c 2,168,-1
 122 531 l 2,169,170
 122 528 122 528 120.5 521.5 c 128,-1,171
 119 515 119 515 119 512 c 0,172,173
 119 506 119 506 122.5 497.5 c 128,-1,174
 126 489 126 489 126 486 c 0,175,176
 132 456 132 456 173 456 c 0,177,178
 177 456 177 456 187 456 c 0,179,180
 196 457 196 457 200 457.5 c 128,-1,181
 204 458 204 458 207 458 c 0,182,183
 209 458 209 458 213 458 c 0,184,185
 217 457 217 457 219 457 c 0,186,187
 223 457 223 457 231.5 458.5 c 128,-1,188
 240 460 240 460 243.5 461 c 128,-1,189
 247 462 247 462 251 462 c 0,190,191
 256 462 256 462 265.5 460.5 c 128,-1,192
 275 459 275 459 280 459 c 2,193,-1
 295 459 l 2,194,195
 299 461 299 461 312 461 c 1,196,197
 318 465 318 465 338 465 c 0,198,199
 341 466 341 466 346 466 c 0,200,201
 352 466 352 466 364 464.5 c 128,-1,202
 376 463 376 463 382 463 c 0,203,204
 384 464 384 464 404 464 c 0,205,206
 406 464 406 464 410.5 465 c 128,-1,207
 415 466 415 466 417 466 c 256,208,209
 419 466 419 466 423.5 464.5 c 128,-1,210
 428 463 428 463 428.5 463 c 128,-1,211
 429 463 429 463 456 461 c 0,212,213
 458 462 458 462 460 462 c 1,214,215
 459 462 459 462 475 458 c 0,216,217
 503 451 503 451 503 419 c 0,218,219
 503 391 503 391 484 371 c 0,220,221
 481 369 481 369 475 366 c 0,222,223
 469 359 469 359 455 349 c 0,224,225
 431 337 431 337 407 337 c 0,226,227
 405 337 405 337 386.5 340.5 c 128,-1,228
 368 344 368 344 347 344 c 0,229,230
 343 344 343 344 336 342.5 c 128,-1,231
 329 341 329 341 325 341 c 0,232,233
 298 341 298 341 291 341 c 0,234,235
 281 343 281 343 263.5 346 c 128,-1,236
 246 349 246 349 212 349 c 0,237,238
 203 349 203 349 175 341 c 128,-1,239
 147 333 147 333 143 328 c 0,240,241
 142 327 142 327 137 320 c 1,242,-1
 135 301 l 2,243,244
 134 297 134 297 130 288 c 128,-1,245
 126 279 126 279 126 273 c 0,246,247
 126 264 126 264 138 240 c 0,248,249
 142 233 142 233 142 212 c 0,250,251
 142 210 142 210 143.5 205 c 128,-1,252
 145 200 145 200 145 197 c 0,253,254
 145 193 145 193 144 184 c 128,-1,255
 143 175 143 175 143 170 c 0,256,257
 143 132 143 132 181 132 c 0,258,259
 187 132 187 132 198 133.5 c 128,-1,260
 209 135 209 135 215 135 c 1,261,262
 213 135 213 135 231 133 c 0,263,264
 235 136 235 136 261 136 c 0,265,266
 264 137 264 137 268 137 c 0,267,268
 271 137 271 137 278 137 c 0,269,270
 284 136 284 136 288 136 c 0,271,272
 295 140 295 140 313 140 c 0,273,274
 315 140 315 140 318 139 c 0,275,276
 322 139 322 139 324 139 c 0,277,278
 328 138 328 138 367 138 c 0,279,280
 369 139 369 139 371 139 c 256,281,282
 373 139 373 139 378 138 c 128,-1,283
 383 137 383 137 385 137 c 2,284,285
 385 137 385 137 404 137 c 0,286,287
 407 139 407 139 414 139 c 0,288,289
 418 139 418 139 426.5 137.5 c 128,-1,290
 435 136 435 136 439 136 c 0,291,292
 458 136 458 136 476 136 c 0,293,294
 490 135 490 135 510 120 c 0,295,296
 519 113 519 113 519 102 c 0,297,298
 519 64 519 64 510 53 c 0,299,300
 504 47 504 47 485 33.5 c 128,-1,301
 466 20 466 20 461 20 c 2,302,-1
 438 17 l 2,0,1
EndSplineSet
Validated: 37
EndChar

StartChar: F
Encoding: 70 70 17
Width: 517
Flags: W
LayerCount: 2
Fore
SplineSet
59 659 m 0,0,1
 59 656 59 656 60 650 c 128,-1,2
 61 644 61 644 62 641 c 0,3,4
 62 640 62 640 62 620 c 1,5,6
 62 630 62 630 57 592 c 0,7,8
 57 583 57 583 55 566 c 0,9,10
 51 543 51 543 51 549 c 1,11,12
 51 547 51 547 52 542.5 c 128,-1,13
 53 538 53 538 53 536 c 256,14,15
 53 534 53 534 52 529.5 c 128,-1,16
 51 525 51 525 51 522 c 256,17,18
 51 519 51 519 52 512.5 c 128,-1,19
 53 506 53 506 53 503 c 0,20,21
 53 499 53 499 51 489.5 c 128,-1,22
 49 480 49 480 49 475 c 0,23,24
 49 471 49 471 49 464 c 0,25,26
 50 457 50 457 50 453 c 0,27,28
 50 451 50 451 49 446 c 0,29,30
 49 442 49 442 49 439.5 c 128,-1,31
 49 437 49 437 49 433 c 0,32,33
 50 429 50 429 50 427 c 1,34,35
 50 428 50 428 48 411 c 1,36,37
 48 416 48 416 48 382 c 0,38,39
 48 375 48 375 46 363 c 0,40,41
 43 348 43 348 42.5 343 c 128,-1,42
 42 338 42 338 41 328 c 0,43,44
 41 326 41 326 39.5 319 c 128,-1,45
 38 312 38 312 38 309 c 0,46,47
 38 283 38 283 38 276 c 0,48,49
 38 272 38 272 39.5 262.5 c 128,-1,50
 41 253 41 253 41 248 c 0,51,52
 41 221 41 221 41 221 c 2,53,54
 40 215 40 215 38.5 202.5 c 128,-1,55
 37 190 37 190 37 183 c 256,56,57
 37 176 37 176 38 162 c 128,-1,58
 39 148 39 148 39 141 c 0,59,60
 39 139 39 139 38 134 c 0,61,62
 38 130 38 130 38 127 c 2,63,-1
 37 51 l 2,64,65
 37 26 37 26 55.5 15 c 128,-1,66
 74 4 74 4 85 4 c 0,67,68
 86 4 86 4 88 4 c 0,69,70
 93 7 93 7 104 12 c 0,71,72
 109 12 109 12 119 17 c 1,73,74
 125 28 125 28 135 46 c 1,75,76
 143 52 143 52 151 71 c 1,77,-1
 151 74 l 2,78,79
 151 85 151 85 145 94 c 0,80,81
 137 107 137 107 137 108 c 0,82,83
 121 167 121 167 121 195 c 0,84,85
 121 199 121 199 121 206 c 0,86,87
 122 213 122 213 122 216 c 256,88,89
 122 219 122 219 121 224 c 256,90,91
 120 229 120 229 121 231 c 0,92,93
 121 237 121 237 120 246 c 0,94,95
 120 256 120 256 120 261 c 0,96,97
 120 281 120 281 135 297 c 0,98,99
 136 298 136 298 149 306 c 0,100,101
 154 309 154 309 164 316 c 1,102,103
 176 317 176 317 198 319 c 0,104,105
 236 323 236 323 227 323 c 1,106,107
 231 323 231 323 238 321 c 128,-1,108
 245 319 245 319 248 319 c 0,109,110
 252 319 252 319 259 321 c 128,-1,111
 266 323 266 323 269 323 c 256,112,113
 272 323 272 323 279 322 c 0,114,115
 285 322 285 322 288 322 c 0,116,117
 292 322 292 322 299.5 323.5 c 128,-1,118
 307 325 307 325 310 325 c 0,119,120
 315 325 315 325 322.5 325 c 128,-1,121
 330 325 330 325 334 325 c 0,122,123
 337 325 337 325 343.5 326.5 c 128,-1,124
 350 328 350 328 353 328 c 0,125,126
 359 328 359 328 368 328 c 0,127,128
 380 327 380 327 384 327 c 0,129,130
 408 327 408 327 427 337 c 0,131,132
 478 366 478 366 478 398 c 0,133,134
 478 400 478 400 477 405.5 c 128,-1,135
 476 411 476 411 475 413 c 1,136,137
 476 407 476 407 476 427 c 256,138,139
 476 447 476 447 440 451 c 0,140,141
 438 451 438 451 431.5 453 c 128,-1,142
 425 455 425 455 422 455 c 0,143,144
 416 455 416 455 412 452 c 0,145,146
 389 452 389 452 375 444 c 1,147,-1
 370 444 l 2,148,149
 367 444 367 444 362 443 c 128,-1,150
 357 442 357 442 354 442 c 0,151,152
 350 442 350 442 342 442 c 0,153,154
 334 443 334 443 330 443 c 0,155,156
 321 443 321 443 316 442 c 128,-1,157
 311 441 311 441 301 436 c 128,-1,158
 291 431 291 431 287 431 c 0,159,160
 280 431 280 431 266 431 c 0,161,162
 263 430 263 430 255 428 c 128,-1,163
 247 426 247 426 243 426 c 0,164,165
 242 426 242 426 238 427 c 128,-1,166
 234 428 234 428 232 428 c 0,167,168
 218 428 218 428 212 428 c 0,169,170
 205 427 205 427 191.5 422 c 128,-1,171
 178 417 178 417 168 417 c 0,172,173
 124 417 124 417 124 459 c 0,174,175
 124 486 124 486 125 492 c 0,176,177
 127 512 127 512 127 506 c 1,178,179
 127 510 127 510 125 518.5 c 128,-1,180
 123 527 123 527 123 532 c 0,181,182
 123 538 123 538 126 548.5 c 128,-1,183
 129 559 129 559 129 565 c 0,184,185
 129 567 129 567 128 571 c 0,186,187
 128 575 128 575 128 577 c 0,188,189
 128 583 128 583 130 593.5 c 128,-1,190
 132 604 132 604 132 608 c 0,191,192
 132 621 132 621 133.5 635.5 c 128,-1,193
 135 650 135 650 143 657.5 c 128,-1,194
 151 665 151 665 168 678 c 0,195,196
 179 687 179 687 198 687 c 0,197,198
 211 687 211 687 216.5 688.5 c 128,-1,199
 222 690 222 690 228 691 c 0,200,201
 232 691 232 691 239 689.5 c 128,-1,202
 246 688 246 688 250 688 c 0,203,204
 258 688 258 688 271 688 c 1,205,206
 267 688 267 688 341 695 c 0,207,208
 345 697 345 697 351 698 c 0,209,210
 393 699 393 699 410 703 c 0,211,212
 418 706 418 706 433 711 c 0,213,214
 454 716 454 716 466 725 c 0,215,216
 470 728 470 728 478 740 c 0,217,218
 491 758 491 758 491 774 c 0,219,220
 491 792 491 792 471 807 c 0,221,222
 461 814 461 814 455 812 c 0,223,224
 428 814 428 814 429 814 c 1,225,226
 405 814 405 814 395 809 c 0,227,228
 387 809 387 809 370.5 811.5 c 128,-1,229
 354 814 354 814 345 814 c 2,230,-1
 340 812 l 2,231,232
 331 812 331 812 318 806 c 0,233,234
 301 797 301 797 298 796 c 2,235,-1
 286 797 l 2,236,237
 277 794 277 794 265 790 c 0,238,239
 262 790 262 790 257 790 c 128,-1,240
 252 790 252 790 249 790 c 0,241,242
 240 790 240 790 237 789 c 0,243,244
 225 789 225 789 215 782 c 1,245,246
 168 784 168 784 177 784 c 1,247,248
 174 784 174 784 171 784 c 0,249,250
 163 784 163 784 160 781 c 0,251,252
 135 781 135 781 122 777 c 0,253,254
 118 776 118 776 88 762 c 1,255,256
 85 754 85 754 79 744 c 128,-1,257
 73 734 73 734 69 725 c 0,258,259
 59 701 59 701 59 659 c 0,0,1
EndSplineSet
Validated: 37
EndChar

StartChar: G
Encoding: 71 71 18
Width: 598
Flags: W
LayerCount: 2
Fore
SplineSet
46 480 m 0,0,1
 46 474 46 474 42.5 461.5 c 128,-1,2
 39 449 39 449 39 443 c 0,3,4
 39 441 39 441 39 437 c 0,5,6
 40 433 40 433 40 431 c 256,7,8
 40 429 40 429 38.5 424.5 c 128,-1,9
 37 420 37 420 37 417 c 0,10,11
 37 415 37 415 37 410 c 0,12,13
 38 406 38 406 38 404 c 0,14,15
 38 386 38 386 29 355 c 1,16,17
 33 329 33 329 33 305 c 0,18,19
 33 285 33 285 35 278 c 0,20,21
 41 249 41 249 40 243 c 0,22,23
 43 234 43 234 50 216 c 0,24,25
 55 208 55 208 65 191 c 0,26,27
 67 183 67 183 73 168 c 0,28,29
 76 164 76 164 82 155 c 0,30,31
 84 149 84 149 90 136 c 0,32,33
 95 131 95 131 103 121 c 0,34,35
 113 107 113 107 135 80 c 0,36,37
 150 64 150 64 172 54 c 0,38,39
 178 52 178 52 190 46 c 0,40,41
 195 41 195 41 205 32 c 0,42,43
 229 13 229 13 259 11 c 0,44,45
 262 11 262 11 281 11 c 0,46,47
 289 11 289 11 303.5 7.5 c 128,-1,48
 318 4 318 4 325 4 c 0,49,50
 329 4 329 4 354 8 c 1,51,52
 370 15 370 15 401 28 c 0,53,54
 405 29 405 29 414 30.5 c 128,-1,55
 423 32 423 32 438 46 c 1,56,57
 444 58 444 58 471 91 c 0,58,59
 481 97 481 97 498 109 c 0,60,61
 504 115 504 115 509 127 c 0,62,63
 515 143 515 143 517 147 c 0,64,65
 525 156 525 156 538 177 c 1,66,67
 545 199 545 199 545 229 c 0,68,69
 545 233 545 233 544 240 c 128,-1,70
 543 247 543 247 543 251 c 256,71,72
 543 255 543 255 544.5 264.5 c 128,-1,73
 546 274 546 274 546 278 c 128,-1,74
 546 282 546 282 547.5 288.5 c 128,-1,75
 549 295 549 295 549 299 c 1,76,77
 549 298 549 298 547 319 c 1,78,79
 547 316 547 316 547 348 c 0,80,81
 547 350 547 350 546 354 c 128,-1,82
 545 358 545 358 545 361 c 0,83,84
 545 369 545 369 549.5 384.5 c 128,-1,85
 554 400 554 400 554 408 c 0,86,87
 554 462 554 462 492 462 c 0,88,89
 464 462 464 462 458 458 c 0,90,91
 454 458 454 458 446 455.5 c 128,-1,92
 438 453 438 453 434 453 c 256,93,94
 430 453 430 453 422 455 c 128,-1,95
 414 457 414 457 410 457 c 0,96,97
 400 457 400 457 385 454 c 0,98,99
 366 450 366 450 361 450 c 0,100,101
 352 449 352 449 336.5 441 c 128,-1,102
 321 433 321 433 308 433 c 0,103,104
 306 433 306 433 303 433 c 0,105,106
 299 434 299 434 298 434 c 0,107,108
 290 434 290 434 280 429 c 0,109,110
 266 423 266 423 264 422 c 0,111,112
 255 421 255 421 238 414 c 1,113,114
 219 411 219 411 180 407 c 1,115,116
 158 396 158 396 141 396 c 0,117,118
 119 396 119 396 119 423 c 0,119,120
 119 435 119 435 126 454 c 0,121,122
 135 478 135 478 136 484.5 c 128,-1,123
 137 491 137 491 138 503 c 0,124,125
 145 543 145 543 160 573 c 0,126,127
 161 581 161 581 164 595 c 1,128,129
 170 601 170 601 181 616 c 1,130,-1
 188 632 l 1,131,132
 196 639 196 639 209 655 c 0,133,134
 212 662 212 662 220 674 c 1,135,136
 231 679 231 679 252 692 c 0,137,138
 283 711 283 711 319 711 c 0,139,140
 362 711 362 711 382 697 c 0,141,142
 386 693 386 693 396 684 c 0,143,144
 420 662 420 662 442 662 c 0,145,146
 460 662 460 662 467 671 c 0,147,148
 472 677 472 677 479 696 c 0,149,150
 482 707 482 707 482 716 c 0,151,152
 482 730 482 730 460 762 c 0,153,154
 457 769 457 769 448 782 c 1,155,156
 441 785 441 785 428 793 c 0,157,158
 423 799 423 799 411 808 c 0,159,160
 405 809 405 809 393 811 c 0,161,162
 372 816 372 816 375 816 c 0,163,164
 382 816 382 816 349 816 c 1,165,-1
 343 814 l 2,166,167
 339 814 339 814 331 814 c 0,168,169
 323 815 323 815 319 815 c 0,170,171
 300 815 300 815 290 811 c 0,172,173
 286 808 286 808 275 801 c 0,174,175
 268 799 268 799 254 794 c 1,176,177
 242 785 242 785 219 770 c 0,178,179
 214 769 214 769 204 764 c 0,180,181
 198 758 198 758 184 747 c 0,182,183
 175 743 175 743 160 730 c 0,184,185
 158 726 158 726 154 719.5 c 128,-1,186
 150 713 150 713 143 703 c 0,187,188
 141 698 141 698 135.5 691.5 c 128,-1,189
 130 685 130 685 119 674 c 0,190,191
 97 648 97 648 87 628 c 0,192,193
 86 622 86 622 84 609 c 0,194,195
 82 606 82 606 79 597 c 0,196,197
 79 592 79 592 77 582 c 0,198,199
 76 576 76 576 67.5 563.5 c 128,-1,200
 59 551 59 551 59 540.5 c 128,-1,201
 59 530 59 530 51 504 c 0,202,203
 49 500 49 500 45 493 c 1,204,205
 46 493 46 493 46 480 c 0,0,1
426 345 m 0,206,207
 449 344 449 344 457.5 338 c 128,-1,208
 466 332 466 332 466 311 c 0,209,210
 466 254 466 254 456 223 c 0,211,212
 448 198 448 198 436 184 c 0,213,214
 428 179 428 179 415 167 c 0,215,216
 413 162 413 162 408 154 c 0,217,218
 382 129 382 129 369 123 c 0,219,220
 365 122 365 122 357 119 c 0,221,222
 351 120 351 120 338 122 c 0,223,224
 298 126 298 126 249 133 c 0,225,226
 241 137 241 137 218.5 154 c 128,-1,227
 196 171 196 171 192 176 c 0,228,229
 189 185 189 185 180 202 c 0,230,231
 174 208 174 208 166.5 224.5 c 128,-1,232
 159 241 159 241 159 268 c 0,233,234
 159 286 159 286 168 295 c 0,235,236
 173 299 173 299 232 310 c 0,237,238
 251 316 251 316 288 328 c 0,239,240
 299 328 299 328 321 330 c 0,241,242
 329 333 329 333 345 338 c 1,243,244
 380 339 380 339 426 345 c 0,206,207
EndSplineSet
Validated: 37
EndChar

StartChar: H
Encoding: 72 72 19
Width: 544
Flags: W
LayerCount: 2
Fore
SplineSet
74 -26 m 0,0,1
 79 -26 79 -26 87.5 -23 c 128,-1,2
 96 -20 96 -20 101 -10 c 128,-1,3
 106 0 106 0 111.5 8 c 128,-1,4
 117 16 117 16 127 30 c 0,5,6
 131 37 131 37 139 52 c 0,7,8
 161 87 161 87 161 105 c 0,9,10
 161 116 161 116 154.5 137 c 128,-1,11
 148 158 148 158 148 170 c 0,12,13
 148 174 148 174 148 182 c 0,14,15
 149 190 149 190 149 194 c 256,16,17
 149 198 149 198 148 206 c 0,18,19
 148 213 148 213 148 217 c 0,20,21
 148 239 148 239 152 253 c 0,22,23
 159 274 159 274 223 287 c 0,24,25
 230 287 230 287 243 289 c 0,26,27
 250 292 250 292 265.5 295 c 128,-1,28
 281 298 281 298 297 302 c 0,29,30
 300 303 300 303 320 319 c 0,31,32
 337 332 337 332 357 332 c 0,33,34
 388 332 388 332 388 292 c 0,35,36
 388 289 388 289 387 284 c 0,37,38
 387 279 387 279 387 277 c 0,39,40
 387 272 387 272 389 262.5 c 128,-1,41
 391 253 391 253 391 249 c 0,42,43
 393 228 393 228 393 220 c 0,44,45
 393 210 393 210 390.5 189.5 c 128,-1,46
 388 169 388 169 388 159 c 0,47,48
 388 155 388 155 389 147 c 0,49,50
 389 139 389 139 389 135 c 0,51,52
 389 123 389 123 388 92 c 0,53,54
 388 89 388 89 386.5 80 c 128,-1,55
 385 71 385 71 385 67 c 2,56,-1
 389 32 l 2,57,58
 390 26 390 26 402 -8 c 0,59,60
 408 -15 408 -15 431 -14 c 2,61,-1
 434 -14 l 2,62,63
 447 -13 447 -13 465 5 c 0,64,65
 474 15 474 15 491 36 c 0,66,67
 499 51 499 51 499 86 c 0,68,69
 499 90 499 90 497.5 98 c 128,-1,70
 496 106 496 106 496 109 c 0,71,72
 496 111 496 111 497 114 c 0,73,74
 497 118 497 118 497 120 c 0,75,76
 497 130 497 130 497 150 c 0,77,78
 496 170 496 170 496 180 c 0,79,80
 496 204 496 204 496 202 c 1,81,82
 495 208 495 208 493 220 c 0,83,84
 493 227 493 227 493 242 c 0,85,86
 492 245 492 245 491 254 c 128,-1,87
 490 263 490 263 490 267 c 0,88,89
 490 304 490 304 492 325 c 0,90,91
 495 354 495 354 495 346 c 1,92,93
 495 347 495 347 494 351 c 128,-1,94
 493 355 493 355 493 356 c 0,95,96
 493 359 493 359 493 377 c 0,97,98
 493 383 493 383 495 393 c 128,-1,99
 497 403 497 403 497 409 c 0,100,101
 497 413 497 413 496 423 c 128,-1,102
 495 433 495 433 495 439 c 2,103,-1
 498 491 l 2,104,105
 497 496 497 496 496 505 c 0,106,107
 497 526 497 526 497 526 c 2,108,109
 497 529 497 529 495 535 c 128,-1,110
 493 541 493 541 493 545 c 0,111,112
 493 547 493 547 494 551 c 128,-1,113
 495 555 495 555 495 557 c 256,114,115
 495 559 495 559 494 562 c 0,116,117
 494 564 494 564 494 566 c 0,118,119
 494 573 494 573 496 587 c 128,-1,120
 498 601 498 601 498 608 c 0,121,122
 498 611 498 611 497 616 c 128,-1,123
 496 621 496 621 496 624 c 0,124,125
 496 625 496 625 499 640 c 0,126,127
 499 646 499 646 501 657 c 0,128,129
 511 697 511 697 511 696 c 1,130,131
 511 706 511 706 507 716 c 0,132,133
 503 731 503 731 502 735 c 0,134,135
 498 757 498 757 498 772 c 0,136,137
 498 777 498 777 499 787 c 128,-1,138
 500 797 500 797 500 802 c 0,139,140
 500 834 500 834 473 835 c 0,141,142
 468 832 468 832 458 826 c 1,143,144
 452 817 452 817 440 801 c 128,-1,145
 428 785 428 785 421.5 765 c 128,-1,146
 415 745 415 745 409 725 c 0,147,148
 400 699 400 699 400 683 c 0,149,150
 400 660 400 660 401.5 655 c 128,-1,151
 403 650 403 650 404 645 c 0,152,153
 404 641 404 641 403 632.5 c 128,-1,154
 402 624 402 624 402 620 c 256,155,156
 402 616 402 616 403 609.5 c 128,-1,157
 404 603 404 603 404 600 c 0,158,159
 404 576 404 576 402 551 c 0,160,161
 401 546 401 546 398 537 c 128,-1,162
 395 528 395 528 395 523 c 256,163,164
 395 518 395 518 396 508 c 0,165,166
 396 498 396 498 396 493 c 0,167,168
 396 484 396 484 390 463 c 128,-1,169
 384 442 384 442 380 436 c 0,170,171
 369 422 369 422 357 420 c 0,172,173
 349 419 349 419 328 412 c 1,174,175
 309 413 309 413 301 413 c 0,176,177
 280 413 280 413 275 412 c 0,178,179
 264 411 264 411 265 411 c 1,180,181
 262 411 262 411 256.5 412 c 128,-1,182
 251 413 251 413 248 413 c 256,183,184
 245 413 245 413 237.5 411.5 c 128,-1,185
 230 410 230 410 227 410 c 0,186,187
 180 410 180 410 171 415 c 0,188,189
 148 431 148 431 148 476 c 0,190,191
 148 486 148 486 152 500.5 c 128,-1,192
 156 515 156 515 156 519 c 0,193,194
 156 524 156 524 156 534 c 0,195,196
 157 539 157 539 160 548 c 0,197,198
 163 566 163 566 163 584 c 0,199,200
 163 592 163 592 174 638 c 1,201,202
 174 638 174 638 174 657 c 0,203,204
 174 660 174 660 175 666 c 128,-1,205
 176 672 176 672 176 675 c 256,206,207
 176 678 176 678 174 684 c 128,-1,208
 172 690 172 690 172 693 c 0,209,210
 172 702 172 702 178.5 719.5 c 128,-1,211
 185 737 185 737 185 746 c 0,212,213
 185 756 185 756 173.5 769 c 128,-1,214
 162 782 162 782 153 782 c 0,215,216
 147 782 147 782 129 773 c 0,217,218
 98 758 98 758 90 734 c 0,219,220
 89 728 89 728 86 716 c 0,221,222
 79 693 79 693 79 691 c 0,223,224
 79 686 79 686 77.5 676.5 c 128,-1,225
 76 667 76 667 76 662 c 0,226,227
 76 660 76 660 76 655 c 0,228,229
 77 650 77 650 77 648 c 0,230,231
 77 638 77 638 73.5 619 c 128,-1,232
 70 600 70 600 70 591 c 2,233,-1
 69 568 l 2,234,235
 69 565 69 565 67 557.5 c 128,-1,236
 65 550 65 550 65 547 c 0,237,238
 65 543 65 543 66 534 c 128,-1,239
 67 525 67 525 67 521 c 1,240,241
 67 524 67 524 62 493 c 0,242,243
 61 469 61 469 56 421 c 0,244,245
 55 416 55 416 51 405 c 0,246,247
 46 387 46 387 46 306 c 0,248,249
 46 304 46 304 47 299.5 c 128,-1,250
 48 295 48 295 48 293 c 0,251,252
 48 286 48 286 45 272.5 c 128,-1,253
 42 259 42 259 42 253 c 0,254,255
 42 249 42 249 43 242.5 c 128,-1,256
 44 236 44 236 44 233 c 0,257,258
 44 226 44 226 40.5 213 c 128,-1,259
 37 200 37 200 37 193 c 0,260,261
 37 189 37 189 37 182 c 0,262,263
 38 175 38 175 38 171 c 1,264,265
 38 176 38 176 35 127 c 0,266,267
 35 100 35 100 34 46 c 0,268,269
 34 42 34 42 32.5 33 c 128,-1,270
 31 24 31 24 31 19 c 0,271,272
 31 -1 31 -1 36 -6 c 0,273,274
 59 -26 59 -26 74 -26 c 0,0,1
EndSplineSet
Validated: 37
EndChar

StartChar: I
Encoding: 73 73 20
Width: 412
Flags: W
LayerCount: 2
Fore
SplineSet
319 719 m 1,0,1
 316 719 316 719 311 720 c 0,2,3
 305 720 305 720 303 720 c 0,4,5
 300 720 300 720 294.5 719 c 128,-1,6
 289 718 289 718 287 718 c 0,7,8
 284 718 284 718 281 718 c 0,9,10
 276 719 276 719 274 719 c 0,11,12
 258 719 258 719 246.5 701 c 128,-1,13
 235 683 235 683 234 665 c 0,14,15
 234 663 234 663 234 658 c 0,16,17
 235 652 235 652 235 650 c 256,18,19
 235 648 235 648 234 644.5 c 128,-1,20
 233 641 233 641 233 639 c 256,21,22
 233 637 233 637 233 633 c 0,23,24
 234 629 234 629 234 627 c 0,25,26
 234 622 234 622 233 612.5 c 128,-1,27
 232 603 232 603 232 598 c 0,28,29
 232 596 232 596 233 592 c 128,-1,30
 234 588 234 588 234 587 c 0,31,32
 235 580 235 580 235 563 c 0,33,34
 235 558 235 558 234 549.5 c 128,-1,35
 233 541 233 541 233 537 c 256,36,37
 233 533 233 533 234.5 524 c 128,-1,38
 236 515 236 515 236 511 c 256,39,40
 236 507 236 507 234.5 500.5 c 128,-1,41
 233 494 233 494 233 490 c 2,42,-1
 233 473 l 2,43,44
 233 470 233 470 232 465.5 c 128,-1,45
 231 461 231 461 231 458 c 0,46,47
 231 453 231 453 233.5 443.5 c 128,-1,48
 236 434 236 434 237 430 c 0,49,50
 237 413 237 413 240 380 c 0,51,52
 243 364 243 364 243 366 c 1,53,54
 243 362 243 362 241.5 356 c 128,-1,55
 240 350 240 350 240 347 c 256,56,57
 240 344 240 344 240 340 c 0,58,59
 241 335 241 335 241 333 c 0,60,61
 241 325 241 325 239 310 c 128,-1,62
 237 295 237 295 237 288 c 0,63,64
 235 241 235 241 233 216 c 0,65,66
 230 166 230 166 230 175 c 1,67,68
 230 171 230 171 233.5 154 c 128,-1,69
 237 137 237 137 240 130 c 0,70,71
 246 118 246 118 259 117 c 0,72,73
 263 117 263 117 270 116 c 0,74,75
 272 116 272 116 289 110.5 c 128,-1,76
 306 105 306 105 310 105 c 0,77,78
 313 105 313 105 321 106.5 c 128,-1,79
 329 108 329 108 333 108 c 0,80,81
 343 108 343 108 362 92 c 0,82,83
 374 82 374 82 374 50 c 0,84,85
 374 37 374 37 359 26 c 0,86,87
 354 24 354 24 345.5 19.5 c 128,-1,88
 337 15 337 15 331 10.5 c 128,-1,89
 325 6 325 6 312 6 c 0,90,91
 306 6 306 6 291 9 c 1,92,93
 293 9 293 9 277 9 c 0,94,95
 275 9 275 9 270 10 c 128,-1,96
 265 11 265 11 263 11 c 0,97,98
 255 11 255 11 241 9.5 c 128,-1,99
 227 8 227 8 221.5 7.5 c 128,-1,100
 216 7 216 7 205 4.5 c 128,-1,101
 194 2 194 2 188 2 c 0,102,103
 185 2 185 2 178 3 c 128,-1,104
 171 4 171 4 168 4 c 0,105,106
 163 4 163 4 152.5 1 c 128,-1,107
 142 -2 142 -2 136 -2 c 0,108,109
 117 -2 117 -2 100 1 c 1,110,111
 71 -4 71 -4 66 -4 c 0,112,113
 63 -4 63 -4 43 -2 c 0,114,115
 15 2 15 2 15 28 c 0,116,117
 15 32 15 32 19 41 c 0,118,119
 28 59 28 59 41 68 c 0,120,121
 46 71 46 71 72.5 82.5 c 128,-1,122
 99 94 99 94 106 94 c 0,123,124
 107 95 107 95 131 101 c 0,125,126
 139 103 139 103 147 124 c 0,127,128
 149 127 149 127 154 133 c 128,-1,129
 159 139 159 139 159 147 c 0,130,131
 159 151 159 151 157 159.5 c 128,-1,132
 155 168 155 168 155 172 c 0,133,134
 155 175 155 175 156 181.5 c 128,-1,135
 157 188 157 188 157 191 c 0,136,137
 157 195 157 195 155 203 c 128,-1,138
 153 211 153 211 153 215 c 0,139,140
 153 225 153 225 155.5 243.5 c 128,-1,141
 158 262 158 262 158 271 c 0,142,143
 158 274 158 274 158 280 c 0,144,145
 157 286 157 286 157 289 c 256,146,147
 157 292 157 292 159.5 299 c 128,-1,148
 162 306 162 306 162 310 c 0,149,150
 162 349 162 349 161 367 c 0,151,152
 161 370 161 370 159.5 375.5 c 128,-1,153
 158 381 158 381 158 384 c 0,154,155
 158 400 158 400 159 408 c 0,156,157
 161 413 161 413 163 423 c 2,158,-1
 163 444 l 2,159,160
 163 447 163 447 162 451 c 128,-1,161
 161 455 161 455 161 457 c 0,162,163
 161 469 161 469 160 491 c 0,164,165
 160 494 160 494 159 499.5 c 128,-1,166
 158 505 158 505 158 508 c 0,167,168
 158 516 158 516 160.5 531.5 c 128,-1,169
 163 547 163 547 163 555 c 0,170,171
 163 570 163 570 161.5 576 c 128,-1,172
 160 582 160 582 158 590 c 0,173,174
 158 601 158 601 159 623.5 c 128,-1,175
 160 646 160 646 160 657 c 0,176,177
 160 659 160 659 159 663.5 c 128,-1,178
 158 668 158 668 158 671 c 256,179,180
 158 674 158 674 159 680 c 0,181,182
 159 687 159 687 159 690 c 0,183,184
 159 697 159 697 150.5 706.5 c 128,-1,185
 142 716 142 716 134 716 c 0,186,187
 128 716 128 716 114.5 713.5 c 128,-1,188
 101 711 101 711 95 711 c 1,189,190
 102 711 102 711 78 716 c 0,191,192
 33 725 33 725 33 747 c 0,193,194
 33 770 33 770 64 789 c 0,195,196
 65 790 65 790 79 801 c 0,197,198
 86 808 86 808 97 808 c 0,199,200
 103 808 103 808 114.5 807 c 128,-1,201
 126 806 126 806 131 805 c 0,202,203
 142 811 142 811 172 809 c 1,204,205
 184 814 184 814 195 814 c 0,206,207
 197 814 197 814 201 813 c 0,208,209
 205 813 205 813 207 813 c 0,210,211
 216 813 216 813 232.5 818 c 128,-1,212
 249 823 249 823 262 823 c 0,213,214
 264 823 264 823 280 820 c 1,215,216
 292 826 292 826 302 826 c 0,217,218
 333 826 333 826 361 816 c 0,219,220
 366 812 366 812 375 807 c 128,-1,221
 384 802 384 802 393 797 c 0,222,223
 398 793 398 793 398 778 c 0,224,225
 398 750 398 750 381 737 c 0,226,227
 369 728 369 728 338 723 c 0,228,229
 316 719 316 719 319 719 c 1,0,1
EndSplineSet
Validated: 41
EndChar

StartChar: J
Encoding: 74 74 21
Width: 535
Flags: W
LayerCount: 2
Fore
SplineSet
498 208 m 2,0,1
 501 202 501 202 501 188 c 0,2,3
 501 170 501 170 490 151 c 1,4,-1
 490 151 l 1,5,6
 479 124 479 124 469 112 c 0,7,8
 461 104 461 104 446 87 c 0,9,10
 443 81 443 81 434 70 c 0,11,12
 430 66 430 66 421 59 c 0,13,14
 418 55 418 55 413 50 c 0,15,16
 398 47 398 47 381 40 c 1,17,-1
 368 26 l 2,18,19
 365 23 365 23 338 8.5 c 128,-1,20
 311 -6 311 -6 302.5 -8.5 c 128,-1,21
 294 -11 294 -11 275 -18 c 0,22,23
 266 -21 266 -21 243 -21 c 0,24,25
 241 -21 241 -21 236.5 -22.5 c 128,-1,26
 232 -24 232 -24 230 -24 c 0,27,28
 203 -24 203 -24 183 -15 c 0,29,30
 173 -11 173 -11 162 -11 c 0,31,32
 136 -11 136 -11 95 15 c 0,33,34
 80 22 80 22 51 39 c 0,35,36
 48 43 48 43 39.5 49.5 c 128,-1,37
 31 56 31 56 21 63 c 128,-1,38
 11 70 11 70 7 82 c 0,39,40
 5 88 5 88 5 96 c 0,41,42
 5 117 5 117 21 144 c 0,43,44
 38 175 38 175 57 175 c 0,45,46
 71 175 71 175 87 162 c 0,47,48
 94 156 94 156 101.5 141 c 128,-1,49
 109 126 109 126 122 118.5 c 128,-1,50
 135 111 135 111 163 95 c 0,51,52
 172 89 172 89 181 88 c 0,53,54
 196 87 196 87 199 86 c 0,55,56
 226 78 226 78 228 78 c 128,-1,57
 230 78 230 78 234.5 76.5 c 128,-1,58
 239 75 239 75 241 75 c 0,59,60
 246 75 246 75 255 79 c 0,61,62
 258 81 258 81 290 87 c 0,63,64
 296 89 296 89 309 93 c 0,65,66
 329 99 329 99 334 103 c 0,67,68
 343 112 343 112 352 121 c 0,69,70
 360 125 360 125 373 135 c 0,71,72
 382 144 382 144 388 164 c 0,73,74
 393 180 393 180 398 196 c 0,75,76
 402 208 402 208 402 237 c 0,77,78
 402 243 402 243 400.5 254 c 128,-1,79
 399 265 399 265 399 270 c 0,80,81
 399 277 399 277 400 290 c 128,-1,82
 401 303 401 303 401 310 c 0,83,84
 401 318 401 318 396.5 332 c 128,-1,85
 392 346 392 346 391 352 c 0,86,87
 387 393 387 393 387 386 c 2,88,-1
 387 387 l 1,89,-1
 387 385 l 2,90,91
 389 414 389 414 389 406 c 1,92,93
 387 411 387 411 385 417 c 0,94,95
 376 447 376 447 376 485 c 0,96,97
 376 489 376 489 377 497 c 128,-1,98
 378 505 378 505 378 509 c 0,99,100
 378 512 378 512 377 519.5 c 128,-1,101
 376 527 376 527 376 531 c 0,102,103
 376 536 376 536 377 546 c 128,-1,104
 378 556 378 556 378 561 c 0,105,106
 378 571 378 571 373 588.5 c 128,-1,107
 368 606 368 606 368 613 c 0,108,109
 368 631 368 631 375 659 c 0,110,111
 375 662 375 662 375 684 c 0,112,113
 375 695 375 695 370.5 719.5 c 128,-1,114
 366 744 366 744 366 755 c 0,115,116
 366 767 366 767 373 783.5 c 128,-1,117
 380 800 380 800 390 800 c 0,118,119
 394 800 394 800 407 795 c 0,120,121
 413 792 413 792 424 787 c 128,-1,122
 435 782 435 782 450.5 759.5 c 128,-1,123
 466 737 466 737 466 724 c 0,124,125
 466 721 466 721 464.5 714 c 128,-1,126
 463 707 463 707 463 704 c 0,127,128
 463 678 463 678 469 663.5 c 128,-1,129
 475 649 475 649 475 638 c 0,130,131
 475 636 475 636 475 633 c 0,132,133
 474 630 474 630 474 629 c 0,134,135
 474 624 474 624 476 614.5 c 128,-1,136
 478 605 478 605 478 601 c 0,137,138
 478 596 478 596 477 586.5 c 128,-1,139
 476 577 476 577 476 573 c 0,140,141
 476 562 476 562 480 541.5 c 128,-1,142
 484 521 484 521 484 511 c 0,143,144
 484 508 484 508 480 464 c 0,145,146
 476 436 476 436 476 443 c 1,147,148
 476 432 476 432 480 410.5 c 128,-1,149
 484 389 484 389 484 379 c 0,150,151
 484 373 484 373 483 362 c 0,152,153
 483 351 483 351 483 346 c 2,154,155
 483 346 483 346 492 300 c 0,156,157
 492 295 492 295 492 258 c 0,158,159
 494 251 494 251 497 241 c 128,-1,160
 500 231 500 231 500 204 c 1,161,-1
 498 208 l 2,0,1
EndSplineSet
Validated: 37
EndChar

StartChar: K
Encoding: 75 75 22
Width: 608
Flags: W
LayerCount: 2
Fore
SplineSet
505 -2 m 0,0,1
 482 -2 482 -2 466 19 c 0,2,3
 454 35 454 35 424 65 c 0,4,5
 419 68 419 68 411 75 c 128,-1,6
 403 82 403 82 387 98 c 0,7,8
 383 100 383 100 376 106 c 0,9,10
 371 116 371 116 358 133 c 0,11,12
 348 143 348 143 324 155 c 128,-1,13
 300 167 300 167 290 176 c 0,14,15
 263 201 263 201 235 217 c 0,16,17
 230 220 230 220 204 244 c 0,18,19
 184 262 184 262 170 262 c 0,20,21
 162 262 162 262 153 253 c 0,22,23
 138 240 138 240 136 216.5 c 128,-1,24
 134 193 134 193 133 172 c 0,25,26
 128 125 128 125 128 123 c 0,27,28
 128 113 128 113 129 107 c 0,29,30
 129 106 129 106 137 91 c 0,31,32
 150 66 150 66 150 43 c 1,33,34
 150 44 150 44 147 14 c 0,35,36
 143 7 143 7 135 -6 c 0,37,38
 119 -28 119 -28 107 -32 c 0,39,40
 103 -34 103 -34 99 -34 c 0,41,42
 39 -34 39 -34 39 68 c 0,43,44
 39 73 39 73 40 81.5 c 128,-1,45
 41 90 41 90 41 95 c 1,46,47
 41 94 41 94 39 108 c 1,48,49
 40 104 40 104 40 125 c 0,50,51
 40 130 40 130 38.5 138.5 c 128,-1,52
 37 147 37 147 37 151 c 0,53,54
 37 156 37 156 38.5 165 c 128,-1,55
 40 174 40 174 40.5 179 c 128,-1,56
 41 184 41 184 44 205 c 0,57,58
 46 222 46 222 46 232 c 0,59,60
 46 235 46 235 45 242 c 0,61,62
 45 249 45 249 45 252 c 0,63,64
 45 256 45 256 46 264 c 128,-1,65
 47 272 47 272 47 276 c 256,66,67
 47 280 47 280 46 288 c 0,68,69
 46 295 46 295 46 299 c 0,70,71
 46 311 46 311 47 333.5 c 128,-1,72
 48 356 48 356 48 368 c 0,73,74
 48 396 48 396 43 436 c 0,75,76
 41 453 41 453 41 450 c 1,77,78
 41 452 41 452 42 457.5 c 128,-1,79
 43 463 43 463 43 466 c 0,80,81
 43 468 43 468 42 472 c 0,82,83
 42 476 42 476 42 477 c 0,84,85
 42 482 42 482 43 492 c 0,86,87
 43 502 43 502 43 507 c 0,88,89
 43 511 43 511 42.5 517.5 c 128,-1,90
 42 524 42 524 41 527 c 0,91,92
 41 529 41 529 41 575 c 0,93,94
 41 584 41 584 39 601 c 128,-1,95
 37 618 37 618 37 627 c 2,96,97
 37 627 37 627 41 648 c 0,98,99
 42 660 42 660 45 683 c 0,100,101
 49 696 49 696 54 722 c 1,102,103
 90 758 90 758 99 758 c 0,104,105
 118 758 118 758 127 691 c 0,106,107
 130 662 130 662 130 667 c 1,108,109
 130 663 130 663 130 655 c 0,110,111
 129 647 129 647 129 644 c 0,112,113
 129 643 129 643 129 616 c 0,114,115
 129 611 129 611 127.5 600 c 128,-1,116
 126 589 126 589 126 583 c 0,117,118
 126 578 126 578 127 567 c 0,119,120
 127 557 127 557 127 553.5 c 128,-1,121
 127 550 127 550 127 546 c 0,122,123
 126 541 126 541 126 539 c 0,124,125
 126 535 126 535 128 527 c 128,-1,126
 130 519 130 519 130 515 c 0,127,128
 130 514 130 514 130 500 c 0,129,130
 130 489 130 489 136.5 476.5 c 128,-1,131
 143 464 143 464 154 464 c 0,132,133
 167 464 167 464 184 481 c 0,134,135
 190 486 190 486 201 497 c 0,136,137
 203 502 203 502 208 511 c 0,138,139
 219 524 219 524 238 551 c 0,140,141
 243 560 243 560 254.5 566.5 c 128,-1,142
 266 573 266 573 270 578 c 0,143,144
 284 596 284 596 290 610 c 0,145,146
 292 617 292 617 298 629 c 0,147,148
 304 633 304 633 316 643 c 0,149,150
 319 650 319 650 328 662 c 0,151,152
 332 664 332 664 339 667 c 0,153,154
 352 674 352 674 360 684 c 128,-1,155
 368 694 368 694 383 715 c 0,156,157
 385 716 385 716 417 737 c 0,158,159
 418 737 418 737 434.5 752.5 c 128,-1,160
 451 768 451 768 451 769 c 0,161,162
 454 774 454 774 462 784 c 1,163,164
 475 788 475 788 505 810 c 1,165,166
 512 809 512 809 524 800 c 0,167,168
 543 788 543 788 543 769 c 0,169,170
 543 739 543 739 527 723 c 0,171,172
 520 719 520 719 508 707 c 0,173,174
 504 702 504 702 496 692 c 0,175,176
 488 687 488 687 475 676 c 128,-1,177
 462 665 462 665 439 642 c 0,178,179
 434 639 434 639 426 631 c 0,180,181
 422 623 422 623 411 609 c 2,182,-1
 399 598 l 1,183,184
 383 565 383 565 369 552 c 0,185,186
 368 551 368 551 342 535 c 0,187,188
 333 525 333 525 313 506 c 2,189,-1
 303 498 l 2,190,191
 294 486 294 486 274 466 c 0,192,193
 266 459 266 459 248 434 c 0,194,195
 230 406 230 406 230 398 c 0,196,197
 230 373 230 373 271 353 c 1,198,-1
 288 332 l 2,199,200
 294 323 294 323 300.5 315.5 c 128,-1,201
 307 308 307 308 319 308 c 0,202,203
 326 308 326 308 329 309 c 2,204,-1
 331 309 l 1,205,206
 338 301 338 301 362 294 c 0,207,208
 376 290 376 290 387 270 c 0,209,210
 394 257 394 257 413 249.5 c 128,-1,211
 432 242 432 242 442 214 c 1,212,213
 452 202 452 202 460.5 192.5 c 128,-1,214
 469 183 469 183 490 179 c 0,215,216
 495 174 495 174 504 165 c 0,217,218
 508 158 508 158 518 147 c 0,219,220
 535 132 535 132 545 129 c 0,221,222
 547 129 547 129 553 125.5 c 128,-1,223
 559 122 559 122 568.5 106.5 c 128,-1,224
 578 91 578 91 578 84 c 0,225,226
 578 81 578 81 578 75.5 c 128,-1,227
 578 70 578 70 578 67 c 0,228,229
 578 42 578 42 562 26 c 0,230,231
 554 18 554 18 546 9 c 0,232,233
 542 6 542 6 523 1 c 0,234,235
 511 -2 511 -2 505 -2 c 0,0,1
EndSplineSet
Validated: 5
EndChar

StartChar: L
Encoding: 76 76 23
Width: 510
Flags: W
LayerCount: 2
Fore
SplineSet
262 13 m 0,0,1
 270 13 270 13 286.5 17 c 128,-1,2
 303 21 303 21 311 21 c 0,3,4
 315 21 315 21 321.5 20 c 128,-1,5
 328 19 328 19 331 19 c 0,6,7
 338 19 338 19 346 22.5 c 128,-1,8
 354 26 354 26 358 27 c 0,9,10
 377 28 377 28 395.5 29.5 c 128,-1,11
 414 31 414 31 432 40 c 0,12,13
 442 46 442 46 448.5 56 c 128,-1,14
 455 66 455 66 461 75 c 0,15,16
 474 94 474 94 474 102 c 0,17,18
 474 135 474 135 463 143 c 0,19,20
 457 144 457 144 446 148 c 0,21,22
 411 160 411 160 369 160 c 0,23,24
 360 160 360 160 342 160 c 128,-1,25
 324 160 324 160 315 160 c 0,26,27
 307 160 307 160 296 157 c 0,28,29
 282 153 282 153 277 153 c 1,30,31
 286 153 286 153 257 153 c 0,32,33
 251 153 251 153 239.5 149.5 c 128,-1,34
 228 146 228 146 222 146 c 256,35,36
 216 146 216 146 206.5 150 c 128,-1,37
 197 154 197 154 193 155 c 1,38,39
 195 155 195 155 176 155 c 0,40,41
 135 155 135 155 135 233 c 0,42,43
 135 237 135 237 136 245.5 c 128,-1,44
 137 254 137 254 137 258 c 0,45,46
 137 260 137 260 137 266 c 0,47,48
 136 271 136 271 136 274 c 0,49,50
 136 293 136 293 140 311 c 0,51,52
 141 316 141 316 142.5 325 c 128,-1,53
 144 334 144 334 146 352 c 128,-1,54
 148 370 148 370 148 364 c 1,55,56
 148 366 148 366 147 370 c 128,-1,57
 146 374 146 374 146 376 c 0,58,59
 146 379 146 379 147 385.5 c 128,-1,60
 148 392 148 392 148 396 c 0,61,62
 148 402 148 402 146 415 c 128,-1,63
 144 428 144 428 144 435 c 0,64,65
 144 443 144 443 146 461 c 128,-1,66
 148 479 148 479 148 489 c 0,67,68
 148 490 148 490 147 494 c 0,69,70
 147 497 147 497 147 499 c 0,71,72
 147 503 147 503 148.5 511 c 128,-1,73
 150 519 150 519 150 522 c 0,74,75
 150 526 150 526 150 534 c 0,76,77
 149 542 149 542 149 545 c 0,78,79
 149 549 149 549 152 557.5 c 128,-1,80
 155 566 155 566 155 570 c 0,81,82
 155 579 155 579 150.5 596.5 c 128,-1,83
 146 614 146 614 146 623 c 0,84,85
 146 631 146 631 151 643.5 c 128,-1,86
 156 656 156 656 157 662 c 0,87,88
 158 673 158 673 158 700 c 0,89,90
 158 747 158 747 155 755 c 0,91,92
 150 773 150 773 138 797 c 1,93,94
 129 805 129 805 98 805 c 1,95,-1
 98 804 l 2,96,97
 97 804 97 804 89 800 c 0,98,99
 85 799 85 799 78 795 c 0,100,101
 60 778 60 778 60 738 c 0,102,103
 60 735 60 735 61 731 c 0,104,105
 61 726 61 726 61 724 c 0,106,107
 61 719 61 719 60 708 c 128,-1,108
 59 697 59 697 59 692 c 0,109,110
 59 682 59 682 61.5 662.5 c 128,-1,111
 64 643 64 643 64 633 c 0,112,113
 64 627 64 627 62 615.5 c 128,-1,114
 60 604 60 604 60 599 c 1,115,116
 60 603 60 603 60 561 c 0,117,118
 60 542 60 542 55.5 504 c 128,-1,119
 51 466 51 466 51 447 c 0,120,121
 51 442 51 442 49 433 c 128,-1,122
 47 424 47 424 47 419 c 0,123,124
 47 415 47 415 48 407 c 0,125,126
 48 399 48 399 48 395 c 0,127,128
 48 390 48 390 46 381 c 128,-1,129
 44 372 44 372 44 368 c 0,130,131
 44 363 44 363 45 352.5 c 128,-1,132
 46 342 46 342 46 337 c 0,133,134
 46 331 46 331 44.5 320.5 c 128,-1,135
 43 310 43 310 43 305 c 0,136,137
 43 301 43 301 44 293 c 128,-1,138
 45 285 45 285 45 280 c 0,139,140
 45 273 45 273 43.5 257.5 c 128,-1,141
 42 242 42 242 42 235 c 0,142,143
 42 231 42 231 43.5 223 c 128,-1,144
 45 215 45 215 45 212 c 0,145,146
 45 176 45 176 42 153 c 0,147,148
 42 149 42 149 39.5 139.5 c 128,-1,149
 37 130 37 130 37 125 c 256,150,151
 37 120 37 120 38 110 c 128,-1,152
 39 100 39 100 39 94 c 128,-1,153
 39 88 39 88 45 80 c 0,154,155
 53 68 53 68 55 66 c 0,156,157
 56 58 56 58 62 44 c 0,158,159
 67 38 67 38 97 31 c 0,160,161
 105 28 105 28 123 24 c 1,162,163
 140 25 140 25 175 23 c 0,164,165
 178 22 178 22 185.5 20 c 128,-1,166
 193 18 193 18 197 18 c 256,167,168
 201 18 201 18 210 20 c 128,-1,169
 219 22 219 22 223 22 c 0,170,171
 230 22 230 22 242.5 17.5 c 128,-1,172
 255 13 255 13 262 13 c 0,0,1
EndSplineSet
Validated: 37
EndChar

StartChar: M
Encoding: 77 77 24
Width: 748
Flags: W
LayerCount: 2
Fore
SplineSet
542 835 m 1,0,1
 520 828 520 828 495 817 c 1,2,3
 493 808 493 808 488 791 c 0,4,5
 483 783 483 783 475 766 c 0,6,7
 464 739 464 739 461 714 c 1,8,9
 462 720 462 720 462 702 c 1,10,11
 462 707 462 707 454 681 c 0,12,13
 454 676 454 676 452 664 c 0,14,15
 449 657 449 657 444 642 c 0,16,17
 442 636 442 636 427 574 c 0,18,19
 421 564 421 564 413 551 c 0,20,21
 412 549 412 549 401 515 c 0,22,23
 401 506 401 506 397 490 c 0,24,25
 382 454 382 454 382 433 c 0,26,27
 382 421 382 421 374 409.5 c 128,-1,28
 366 398 366 398 354 398 c 0,29,30
 336 398 336 398 331 418 c 0,31,32
 328 435 328 435 325 452 c 0,33,34
 322 459 322 459 317 473 c 0,35,36
 315 481 315 481 300 524 c 0,37,38
 298 536 298 536 293 559 c 0,39,40
 280 614 280 614 280 669 c 0,41,42
 280 683 280 683 274 698 c 0,43,44
 263 721 263 721 262 726 c 0,45,46
 251 763 251 763 245 774 c 0,47,48
 231 801 231 801 207 801 c 0,49,50
 182 801 182 801 168 766 c 0,51,52
 157 739 157 739 157 709 c 0,53,54
 157 706 157 706 149 679 c 1,55,56
 149 663 149 663 143 636 c 1,57,58
 131 609 131 609 126 592 c 0,59,60
 125 585 125 585 123 572 c 0,61,62
 121 565 121 565 117 552 c 0,63,64
 116 547 116 547 115 535 c 0,65,66
 111 528 111 528 105 513 c 1,67,68
 105 502 105 502 101 482 c 0,69,70
 97 477 97 477 91 465 c 0,71,72
 89 459 89 459 84 445 c 0,73,74
 83 439 83 439 80 426 c 0,75,76
 74 410 74 410 63 379 c 1,77,78
 63 362 63 362 59 328 c 1,79,80
 54 320 54 320 49.5 303 c 128,-1,81
 45 286 45 286 45 260 c 1,82,83
 45 260 45 260 35 234 c 128,-1,84
 25 208 25 208 25 196 c 0,85,86
 25 193 25 193 25 186 c 0,87,88
 26 179 26 179 26 175 c 0,89,90
 26 160 26 160 25 148 c 0,91,92
 19 129 19 129 10 89 c 1,93,94
 10 91 10 91 10 70 c 0,95,96
 10 66 10 66 9 57 c 128,-1,97
 8 48 8 48 8 43 c 0,98,99
 8 14 8 14 42 14 c 0,100,101
 53 14 53 14 81.5 35.5 c 128,-1,102
 110 57 110 57 112 66.5 c 128,-1,103
 114 76 114 76 114 95 c 0,104,105
 114 103 114 103 110 135 c 0,106,107
 109 146 109 146 107 168 c 128,-1,108
 105 190 105 190 105 183 c 1,109,110
 105 189 105 189 110 200 c 128,-1,111
 115 211 115 211 116 214 c 0,112,113
 117 226 117 226 122 251.5 c 128,-1,114
 127 277 127 277 127 292 c 0,115,116
 127 295 127 295 128 300.5 c 128,-1,117
 129 306 129 306 129 309 c 0,118,119
 129 313 129 313 128 320 c 0,120,121
 128 328 128 328 128 332 c 256,122,123
 128 336 128 336 134 379 c 0,124,125
 134 387 134 387 137 403 c 0,126,127
 142 414 142 414 151 438 c 0,128,129
 153 453 153 453 158 482 c 2,130,-1
 165 510 l 2,131,132
 166 519 166 519 172 534 c 128,-1,133
 178 549 178 549 191 549 c 0,134,135
 195 549 195 549 202 544 c 0,136,137
 215 535 215 535 220 512 c 0,138,139
 222 493 222 493 224 474 c 0,140,141
 231 446 231 446 246 389 c 0,142,143
 249 378 249 378 249 341 c 0,144,145
 249 330 249 330 257 314 c 128,-1,146
 265 298 265 298 265 288 c 0,147,148
 265 284 265 284 264 277.5 c 128,-1,149
 263 271 263 271 263 267 c 0,150,151
 263 265 263 265 274 235 c 0,152,153
 278 225 278 225 278 181 c 0,154,155
 278 173 278 173 286.5 152 c 128,-1,156
 295 131 295 131 301 127 c 0,157,158
 310 120 310 120 335 120 c 0,159,160
 342 120 342 120 345 121 c 0,161,162
 357 126 357 126 371.5 163 c 128,-1,163
 386 200 386 200 386 217 c 0,164,165
 386 260 386 260 398 278 c 0,166,167
 422 311 422 311 434 344 c 1,168,169
 437 368 437 368 449 415 c 0,170,171
 452 429 452 429 461 458 c 0,172,173
 466 469 466 469 477.5 483 c 128,-1,174
 489 497 489 497 498 497 c 0,175,176
 509 497 509 497 518.5 486 c 128,-1,177
 528 475 528 475 529 464 c 0,178,179
 531 444 531 444 540 406 c 0,180,181
 542 402 542 402 545 394 c 0,182,183
 557 355 557 355 565 334 c 0,184,185
 567 321 567 321 572 295 c 0,186,187
 578 266 578 266 590 208 c 0,188,189
 594 195 594 195 602 169 c 0,190,191
 603 163 603 163 606 152 c 0,192,193
 609 147 609 147 614.5 137 c 128,-1,194
 620 127 620 127 623 107 c 0,195,196
 626 84 626 84 628.5 77.5 c 128,-1,197
 631 71 631 71 635 60 c 0,198,199
 635 51 635 51 637 34 c 0,200,201
 643 7 643 7 666 7 c 0,202,203
 674 7 674 7 681.5 10 c 128,-1,204
 689 13 689 13 702 30 c 128,-1,205
 715 47 715 47 719 57 c 0,206,207
 721 74 721 74 727 109 c 0,208,209
 729 126 729 126 729 125 c 1,210,211
 729 128 729 128 720 146 c 0,212,213
 719 155 719 155 715 172 c 0,214,215
 711 179 711 179 706 193 c 0,216,217
 705 199 705 199 702 210 c 0,218,219
 695 229 695 229 682 263 c 0,220,221
 674 285 674 285 664 314 c 0,222,223
 663 315 663 315 657 369 c 0,224,225
 654 389 654 389 649 429 c 0,226,227
 644 444 644 444 635 476 c 1,228,229
 633 499 633 499 622 544 c 0,230,231
 617 556 617 556 613 562 c 0,232,233
 608 565 608 565 602 574 c 1,234,235
 601 589 601 589 598 617 c 0,236,237
 597 626 597 626 589 657 c 0,238,239
 589 669 589 669 586 692 c 0,240,241
 583 707 583 707 576 736 c 1,242,243
 574 765 574 765 571 794 c 0,244,245
 566 832 566 832 542 835 c 1,0,1
EndSplineSet
Validated: 5
EndChar

StartChar: N
Encoding: 78 78 25
Width: 568
Flags: W
LayerCount: 2
Fore
SplineSet
527 101 m 0,0,1
 527 105 527 105 527 112 c 0,2,3
 528 120 528 120 528 124 c 0,4,5
 528 126 528 126 528 130 c 0,6,7
 527 134 527 134 527 136 c 256,8,9
 527 138 527 138 527 141 c 0,10,11
 528 145 528 145 528 147 c 0,12,13
 528 163 528 163 527 177 c 1,14,15
 522 187 522 187 516 208 c 1,16,17
 516 205 516 205 516 244 c 0,18,19
 516 250 516 250 514 260 c 128,-1,20
 512 270 512 270 512 276 c 0,21,22
 512 280 512 280 513 288 c 128,-1,23
 514 296 514 296 514 300 c 0,24,25
 514 303 514 303 513 307 c 0,26,27
 513 311 513 311 513 313 c 0,28,29
 513 319 513 319 518 331 c 128,-1,30
 523 343 523 343 523 352 c 0,31,32
 523 360 523 360 520.5 375.5 c 128,-1,33
 518 391 518 391 518 399 c 0,34,35
 518 404 518 404 520 414 c 128,-1,36
 522 424 522 424 522 429 c 0,37,38
 522 437 522 437 517.5 459.5 c 128,-1,39
 513 482 513 482 513 494 c 0,40,41
 513 500 513 500 516.5 510.5 c 128,-1,42
 520 521 520 521 520 527 c 0,43,44
 520 531 520 531 519 540.5 c 128,-1,45
 518 550 518 550 518 555 c 0,46,47
 518 557 518 557 519 562 c 0,48,49
 519 566 519 566 519 568 c 0,50,51
 519 571 519 571 517 576 c 128,-1,52
 515 581 515 581 515 584 c 0,53,54
 515 596 515 596 515 596 c 2,55,56
 516 604 516 604 517 621 c 0,57,58
 518 624 518 624 521 631.5 c 128,-1,59
 524 639 524 639 524 644 c 0,60,61
 524 646 524 646 523 652 c 128,-1,62
 522 658 522 658 522 660 c 0,63,64
 522 667 522 667 524.5 678.5 c 128,-1,65
 527 690 527 690 527 696 c 0,66,67
 527 705 527 705 523 720.5 c 128,-1,68
 519 736 519 736 518.5 741 c 128,-1,69
 518 746 518 746 516.5 757 c 128,-1,70
 515 768 515 768 500 778 c 0,71,72
 494 781 494 781 471 782 c 1,73,-1
 467 780 l 1,74,-1
 466 780 l 2,75,76
 452 781 452 781 438 759 c 128,-1,77
 424 737 424 737 424 722 c 0,78,79
 424 718 424 718 425 709.5 c 128,-1,80
 426 701 426 701 426 696 c 0,81,82
 426 686 426 686 424 672 c 0,83,84
 426 652 426 652 431 612 c 0,85,86
 429 597 429 597 429 597 c 2,87,88
 429 591 429 591 430 578.5 c 128,-1,89
 431 566 431 566 431 560 c 0,90,91
 431 555 431 555 430 546.5 c 128,-1,92
 429 538 429 538 429 534 c 0,93,94
 429 524 429 524 436 505 c 128,-1,95
 443 486 443 486 443 477 c 0,96,97
 443 469 443 469 437.5 453 c 128,-1,98
 432 437 432 437 432 429 c 0,99,100
 432 425 432 425 434 417.5 c 128,-1,101
 436 410 436 410 436 406 c 256,102,103
 436 402 436 402 433 394.5 c 128,-1,104
 430 387 430 387 430 384 c 0,105,106
 429 376 429 376 429 351 c 0,107,108
 429 346 429 346 432.5 335.5 c 128,-1,109
 436 325 436 325 436 320 c 0,110,111
 436 289 436 289 435 283 c 0,112,113
 431 260 431 260 415 260 c 0,114,115
 401 260 401 260 391.5 272 c 128,-1,116
 382 284 382 284 374 294 c 128,-1,117
 366 304 366 304 350 322 c 0,118,119
 339 336 339 336 322 383 c 128,-1,120
 305 430 305 430 297.5 437 c 128,-1,121
 290 444 290 444 270 454 c 0,122,123
 253 461 253 461 245 475 c 0,124,125
 244 481 244 481 241 495 c 0,126,127
 238 502 238 502 232 518 c 0,128,129
 230 525 230 525 225 540 c 0,130,131
 214 561 214 561 207 571 c 0,132,133
 202 575 202 575 194 584 c 1,134,135
 191 595 191 595 183 615 c 0,136,137
 177 622 177 622 166 637 c 0,138,139
 164 643 164 643 159 656 c 1,140,141
 151 665 151 665 139 685 c 0,142,143
 133 699 133 699 131 713 c 0,144,145
 119 779 119 779 97 779 c 0,146,147
 90 779 90 779 87 777 c 0,148,149
 79 777 79 777 63 761 c 0,150,151
 56 753 56 753 44 747 c 1,152,153
 45 738 45 738 45 737 c 0,154,155
 45 734 45 734 44 729.5 c 128,-1,156
 43 725 43 725 43 722 c 256,157,158
 43 719 43 719 44.5 712 c 128,-1,159
 46 705 46 705 46 701 c 0,160,161
 46 696 46 696 43.5 687.5 c 128,-1,162
 41 679 41 679 41 675 c 0,163,164
 41 666 41 666 41 647 c 0,165,166
 42 629 42 629 42 620 c 0,167,168
 42 617 42 617 41 612 c 128,-1,169
 40 607 40 607 40 605 c 0,170,171
 40 590 40 590 38 559 c 0,172,173
 35 511 35 511 35 513 c 0,174,175
 35 521 35 521 39 483 c 1,176,177
 38 488 38 488 38 454 c 0,178,179
 38 450 38 450 39 443 c 128,-1,180
 40 436 40 436 40 433 c 0,181,182
 40 424 40 424 37 411 c 0,183,184
 34 394 34 394 33 389 c 0,185,186
 33 380 33 380 32 363 c 0,187,188
 29 332 29 332 29 339 c 1,189,190
 29 317 29 317 35 299 c 0,191,192
 42 278 42 278 42 274 c 1,193,194
 42 282 42 282 35 242 c 0,195,196
 34 235 34 235 34 221 c 0,197,198
 34 212 34 212 29 195.5 c 128,-1,199
 24 179 24 179 24 170 c 0,200,201
 24 160 24 160 29 140.5 c 128,-1,202
 34 121 34 121 34 110 c 0,203,204
 34 106 34 106 31 97.5 c 128,-1,205
 28 89 28 89 28 85 c 0,206,207
 28 62 28 62 43.5 38 c 128,-1,208
 59 14 59 14 80 11 c 0,209,210
 89 10 89 10 96 10 c 0,211,212
 115 10 115 10 129 29 c 0,213,214
 145 52 145 52 145 73 c 0,215,216
 145 78 145 78 142.5 88 c 128,-1,217
 140 98 140 98 140 103 c 0,218,219
 140 106 140 106 141 110 c 0,220,221
 141 115 141 115 141 117 c 256,222,223
 141 119 141 119 140 122 c 0,224,225
 140 125 140 125 140 127 c 128,-1,226
 140 129 140 129 140 132 c 0,227,228
 141 136 141 136 141 138 c 0,229,230
 141 143 141 143 132 202 c 1,231,232
 132 202 132 202 132 221 c 0,233,234
 132 226 132 226 129.5 235.5 c 128,-1,235
 127 245 127 245 127 250.5 c 128,-1,236
 127 256 127 256 125 271 c 1,237,238
 130 292 130 292 130 325 c 0,239,240
 130 331 130 331 127 342 c 128,-1,241
 124 353 124 353 124 358 c 256,242,243
 124 363 124 363 125.5 370.5 c 128,-1,244
 127 378 127 378 127 382 c 0,245,246
 128 402 128 402 129 421 c 0,247,248
 133 448 133 448 150 448 c 0,249,250
 156 448 156 448 161 443 c 0,251,252
 164 433 164 433 172 414 c 0,253,254
 180 400 180 400 188 392 c 0,255,256
 192 389 192 389 200 379 c 0,257,258
 202 372 202 372 207 358 c 0,259,260
 213 341 213 341 235 320 c 0,261,262
 247 308 247 308 250 298 c 0,263,264
 254 285 254 285 254 278 c 0,265,266
 254 276 254 276 253 273 c 0,267,268
 253 269 253 269 253 268 c 0,269,270
 253 235 253 235 283 205 c 0,271,272
 294 195 294 195 308 181 c 1,273,274
 313 168 313 168 326 142 c 1,275,276
 336 131 336 131 355 108 c 1,277,278
 359 96 359 96 371 75 c 0,279,280
 376 72 376 72 388 64 c 0,281,282
 394 57 394 57 406 46 c 0,283,284
 415 43 415 43 432 36 c 0,285,286
 443 30 443 30 449 7.5 c 128,-1,287
 455 -15 455 -15 484 -24 c 0,288,289
 490 -26 490 -26 495 -26 c 0,290,291
 505 -26 505 -26 510.5 -19.5 c 128,-1,292
 516 -13 516 -13 522 -6 c 0,293,294
 540 13 540 13 540 28 c 0,295,296
 540 37 540 37 535 51.5 c 128,-1,297
 530 66 530 66 529 73 c 0,298,299
 527 100 527 100 527 101 c 0,0,1
EndSplineSet
Validated: 37
EndChar

StartChar: O
Encoding: 79 79 26
Width: 617
Flags: W
LayerCount: 2
Fore
SplineSet
543 651 m 1,0,1
 546 629 546 629 546 602 c 0,2,3
 546 599 546 599 567 518 c 0,4,5
 582 462 582 462 584 403 c 2,6,-1
 584 401 l 2,7,8
 584 405 584 405 582 390 c 0,9,10
 582 384 582 384 581 374 c 0,11,12
 577 360 577 360 573 332 c 0,13,14
 573 329 573 329 574 322 c 0,15,16
 574 315 574 315 574 312 c 0,17,18
 574 301 574 301 570 284 c 0,19,20
 565 261 565 261 564.5 255.5 c 128,-1,21
 564 250 564 250 563 239 c 0,22,23
 562 225 562 225 551 214 c 0,24,25
 546 209 546 209 537 199 c 0,26,27
 534 195 534 195 530.5 188 c 128,-1,28
 527 181 527 181 521 169 c 2,29,-1
 499 140 l 2,30,31
 494 139 494 139 485 127 c 1,32,33
 481 113 481 113 473 106 c 0,34,35
 461 95 461 95 461 90 c 0,36,37
 461 88 461 88 463 85 c 1,38,39
 442 81 442 81 418 59 c 0,40,41
 414 54 414 54 405 45 c 0,42,43
 400 44 400 44 391 41 c 0,44,45
 388 39 388 39 382 36 c 0,46,47
 372 33 372 33 351 25 c 0,48,49
 344 21 344 21 331 13 c 0,50,51
 324 11 324 11 311 5 c 0,52,53
 291 -5 291 -5 288 -5 c 0,54,55
 278 -5 278 -5 259.5 -0.5 c 128,-1,56
 241 4 241 4 232 4 c 0,57,58
 229 4 229 4 224 3 c 0,59,60
 220 3 220 3 217 3 c 0,61,62
 204 3 204 3 172.5 13.5 c 128,-1,63
 141 24 141 24 129 32 c 0,64,65
 127 33 127 33 120.5 39 c 128,-1,66
 114 45 114 45 99 57 c 0,67,68
 96 61 96 61 90 69 c 0,69,70
 76 79 76 79 53 100 c 1,71,72
 49 116 49 116 38 143 c 1,73,74
 20 170 20 170 24 193 c 1,75,76
 6 226 6 226 6 255 c 0,77,78
 6 261 6 261 9.5 273 c 128,-1,79
 13 285 13 285 13 291 c 1,80,81
 13 288 13 288 9 309 c 0,82,83
 9 326 9 326 6 360 c 0,84,85
 2 377 2 377 2 376 c 1,86,87
 2 384 2 384 5.5 400 c 128,-1,88
 9 416 9 416 9 424 c 0,89,90
 9 426 9 426 8 431 c 0,91,92
 8 436 8 436 8 438 c 0,93,94
 8 456 8 456 10 468 c 0,95,96
 12 472 12 472 15.5 477.5 c 128,-1,97
 19 483 19 483 19 495 c 2,98,99
 19 495 19 495 25 514 c 0,100,101
 25 523 25 523 34 545 c 0,102,103
 39 561 39 561 53 591 c 0,104,105
 59 598 59 598 71 611 c 0,106,107
 71 612 71 612 89 641 c 1,108,109
 98 666 98 666 110 696 c 1,110,111
 119 706 119 706 137 724 c 1,112,113
 160 731 160 731 169.5 741 c 128,-1,114
 179 751 179 751 190 763 c 0,115,116
 199 771 199 771 224 781 c 128,-1,117
 249 791 249 791 260 791 c 1,118,119
 268 796 268 796 281 796 c 0,120,121
 290 796 290 796 307 793.5 c 128,-1,122
 324 791 324 791 331 790 c 0,123,124
 336 793 336 793 354 792 c 0,125,126
 364 794 364 794 384 797 c 1,127,128
 396 791 396 791 422 778 c 0,129,130
 437 773 437 773 467 754 c 0,131,132
 469 749 469 749 476 739 c 0,133,134
 479 736 479 736 486 727 c 0,135,136
 487 724 487 724 490 720 c 2,137,-1
 509 705 l 1,138,139
 516 691 516 691 527 668 c 0,140,141
 533 662 533 662 543 651 c 1,0,1
461 506 m 0,142,143
 461 508 461 508 462 512 c 0,144,145
 462 516 462 516 462 519 c 1,146,147
 462 516 462 516 456 538 c 0,148,149
 454 554 454 554 441 583 c 0,150,151
 433 594 433 594 426 612 c 0,152,153
 422 616 422 616 414 624 c 1,154,155
 410 635 410 635 398 654 c 0,156,157
 398 655 398 655 381 665 c 0,158,159
 369 672 369 672 357 680 c 128,-1,160
 345 688 345 688 334.5 688.5 c 128,-1,161
 324 689 324 689 312 693 c 0,162,163
 311 693 311 693 271 697 c 0,164,165
 262 695 262 695 242 690 c 0,166,167
 239 688 239 688 230 685 c 0,168,169
 227 684 227 684 222 683 c 0,170,171
 221 683 221 683 197 670 c 0,172,173
 193 665 193 665 183 654 c 0,174,175
 176 648 176 648 163 636 c 0,176,177
 154 631 154 631 140 617 c 0,178,179
 137 610 137 610 130 595 c 0,180,181
 127 591 127 591 121 582 c 0,182,183
 119 578 119 578 108 527 c 0,184,185
 108 524 108 524 104.5 517 c 128,-1,186
 101 510 101 510 101 506 c 0,187,188
 101 504 101 504 102 500.5 c 128,-1,189
 103 497 103 497 103 495 c 0,190,191
 103 483 103 483 93 458.5 c 128,-1,192
 83 434 83 434 83 423 c 0,193,194
 83 418 83 418 86.5 407.5 c 128,-1,195
 90 397 90 397 90 391 c 0,196,197
 90 381 90 381 85 362 c 128,-1,198
 80 343 80 343 80 338 c 0,199,200
 80 311 80 311 86 301 c 0,201,202
 91 297 91 297 98 287 c 0,203,204
 98 282 98 282 101 272 c 0,205,206
 103 267 103 267 108 257 c 0,207,208
 110 252 110 252 113 240 c 0,209,210
 117 225 117 225 130 204 c 0,211,212
 134 197 134 197 154 188 c 0,213,214
 163 184 163 184 168 176.5 c 128,-1,215
 173 169 173 169 177 167 c 0,216,217
 186 161 186 161 220 150 c 0,218,219
 225 147 225 147 235 142 c 0,220,221
 240 140 240 140 258 137.5 c 128,-1,222
 276 135 276 135 280 136 c 0,223,224
 290 134 290 134 309 132 c 0,225,226
 315 134 315 134 336 135 c 0,227,228
 342 136 342 136 381 145 c 0,229,230
 388 147 388 147 396 155.5 c 128,-1,231
 404 164 404 164 412 171 c 0,232,233
 413 172 413 172 419.5 175.5 c 128,-1,234
 426 179 426 179 436.5 193.5 c 128,-1,235
 447 208 447 208 447 216 c 0,236,237
 447 219 447 219 446 225 c 128,-1,238
 445 231 445 231 445 234 c 0,239,240
 445 252 445 252 452 273 c 0,241,242
 454 277 454 277 459 285 c 0,243,244
 461 293 461 293 468 307 c 0,245,246
 475 315 475 315 486 333 c 0,247,248
 487 340 487 340 487 361 c 0,249,250
 487 368 487 368 485.5 382 c 128,-1,251
 484 396 484 396 484 403 c 0,252,253
 484 406 484 406 482 412 c 128,-1,254
 480 418 480 418 480 420 c 2,255,-1
 476 440 l 2,256,257
 471 449 471 449 464 468 c 0,258,259
 461 480 461 480 461 506 c 0,142,143
EndSplineSet
Validated: 33
EndChar

StartChar: P
Encoding: 80 80 27
Width: 439
Flags: W
LayerCount: 2
Fore
SplineSet
236 796 m 1,0,-1
 236 795 l 1,1,2
 211 785 211 785 193 777 c 0,3,4
 186 772 186 772 171 765 c 0,5,6
 162 763 162 763 146 758 c 0,7,8
 139 755 139 755 127 750 c 0,9,10
 122 747 122 747 111 741 c 0,11,12
 102 739 102 739 84 729 c 0,13,14
 83 727 83 727 77 716 c 128,-1,15
 71 705 71 705 60 667 c 0,16,17
 57 658 57 658 52 640 c 0,18,19
 51 630 51 630 48 612 c 0,20,21
 45 604 45 604 42 589 c 0,22,23
 42 585 42 585 42 577 c 2,24,-1
 37 554 l 2,25,26
 37 547 37 547 38 533 c 128,-1,27
 39 519 39 519 39 512 c 0,28,29
 39 488 39 488 37 467 c 0,30,31
 37 462 37 462 34.5 447 c 128,-1,32
 32 432 32 432 32 425 c 0,33,34
 32 420 32 420 34 411 c 128,-1,35
 36 402 36 402 36 397 c 0,36,37
 36 384 36 384 31 353 c 0,38,39
 29 346 29 346 26 332 c 0,40,41
 25 314 25 314 22 279 c 0,42,43
 19 252 19 252 19 260 c 1,44,45
 19 255 19 255 20 246 c 0,46,47
 20 237 20 237 20 232 c 256,48,49
 20 227 20 227 22 217.5 c 128,-1,50
 24 208 24 208 25 204 c 1,51,52
 24 213 24 213 24 181 c 0,53,54
 24 168 24 168 32 145 c 0,55,56
 35 138 35 138 35 103 c 0,57,58
 35 98 35 98 32 84.5 c 128,-1,59
 29 71 29 71 29 64 c 0,60,61
 29 -8 29 -8 85 -8 c 1,62,63
 85 -8 85 -8 96 -6.5 c 128,-1,64
 107 -5 107 -5 124 2 c 0,65,66
 129 5 129 5 149 41 c 1,67,68
 150 58 150 58 150 58 c 2,69,70
 150 63 150 63 130 121 c 0,71,72
 128 129 128 129 125 183 c 0,73,74
 124 197 124 197 118 231 c 0,75,76
 112 262 112 262 112 279 c 0,77,78
 112 304 112 304 121 318 c 128,-1,79
 130 332 130 332 153 345 c 0,80,81
 159 347 159 347 171 353 c 0,82,83
 175 357 175 357 183 363 c 0,84,85
 189 365 189 365 197.5 369.5 c 128,-1,86
 206 374 206 374 222 381.5 c 128,-1,87
 238 389 238 389 270 407 c 0,88,89
 275 414 275 414 286 426 c 0,90,91
 295 430 295 430 312 440 c 0,92,93
 315 445 315 445 321 453 c 0,94,95
 344 475 344 475 352 485 c 0,96,97
 355 490 355 490 362 498.5 c 128,-1,98
 369 507 369 507 382 526 c 0,99,100
 385 536 385 536 393 555 c 0,101,102
 398 564 398 564 404 582 c 0,103,104
 410 591 410 591 415 605 c 0,105,106
 424 655 424 655 424 664 c 0,107,108
 424 678 424 678 418 688.5 c 128,-1,109
 412 699 412 699 405 710 c 0,110,111
 402 718 402 718 393 732 c 0,112,113
 388 736 388 736 379 744 c 0,114,115
 374 751 374 751 364 759 c 0,116,117
 357 763 357 763 345 768 c 0,118,119
 337 768 337 768 322 770 c 1,120,121
 309 777 309 777 283 787 c 0,122,123
 273 788 273 788 259 791 c 0,124,125
 252 794 252 794 236 796 c 1,0,-1
154 442 m 0,126,127
 141 442 141 442 123 447 c 1,128,129
 115 458 115 458 115 505 c 0,130,131
 115 519 115 519 117.5 562.5 c 128,-1,132
 120 606 120 606 120 596 c 1,133,134
 120 600 120 600 120 608 c 0,135,136
 119 616 119 616 119 620 c 0,137,138
 119 623 119 623 125 645 c 0,139,140
 126 650 126 650 129 660 c 0,141,142
 137 672 137 672 194 690 c 1,143,144
 224 688 224 688 255 679 c 0,145,146
 261 678 261 678 274 675 c 0,147,148
 315 664 315 664 324 623 c 0,149,150
 327 608 327 608 327 605 c 0,151,152
 327 589 327 589 313 569 c 0,153,154
 308 566 308 566 301 559 c 0,155,156
 288 541 288 541 278.5 533.5 c 128,-1,157
 269 526 269 526 252 514 c 1,158,159
 245 504 245 504 231 486 c 0,160,161
 225 484 225 484 214 477 c 0,162,163
 210 472 210 472 201 464 c 0,164,165
 199 463 199 463 172 443 c 0,166,167
 166 443 166 443 154 442 c 0,126,127
EndSplineSet
Validated: 37
EndChar

StartChar: Q
Encoding: 81 81 28
Width: 588
Flags: W
LayerCount: 2
Fore
SplineSet
477 126 m 0,0,1
 477 136 477 136 489 150 c 0,2,3
 506 168 506 168 508 172 c 0,4,5
 513 199 513 199 521 237 c 0,6,7
 524 246 524 246 529 265 c 0,8,9
 530 271 530 271 531 283 c 0,10,11
 537 319 537 319 537 323 c 1,12,13
 537 312 537 312 534 354 c 1,14,15
 534 351 534 351 534 383 c 0,16,17
 534 388 534 388 532 398 c 128,-1,18
 530 408 530 408 529.5 414.5 c 128,-1,19
 529 421 529 421 528 439 c 0,20,21
 526 449 526 449 523 468 c 0,22,23
 522 498 522 498 514 542 c 0,24,25
 510 547 510 547 505 559 c 0,26,27
 503 566 503 566 499 581 c 0,28,29
 489 614 489 614 462 657 c 0,30,31
 458 666 458 666 448 684 c 0,32,33
 446 688 446 688 440 697 c 0,34,35
 437 703 437 703 430 716 c 1,36,37
 419 726 419 726 397 746 c 0,38,39
 391 754 391 754 379 768 c 0,40,41
 376 770 376 770 369 775 c 128,-1,42
 362 780 362 780 354.5 785 c 128,-1,43
 347 790 347 790 334 790 c 0,44,45
 329 790 329 790 318.5 788.5 c 128,-1,46
 308 787 308 787 303 787 c 0,47,48
 296 787 296 787 285 792 c 1,49,50
 277 791 277 791 261 788 c 0,51,52
 247 782 247 782 217 772 c 1,53,54
 209 765 209 765 183 753 c 1,55,-1
 183 754 l 1,56,57
 156 735 156 735 136 719 c 1,58,59
 136 719 136 719 109 674 c 0,60,61
 102 666 102 666 89 648 c 0,62,63
 88 643 88 643 84 634 c 0,64,65
 76 617 76 617 60 582 c 0,66,67
 59 575 59 575 55 561 c 0,68,69
 53 554 53 554 51 541 c 0,70,71
 51 538 51 538 51 533 c 128,-1,72
 51 528 51 528 51 526 c 1,73,74
 51 527 51 527 42 488 c 0,75,76
 41 483 41 483 39 473 c 0,77,78
 35 467 35 467 30 453 c 0,79,80
 28 446 28 446 28 391 c 0,81,82
 28 386 28 386 25.5 376.5 c 128,-1,83
 23 367 23 367 23 362 c 0,84,85
 23 359 23 359 23 352 c 0,86,87
 24 345 24 345 24 342 c 0,88,89
 24 336 24 336 22.5 323.5 c 128,-1,90
 21 311 21 311 21 305 c 0,91,92
 21 297 21 297 23 285 c 0,93,94
 26 270 26 270 26 264 c 0,95,96
 26 245 26 245 32 210 c 0,97,98
 35 204 35 204 42 193 c 0,99,100
 43 191 43 191 51 166 c 0,101,102
 53 162 53 162 58 155 c 0,103,104
 79 113 79 113 96 94 c 0,105,106
 108 82 108 82 134 67 c 0,107,108
 143 63 143 63 159 54 c 0,109,110
 169 45 169 45 190 31 c 1,111,112
 202 29 202 29 224 23 c 0,113,114
 227 22 227 22 247 12 c 0,115,116
 261 6 261 6 271 6 c 0,117,118
 286 6 286 6 328 23 c 0,119,120
 339 24 339 24 360 31 c 0,121,122
 369 35 369 35 382 49 c 1,123,124
 404 59 404 59 410 59 c 0,125,126
 420 59 420 59 422 55 c 0,127,128
 431 40 431 40 454 9 c 0,129,130
 461 -3 461 -3 476 -27 c 0,131,132
 508 -80 508 -80 535 -80 c 0,133,134
 575 -80 575 -80 575 -54 c 1,135,136
 575 -59 575 -59 570 -31 c 0,137,138
 567 -16 567 -16 553 4 c 0,139,140
 533 31 533 31 496 88 c 0,141,142
 491 95 491 95 482 108 c 0,143,144
 477 117 477 117 477 126 c 0,0,1
299 124 m 1,145,146
 288 124 288 124 275 129 c 0,147,148
 259 136 259 136 252 137 c 1,149,150
 253 137 253 137 238 137 c 0,151,152
 235 137 235 137 207 153 c 0,153,154
 198 157 198 157 183 166 c 0,155,156
 180 170 180 170 173 178 c 0,157,158
 169 179 169 179 162 183 c 0,159,160
 152 190 152 190 130 224 c 0,161,162
 124 234 124 234 122 250 c 0,163,164
 119 263 119 263 117 276 c 0,165,166
 116 282 116 282 106 305 c 0,167,168
 99 322 99 322 99 341 c 0,169,170
 99 344 99 344 100 351 c 128,-1,171
 101 358 101 358 101 361 c 0,172,173
 101 365 101 365 101 373.5 c 128,-1,174
 101 382 101 382 101 385 c 0,175,176
 101 400 101 400 105 419 c 0,177,178
 107 424 107 424 110 433 c 0,179,180
 112 457 112 457 122 505 c 0,181,182
 127 512 127 512 134 529 c 0,183,184
 135 538 135 538 138 555 c 0,185,186
 142 563 142 563 149 581 c 0,187,188
 151 587 151 587 156.5 598 c 128,-1,189
 162 609 162 609 176 631 c 0,190,191
 179 637 179 637 186 649 c 0,192,193
 192 654 192 654 205 664 c 0,194,195
 213 672 213 672 230 685 c 0,196,197
 238 687 238 687 252 694 c 1,198,-1
 258 694 l 2,199,200
 261 694 261 694 266.5 693 c 128,-1,201
 272 692 272 692 275 692 c 0,202,203
 279 692 279 692 286 692 c 0,204,205
 294 693 294 693 298 693 c 0,206,207
 309 693 309 693 330.5 677 c 128,-1,208
 352 661 352 661 357 650 c 0,209,210
 358 644 358 644 363 631 c 1,211,212
 374 623 374 623 391 605 c 1,213,214
 395 594 395 594 404 573 c 0,215,216
 413 561 413 561 423 542 c 0,217,218
 425 531 425 531 432 508 c 0,219,220
 433 501 433 501 437 488 c 2,221,-1
 441 476 l 2,222,223
 444 461 444 461 449 430 c 0,224,225
 455 395 455 395 455 401 c 1,226,227
 455 398 455 398 455 394 c 0,228,229
 454 389 454 389 454 387 c 0,230,231
 453 375 453 375 452 351 c 0,232,233
 451 345 451 345 449 333 c 1,234,235
 450 340 450 340 450 304 c 0,236,237
 450 295 450 295 443 274 c 0,238,239
 439 258 439 258 436 233 c 0,240,241
 434 229 434 229 429 221 c 0,242,243
 426 220 426 220 424 220 c 0,244,245
 419 220 419 220 404 229 c 1,246,-1
 403 231 l 2,247,248
 397 239 397 239 383 253 c 1,249,250
 375 280 375 280 362 291 c 0,251,252
 354 299 354 299 337 299 c 0,253,254
 332 299 332 299 321 293 c 1,255,256
 317 286 317 286 310 284 c 1,257,-1
 311 283 l 1,258,259
 306 280 306 280 306 262 c 0,260,261
 306 243 306 243 314 226 c 0,262,263
 320 221 320 221 330 208 c 0,264,265
 358 160 358 160 358 159 c 0,266,267
 358 143 358 143 341.5 137.5 c 128,-1,268
 325 132 325 132 311.5 128 c 128,-1,269
 298 124 298 124 299 124 c 1,145,146
EndSplineSet
Validated: 37
EndChar

StartChar: R
Encoding: 82 82 29
Width: 534
Flags: W
LayerCount: 2
Fore
SplineSet
230 773 m 0,0,1
 240 774 240 774 260 777 c 1,2,3
 273 786 273 786 289 789 c 0,4,5
 292 789 292 789 298 789 c 0,6,7
 301 790 301 790 304 791 c 0,8,9
 316 791 316 791 340 791 c 1,10,11
 363 784 363 784 399 776 c 0,12,13
 406 771 406 771 423 764 c 0,14,15
 428 763 428 763 429 761 c 0,16,17
 435 755 435 755 444 743 c 0,18,19
 445 741 445 741 448.5 715.5 c 128,-1,20
 452 690 452 690 452 687 c 0,21,22
 452 679 452 679 448 661 c 0,23,24
 443 639 443 639 442 633 c 0,25,26
 438 608 438 608 433 589 c 0,27,28
 433 584 433 584 432 576 c 0,29,30
 428 563 428 563 410 527 c 0,31,32
 403 513 403 513 378 487 c 0,33,34
 368 480 368 480 352 460 c 0,35,36
 346 450 346 450 332 447 c 128,-1,37
 318 444 318 444 311 435 c 0,38,39
 298 420 298 420 292 418 c 0,40,41
 276 412 276 412 274 411 c 0,42,43
 232 388 232 388 233 347 c 2,44,-1
 233 338 l 2,45,46
 233 332 233 332 249 313 c 0,47,48
 252 306 252 306 263 297 c 1,49,50
 274 296 274 296 289 292 c 0,51,52
 295 288 295 288 307 280 c 0,53,54
 321 269 321 269 354 251 c 0,55,56
 360 247 360 247 372 238 c 0,57,58
 391 222 391 222 429 190 c 0,59,60
 439 184 439 184 456 171 c 0,61,62
 460 164 460 164 469 152 c 0,63,64
 499 120 499 120 501 113 c 0,65,66
 510 73 510 73 510 71 c 0,67,68
 510 42 510 42 499 21 c 0,69,70
 486 -6 486 -6 459 -6 c 0,71,72
 429 -6 429 -6 404 31 c 0,73,74
 399 42 399 42 384 61 c 0,75,76
 373 69 373 69 346 94 c 0,77,78
 342 96 342 96 337 99 c 0,79,80
 327 109 327 109 302 123 c 1,81,82
 279 129 279 129 266 137 c 0,83,84
 259 140 259 140 254 151 c 128,-1,85
 249 162 249 162 247 165 c 0,86,87
 239 174 239 174 226.5 177 c 128,-1,88
 214 180 214 180 213 181 c 0,89,90
 207 187 207 187 195 197 c 0,91,92
 177 213 177 213 148 213 c 0,93,94
 116 213 116 213 116 170 c 0,95,96
 116 143 116 143 127 117 c 0,97,98
 135 94 135 94 135 97 c 1,99,100
 135 94 135 94 134 90 c 128,-1,101
 133 86 133 86 133 84 c 0,102,103
 133 38 133 38 91 7 c 0,104,105
 81 1 81 1 76 1 c 0,106,107
 62 1 62 1 56.5 2.5 c 128,-1,108
 51 4 51 4 45 15.5 c 128,-1,109
 39 27 39 27 39 53 c 0,110,111
 39 55 39 55 38 59 c 0,112,113
 38 63 38 63 38 65 c 256,114,115
 38 67 38 67 41 81 c 1,116,117
 38 105 38 105 38 107 c 0,118,119
 38 111 38 111 39.5 119.5 c 128,-1,120
 41 128 41 128 41 133 c 256,121,122
 41 138 41 138 41 148 c 0,123,124
 40 158 40 158 40 164 c 0,125,126
 40 166 40 166 41 170.5 c 128,-1,127
 42 175 42 175 42 177 c 0,128,129
 42 181 42 181 40.5 190 c 128,-1,130
 39 199 39 199 39 204 c 0,131,132
 39 207 39 207 40 213.5 c 128,-1,133
 41 220 41 220 41 222 c 0,134,135
 42 236 42 236 42 276 c 0,136,137
 42 294 42 294 38.5 329 c 128,-1,138
 35 364 35 364 35 382 c 0,139,140
 35 387 35 387 36 395.5 c 128,-1,141
 37 404 37 404 37 408 c 0,142,143
 37 415 37 415 35.5 428.5 c 128,-1,144
 34 442 34 442 34 448 c 0,145,146
 34 452 34 452 36 460 c 128,-1,147
 38 468 38 468 38 472 c 0,148,149
 38 474 38 474 37 479 c 0,150,151
 37 484 37 484 37 487 c 2,152,153
 37 487 37 487 40 513 c 0,154,155
 42 522 42 522 42 559 c 0,156,157
 42 568 42 568 46.5 585 c 128,-1,158
 51 602 51 602 51 611 c 0,159,160
 51 613 51 613 50 617 c 0,161,162
 50 622 50 622 50 624 c 0,163,164
 50 630 50 630 51.5 640.5 c 128,-1,165
 53 651 53 651 54 655 c 0,166,167
 54 662 54 662 54 676 c 0,168,169
 56 681 56 681 60 692 c 0,170,171
 61 700 61 700 64 714 c 0,172,173
 69 719 69 719 76 731 c 0,174,175
 93 758 93 758 96 762 c 0,176,177
 109 775 109 775 130 775 c 0,178,179
 136 778 136 778 142 778 c 0,180,181
 147 778 147 778 156.5 776 c 128,-1,182
 166 774 166 774 171 774 c 0,183,184
 173 775 173 775 176 775 c 0,185,186
 182 775 182 775 194 773 c 128,-1,187
 206 771 206 771 212 771 c 0,188,189
 229 771 229 771 230 773 c 0,0,1
277 679 m 0,190,191
 272 679 272 679 264 681 c 128,-1,192
 256 683 256 683 251 683 c 2,193,-1
 245 683 l 1,194,195
 232 676 232 676 187 672 c 0,196,197
 150 670 150 670 136 651 c 0,198,199
 134 646 134 646 130 636 c 0,200,201
 123 623 123 623 115 609 c 0,202,203
 111 599 111 599 111 579 c 0,204,205
 111 569 111 569 112 551 c 128,-1,206
 113 533 113 533 113 524 c 0,207,208
 113 520 113 520 114 512 c 128,-1,209
 115 504 115 504 115 500 c 256,210,211
 115 496 115 496 113.5 488 c 128,-1,212
 112 480 112 480 112 476 c 0,213,214
 112 471 112 471 112 461 c 0,215,216
 113 451 113 451 113 446 c 0,217,218
 113 410 113 410 140 410 c 0,219,220
 154 410 154 410 162 414 c 2,221,-1
 174 421 l 2,222,223
 184 430 184 430 207 445 c 0,224,225
 216 449 216 449 221 457.5 c 128,-1,226
 226 466 226 466 234 477 c 0,227,228
 240 481 240 481 249.5 491.5 c 128,-1,229
 259 502 259 502 262 507 c 128,-1,230
 265 512 265 512 270 519 c 0,231,232
 270 520 270 520 280 527 c 0,233,234
 290 539 290 539 312 560 c 0,235,236
 317 563 317 563 325 568 c 0,237,238
 341 578 341 578 352 616 c 0,239,240
 355 628 355 628 355 628 c 1,241,242
 355 669 355 669 302 679 c 1,243,244
 302 679 302 679 277 679 c 0,190,191
EndSplineSet
Validated: 33
EndChar

StartChar: S
Encoding: 83 83 30
Width: 555
Flags: W
LayerCount: 2
Fore
SplineSet
117 355 m 0,0,1
 140 355 140 355 153 360 c 0,2,3
 173 367 173 367 177 367 c 0,4,5
 197 367 197 367 225 377 c 0,6,7
 229 379 229 379 237 383 c 0,8,9
 241 384 241 384 257 384 c 0,10,11
 265 384 265 384 279.5 388.5 c 128,-1,12
 294 393 294 393 302 393 c 0,13,14
 308 393 308 393 320.5 392 c 128,-1,15
 333 391 333 391 339 391 c 0,16,17
 343 391 343 391 351.5 392 c 128,-1,18
 360 393 360 393 364 393 c 0,19,20
 370 393 370 393 376 390.5 c 128,-1,21
 382 388 382 388 403 365 c 128,-1,22
 424 342 424 342 426 334 c 0,23,24
 431 319 431 319 431 295 c 0,25,26
 431 274 431 274 405 235 c 0,27,28
 382 202 382 202 357 182 c 0,29,30
 349 177 349 177 335 167 c 0,31,32
 329 159 329 159 314 146 c 0,33,34
 311 144 311 144 274 132 c 0,35,36
 267 132 267 132 253 128 c 1,37,38
 224 128 224 128 201 137 c 0,39,40
 193 143 193 143 179 154 c 0,41,42
 172 157 172 157 158 165 c 0,43,44
 126 187 126 187 113 187 c 0,45,46
 110 187 110 187 107 186 c 0,47,48
 103 186 103 186 95.5 187 c 128,-1,49
 88 188 88 188 84 188 c 0,50,51
 74 188 74 188 63 171 c 0,52,53
 59 167 59 167 54 158 c 0,54,55
 53 152 53 152 50 140 c 0,56,57
 43 120 43 120 43 108 c 0,58,59
 43 102 43 102 54 80 c 0,60,61
 55 76 55 76 60 68 c 128,-1,62
 65 60 65 60 88 57 c 0,63,64
 115 53 115 53 120 49.5 c 128,-1,65
 125 46 125 46 134 41 c 128,-1,66
 143 36 143 36 199 18 c 0,67,68
 202 17 202 17 209 12 c 128,-1,69
 216 7 216 7 223 7 c 256,70,71
 230 7 230 7 240.5 11.5 c 128,-1,72
 251 16 251 16 255 17 c 0,73,74
 293 26 293 26 330 46 c 0,75,76
 333 49 333 49 341 55 c 1,77,78
 355 58 355 58 377 70 c 1,79,80
 384 83 384 83 399 104 c 1,81,82
 434 133 434 133 449 153 c 0,83,84
 454 155 454 155 463 162 c 0,85,86
 465 164 465 164 478 187.5 c 128,-1,87
 491 211 491 211 492 213 c 2,88,-1
 496 231 l 2,89,90
 500 242 500 242 506 264 c 0,91,92
 506 275 506 275 509 298 c 0,93,94
 509 301 509 301 517.5 313 c 128,-1,95
 526 325 526 325 526 341 c 0,96,97
 526 343 526 343 525 347 c 0,98,99
 525 351 525 351 525 353 c 0,100,101
 525 357 525 357 526 366 c 128,-1,102
 527 375 527 375 527 379 c 0,103,104
 527 389 527 389 507 440 c 1,105,106
 499 447 499 447 487 466 c 0,107,108
 485 474 485 474 478 486 c 0,109,110
 471 491 471 491 457 502 c 0,111,112
 453 507 453 507 442 516 c 0,113,114
 439 517 439 517 395 523 c 0,115,116
 391 523 391 523 383 525.5 c 128,-1,117
 375 528 375 528 371 528 c 0,118,119
 365 528 365 528 360 525 c 0,120,121
 343 525 343 525 333 518 c 0,122,123
 329 518 329 518 307.5 511.5 c 128,-1,124
 286 505 286 505 283 503 c 0,125,126
 273 503 273 503 255 501 c 0,127,128
 241 501 241 501 234 496 c 1,129,130
 227 496 227 496 223 493 c 0,131,132
 215 493 215 493 198.5 494.5 c 128,-1,133
 182 496 182 496 173 496 c 256,134,135
 164 496 164 496 159 493 c 0,136,137
 137 492 137 492 137 492 c 2,138,139
 124 492 124 492 115 505.5 c 128,-1,140
 106 519 106 519 106 533 c 0,141,142
 106 538 106 538 111 546 c 128,-1,143
 116 554 116 554 117 556 c 0,144,145
 118 568 118 568 126 588 c 1,146,147
 136 594 136 594 153 608 c 0,148,149
 159 615 159 615 171 626 c 0,150,151
 181 632 181 632 199 645 c 128,-1,152
 217 658 217 658 234 670 c 128,-1,153
 251 682 251 682 273 682 c 0,154,155
 281 682 281 682 296 680 c 128,-1,156
 311 678 311 678 318 678 c 0,157,158
 323 678 323 678 332 679.5 c 128,-1,159
 341 681 341 681 346 681 c 0,160,161
 361 681 361 681 385.5 672.5 c 128,-1,162
 410 664 410 664 416 664 c 0,163,164
 477 664 477 664 477 724 c 0,165,166
 477 732 477 732 469 748 c 0,167,168
 468 753 468 753 463 760 c 0,169,170
 460 762 460 762 453 767 c 0,171,172
 450 770 450 770 443 775 c 0,173,174
 425 781 425 781 418 783 c 128,-1,175
 411 785 411 785 389 785 c 0,176,177
 380 785 380 785 362.5 789 c 128,-1,178
 345 793 345 793 336 793 c 0,179,180
 332 793 332 793 329 792 c 0,181,182
 323 792 323 792 310 788 c 1,183,184
 290 789 290 789 291 789 c 1,185,186
 288 789 288 789 283 787.5 c 128,-1,187
 278 786 278 786 276 786 c 1,188,189
 282 786 282 786 263 786 c 0,190,191
 250 786 250 786 231 774 c 0,192,193
 225 768 225 768 213 758 c 0,194,195
 201 753 201 753 189 747 c 0,196,197
 183 744 183 744 169 732 c 0,198,199
 164 726 164 726 154 715 c 1,200,201
 141 710 141 710 115 689 c 0,202,203
 106 680 106 680 92 661 c 0,204,205
 91 657 91 657 87 648 c 2,206,-1
 72 625 l 2,207,208
 70 620 70 620 66 611 c 0,209,210
 56 596 56 596 41 566 c 1,211,212
 37 543 37 543 28 499 c 0,213,214
 24 483 24 483 24 483 c 1,215,-1
 24 464 l 2,216,217
 24 454 24 454 21 435.5 c 128,-1,218
 18 417 18 417 18 407 c 0,219,220
 18 372 18 372 35 363 c 0,221,222
 45 358 45 358 84 358 c 0,223,224
 90 358 90 358 101 356.5 c 128,-1,225
 112 355 112 355 117 355 c 0,0,1
EndSplineSet
Validated: 5
EndChar

StartChar: T
Encoding: 84 84 31
Width: 616
Flags: W
LayerCount: 2
Fore
SplineSet
77 567 m 0,0,1
 78 566 78 566 80 566 c 0,2,3
 84 566 84 566 90.5 572.5 c 128,-1,4
 97 579 97 579 99 580 c 0,5,6
 105 582 105 582 117 588 c 0,7,8
 122 593 122 593 133 599 c 0,9,10
 147 610 147 610 176 610 c 0,11,12
 180 610 180 610 187 609 c 0,13,14
 195 609 195 609 199 609 c 0,15,16
 202 609 202 609 207 610 c 128,-1,17
 212 611 212 611 215 611 c 0,18,19
 220 611 220 611 222 608 c 0,20,21
 228 608 228 608 235.5 598.5 c 128,-1,22
 243 589 243 589 243 583 c 1,23,24
 247 579 247 579 247 571 c 0,25,26
 247 564 247 564 243.5 551 c 128,-1,27
 240 538 240 538 240 533 c 1,28,29
 240 537 240 537 240 516 c 0,30,31
 240 511 240 511 238.5 502 c 128,-1,32
 237 493 237 493 237 488 c 0,33,34
 237 485 237 485 238 479 c 128,-1,35
 239 473 239 473 239 470 c 0,36,37
 239 465 239 465 236 454.5 c 128,-1,38
 233 444 233 444 233 438 c 0,39,40
 233 436 233 436 234 432.5 c 128,-1,41
 235 429 235 429 235 427 c 0,42,43
 235 423 235 423 233.5 416 c 128,-1,44
 232 409 232 409 232 405 c 0,45,46
 232 402 232 402 233 396 c 128,-1,47
 234 390 234 390 234 387 c 0,48,49
 234 382 234 382 233 371.5 c 128,-1,50
 232 361 232 361 232 356 c 256,51,52
 232 351 232 351 232 341 c 0,53,54
 233 330 233 330 233 325 c 0,55,56
 233 321 233 321 232 313 c 0,57,58
 232 305 232 305 232 300 c 0,59,60
 232 294 232 294 233 282.5 c 128,-1,61
 234 271 234 271 234 265 c 0,62,63
 234 258 234 258 233 245.5 c 128,-1,64
 232 233 232 233 232 227 c 256,65,66
 232 221 232 221 233.5 208.5 c 128,-1,67
 235 196 235 196 235 190 c 0,68,69
 235 182 235 182 231.5 168.5 c 128,-1,70
 228 155 228 155 227.5 150 c 128,-1,71
 227 145 227 145 226 136 c 0,72,73
 226 134 226 134 222 127.5 c 128,-1,74
 218 121 218 121 218 118 c 128,-1,75
 218 115 218 115 218 112 c 0,76,77
 218 108 218 108 220.5 101 c 128,-1,78
 223 94 223 94 224 91 c 0,79,80
 227 71 227 71 227 61 c 0,81,82
 227 59 227 59 226 54 c 128,-1,83
 225 49 225 49 225 47 c 0,84,85
 225 36 225 36 237 18.5 c 128,-1,86
 249 1 249 1 260 1 c 0,87,88
 262 1 262 1 264 3 c 0,89,90
 268 1 268 1 271 1 c 0,91,92
 285 1 285 1 297 21 c 0,93,94
 299 24 299 24 302 30 c 0,95,96
 314 37 314 37 328 55 c 0,97,98
 336 67 336 67 336 95 c 0,99,100
 336 112 336 112 327.5 142.5 c 128,-1,101
 319 173 319 173 319 188 c 0,102,103
 319 194 319 194 320.5 204.5 c 128,-1,104
 322 215 322 215 322 220 c 0,105,106
 322 224 322 224 322 253 c 0,107,108
 322 258 322 258 325 268 c 128,-1,109
 328 278 328 278 328 283 c 0,110,111
 328 286 328 286 327 293 c 0,112,113
 327 300 327 300 327 303 c 128,-1,114
 327 306 327 306 327 312 c 0,115,116
 328 317 328 317 328 320 c 0,117,118
 328 324 328 324 327 332.5 c 128,-1,119
 326 341 326 341 326 345 c 0,120,121
 326 353 326 353 330 369 c 128,-1,122
 334 385 334 385 334 393 c 0,123,124
 334 400 334 400 331.5 413.5 c 128,-1,125
 329 427 329 427 329 434 c 0,126,127
 329 440 329 440 331 452.5 c 128,-1,128
 333 465 333 465 333 471 c 0,129,130
 333 496 333 496 325 524 c 0,131,132
 322 534 322 534 322 536 c 256,133,134
 322 538 322 538 322 543 c 0,135,136
 323 547 323 547 323 549 c 256,137,138
 323 551 323 551 322 557 c 0,139,140
 322 563 322 563 322 566 c 0,141,142
 322 573 322 573 327 592.5 c 128,-1,143
 332 612 332 612 334 615 c 128,-1,144
 336 618 336 618 344 625.5 c 128,-1,145
 352 633 352 633 355 633 c 2,146,-1
 393 644 l 2,147,148
 394 644 394 644 395 644 c 0,149,150
 397 644 397 644 400 643 c 0,151,152
 403 643 403 643 405 643 c 128,-1,153
 407 643 407 643 410 643 c 0,154,155
 414 644 414 644 416 644 c 0,156,157
 419 644 419 644 423 643 c 128,-1,158
 427 642 427 642 429 642 c 0,159,160
 432 642 432 642 438 643 c 128,-1,161
 444 644 444 644 447 644 c 0,162,163
 451 644 451 644 459 641.5 c 128,-1,164
 467 639 467 639 471 639 c 0,165,166
 474 639 474 639 476 640 c 2,167,-1
 478 640 l 2,168,169
 485 640 485 640 496 648 c 0,170,171
 512 661 512 661 513 662 c 0,172,173
 525 663 525 663 544 673 c 1,174,175
 544 673 544 673 557 688 c 0,176,177
 563 693 563 693 569.5 698.5 c 128,-1,178
 576 704 576 704 575 710 c 1,179,180
 582 718 582 718 582 738 c 0,181,182
 582 771 582 771 566 774 c 1,183,184
 565 782 565 782 533 782 c 0,185,186
 529 782 529 782 521.5 783.5 c 128,-1,187
 514 785 514 785 510 785 c 1,188,189
 516 785 516 785 474 776 c 128,-1,190
 432 767 432 767 415 767 c 0,191,192
 411 767 411 767 403.5 769 c 128,-1,193
 396 771 396 771 392 771 c 0,194,195
 390 771 390 771 386 771 c 128,-1,196
 382 771 382 771 370.5 766 c 128,-1,197
 359 761 359 761 352 761 c 0,198,199
 349 761 349 761 341.5 762.5 c 128,-1,200
 334 764 334 764 330 764 c 0,201,202
 318 764 318 764 301 757 c 0,203,204
 288 751 288 751 274 745 c 0,205,206
 265 743 265 743 248 739 c 0,207,208
 244 736 244 736 235 732 c 0,209,210
 233 731 233 731 215 731 c 0,211,212
 211 731 211 731 198 727 c 0,213,214
 193 726 193 726 164 719 c 0,215,216
 155 717 155 717 139 708 c 0,217,218
 129 702 129 702 104 702 c 0,219,220
 100 702 100 702 98.5 701.5 c 128,-1,221
 97 701 97 701 78 690 c 0,222,223
 71 688 71 688 60 678 c 1,224,225
 53 661 53 661 45 642 c 0,226,227
 44 640 44 640 40.5 636.5 c 128,-1,228
 37 633 37 633 37 631 c 0,229,230
 29 619 29 619 29 598 c 256,231,232
 29 577 29 577 40 575 c 1,233,234
 40 563 40 563 62 563 c 0,235,236
 71 563 71 563 77 567 c 0,0,1
EndSplineSet
Validated: 37
EndChar

StartChar: U
Encoding: 85 85 32
Width: 563
Flags: W
LayerCount: 2
Fore
SplineSet
42 398 m 0,0,1
 42 395 42 395 41 390.5 c 128,-1,2
 40 386 40 386 40 383 c 0,3,4
 40 375 40 375 42.5 359.5 c 128,-1,5
 45 344 45 344 45 337 c 0,6,7
 46 320 46 320 48 286 c 0,8,9
 50 280 50 280 52 268 c 0,10,11
 56 219 56 219 68 194 c 0,12,13
 72 188 72 188 79 175 c 0,14,15
 85 154 85 154 94 129 c 0,16,17
 99 126 99 126 108 116 c 1,18,19
 109 108 109 108 113 93 c 0,20,21
 118 70 118 70 140 53 c 0,22,23
 155 40 155 40 173 36 c 0,24,25
 198 31 198 31 205.5 27 c 128,-1,26
 213 23 213 23 227 16 c 0,27,28
 234 15 234 15 249 13 c 0,29,30
 252 13 252 13 264 9 c 0,31,32
 273 6 273 6 279 6 c 2,33,-1
 280 6 l 2,34,35
 286 6 286 6 310 19 c 0,36,37
 318 22 318 22 335 30 c 0,38,39
 342 35 342 35 357 45.5 c 128,-1,40
 372 56 372 56 399 68 c 0,41,42
 417 76 417 76 425 92 c 0,43,44
 428 101 428 101 436 119 c 0,45,46
 438 123 438 123 443 131 c 0,47,48
 445 137 445 137 450 147 c 0,49,50
 454 153 454 153 461 165 c 1,51,52
 464 183 464 183 473 217 c 0,53,54
 477 231 477 231 489 258 c 0,55,56
 499 273 499 273 503 287 c 0,57,58
 506 293 506 293 509 306 c 1,59,60
 509 302 509 302 509 328 c 0,61,62
 509 334 509 334 511 353 c 0,63,64
 511 357 511 357 512.5 362 c 128,-1,65
 514 367 514 367 514 376 c 0,66,67
 514 382 514 382 518.5 391.5 c 128,-1,68
 523 401 523 401 523 405 c 2,69,-1
 523 421 l 2,70,71
 524 424 524 424 525.5 429.5 c 128,-1,72
 527 435 527 435 527 439 c 0,73,74
 527 442 527 442 526 448.5 c 128,-1,75
 525 455 525 455 525 458 c 0,76,77
 525 463 525 463 526 471 c 128,-1,78
 527 479 527 479 527 484 c 0,79,80
 527 488 527 488 526 496.5 c 128,-1,81
 525 505 525 505 525 509 c 0,82,83
 525 512 525 512 526 517.5 c 128,-1,84
 527 523 527 523 527 526 c 0,85,86
 527 528 527 528 527 533 c 0,87,88
 526 537 526 537 526 540 c 0,89,90
 526 545 526 545 528 555.5 c 128,-1,91
 530 566 530 566 530 571 c 0,92,93
 530 574 530 574 529 581 c 128,-1,94
 528 588 528 588 528 592 c 1,95,96
 528 587 528 587 528 615 c 0,97,98
 528 629 528 629 515 662.5 c 128,-1,99
 502 696 502 696 502 715 c 0,100,101
 502 718 502 718 503 723.5 c 128,-1,102
 504 729 504 729 504 732 c 0,103,104
 504 742 504 742 487.5 763.5 c 128,-1,105
 471 785 471 785 461 787 c 0,106,107
 460 787 460 787 445 788 c 0,108,109
 437 785 437 785 424 776 c 0,110,111
 406 759 406 759 406 736 c 0,112,113
 406 714 406 714 413 680 c 0,114,115
 422 638 422 638 424 625 c 0,116,117
 424 621 424 621 426 611.5 c 128,-1,118
 428 602 428 602 428 597 c 0,119,120
 428 594 428 594 426.5 587.5 c 128,-1,121
 425 581 425 581 425 577 c 0,122,123
 425 575 425 575 426 570 c 128,-1,124
 427 565 427 565 427 563 c 0,125,126
 427 554 427 554 428 535.5 c 128,-1,127
 429 517 429 517 429 508 c 0,128,129
 429 495 429 495 428 469 c 0,130,131
 428 442 428 442 428 429 c 0,132,133
 428 425 428 425 429 417.5 c 128,-1,134
 430 410 430 410 430 406 c 0,135,136
 430 385 430 385 428 370 c 0,137,138
 427 364 427 364 423 351 c 0,139,140
 420 343 420 343 420 328 c 0,141,142
 420 324 420 324 418 316.5 c 128,-1,143
 416 309 416 309 415 306 c 0,144,145
 415 299 415 299 413 285 c 0,146,147
 410 279 410 279 403 266 c 0,148,149
 400 256 400 256 393 237 c 0,150,151
 390 232 390 232 385 222 c 1,152,153
 383 201 383 201 367 161 c 0,154,155
 360 152 360 152 335 142 c 1,156,157
 320 142 320 142 314.5 140.5 c 128,-1,158
 309 139 309 139 300.5 134.5 c 128,-1,159
 292 130 292 130 288 130 c 0,160,161
 241 130 241 130 203 155 c 0,162,163
 197 160 197 160 192 173 c 0,164,165
 189 183 189 183 186 193 c 0,166,167
 186 194 186 194 168 217 c 0,168,169
 144 250 144 250 144 295 c 0,170,171
 144 299 144 299 142.5 307.5 c 128,-1,172
 141 316 141 316 141 320 c 256,173,174
 141 324 141 324 141 330 c 0,175,176
 142 337 142 337 142 340 c 0,177,178
 142 352 142 352 141 361 c 0,179,180
 138 381 138 381 138 374 c 1,181,182
 138 377 138 377 139 382.5 c 128,-1,183
 140 388 140 388 140 390 c 0,184,185
 140 394 140 394 140 401 c 128,-1,186
 140 408 140 408 140 411 c 0,187,188
 140 420 140 420 143 437 c 128,-1,189
 146 454 146 454 146 463 c 0,190,191
 146 469 146 469 144 479.5 c 128,-1,192
 142 490 142 490 142 496 c 0,193,194
 142 498 142 498 142.5 502 c 128,-1,195
 143 506 143 506 144 508 c 0,196,197
 144 509 144 509 144 531 c 0,198,199
 144 535 144 535 145 543.5 c 128,-1,200
 146 552 146 552 146 556 c 256,201,202
 146 560 146 560 145 567 c 128,-1,203
 144 574 144 574 144 577 c 0,204,205
 144 582 144 582 146.5 590 c 128,-1,206
 149 598 149 598 149 603 c 0,207,208
 149 606 149 606 147.5 613 c 128,-1,209
 146 620 146 620 146 623 c 0,210,211
 146 627 146 627 148 635 c 128,-1,212
 150 643 150 643 150 647 c 0,213,214
 150 650 150 650 149 657 c 128,-1,215
 148 664 148 664 148 667 c 0,216,217
 148 673 148 673 150 685.5 c 128,-1,218
 152 698 152 698 152 704 c 0,219,220
 152 708 152 708 149.5 715.5 c 128,-1,221
 147 723 147 723 146.5 726.5 c 128,-1,222
 146 730 146 730 145 739 c 0,223,224
 142 756 142 756 121 756 c 0,225,226
 117 756 117 756 113 754 c 0,227,228
 79 754 79 754 63 699 c 0,229,230
 61 691 61 691 57 676 c 0,231,232
 54 670 54 670 50 657 c 0,233,234
 50 648 50 648 47 630 c 0,235,236
 44 606 44 606 44 614 c 1,237,238
 44 601 44 601 45 576.5 c 128,-1,239
 46 552 46 552 46 539 c 0,240,241
 46 537 46 537 42 512 c 0,242,243
 39 496 39 496 39 452 c 0,244,245
 39 449 39 449 38 445 c 128,-1,246
 37 441 37 441 37 438 c 1,247,248
 37 441 37 441 39 427 c 0,249,250
 42 417 42 417 42 398 c 0,0,1
EndSplineSet
Validated: 9
EndChar

StartChar: V
Encoding: 86 86 33
Width: 515
Flags: W
LayerCount: 2
Fore
SplineSet
37 616 m 0,0,1
 37 601 37 601 44.5 584.5 c 128,-1,2
 52 568 52 568 59 553 c 0,3,4
 60 546 60 546 63 530 c 128,-1,5
 66 514 66 514 66 515 c 1,6,7
 66 510 66 510 62 501 c 128,-1,8
 58 492 58 492 58 486 c 256,9,10
 58 480 58 480 64 470.5 c 128,-1,11
 70 461 70 461 71 457 c 2,12,-1
 77 433 l 2,13,14
 77 424 77 424 79 408 c 0,15,16
 83 402 83 402 88 389 c 1,17,18
 89 375 89 375 93 347 c 0,19,20
 95 339 95 339 98 324 c 0,21,22
 101 320 101 320 105 311 c 0,23,24
 105 306 105 306 106 296 c 0,25,26
 106 293 106 293 110 273 c 0,27,28
 114 244 114 244 130 220 c 0,29,30
 134 216 134 216 139 205 c 0,31,32
 139 204 139 204 139 183 c 0,33,34
 139 178 139 178 147 158 c 0,35,36
 148 148 148 148 152 128 c 0,37,38
 160 98 160 98 160 101 c 1,39,40
 160 96 160 96 159 85.5 c 128,-1,41
 158 75 158 75 158 70 c 0,42,43
 158 45 158 45 181 37 c 0,44,45
 186 36 186 36 194 33 c 2,46,47
 194 33 194 33 205 21 c 0,48,49
 212 13 212 13 227 13 c 0,50,51
 241 13 241 13 258 30 c 0,52,53
 279 50 279 50 290 80 c 0,54,55
 298 109 298 109 306 138 c 0,56,57
 307 150 307 150 312 172 c 1,58,59
 321 187 321 187 336 217 c 0,60,61
 336 224 336 224 339 238 c 0,62,63
 342 245 342 245 348 259 c 0,64,65
 350 264 350 264 352 273 c 0,66,67
 361 290 361 290 373 323 c 0,68,69
 373 330 373 330 374 345 c 0,70,71
 376 351 376 351 378 364.5 c 128,-1,72
 380 378 380 378 380 395 c 0,73,74
 380 401 380 401 386 407.5 c 128,-1,75
 392 414 392 414 393 417 c 0,76,77
 395 430 395 430 401 457 c 0,78,79
 405 462 405 462 411 472 c 0,80,81
 424 492 424 492 424 508 c 0,82,83
 424 513 424 513 423 522 c 0,84,85
 423 532 423 532 423 537 c 0,86,87
 423 554 423 554 427.5 561.5 c 128,-1,88
 432 569 432 569 433 573 c 0,89,90
 435 590 435 590 443 622 c 0,91,92
 449 638 449 638 460 652 c 0,93,94
 464 656 464 656 471 665 c 0,95,96
 473 673 473 673 478 688 c 0,97,98
 504 728 504 728 504 755 c 0,99,100
 504 785 504 785 481 785 c 0,101,102
 473 785 473 785 467 784 c 128,-1,103
 461 783 461 783 446 775 c 0,104,105
 442 773 442 773 435 769 c 0,106,107
 413 754 413 754 395 686 c 0,108,109
 392 680 392 680 387 668 c 0,110,111
 382 651 382 651 375 631 c 0,112,113
 375 628 375 628 373.5 622.5 c 128,-1,114
 372 617 372 617 370.5 608.5 c 128,-1,115
 369 600 369 600 366 585 c 1,116,117
 359 574 359 574 347 548 c 1,118,119
 341 518 341 518 327 457 c 0,120,121
 322 437 322 437 316 424 c 0,122,123
 314 418 314 418 311 407 c 0,124,125
 309 403 309 403 306 396 c 0,126,127
 305 383 305 383 301 358 c 0,128,129
 298 347 298 347 290 326 c 0,130,131
 274 281 274 281 255 281 c 0,132,133
 241 281 241 281 233.5 289 c 128,-1,134
 226 297 226 297 224 308 c 0,135,136
 220 325 220 325 219 327 c 0,137,138
 208 350 208 350 193 400 c 0,139,140
 192 407 192 407 191 421 c 0,141,142
 189 426 189 426 187 437 c 128,-1,143
 185 448 185 448 181 468 c 0,144,145
 176 478 176 478 170.5 502.5 c 128,-1,146
 165 527 165 527 165 554 c 0,147,148
 165 559 165 559 163.5 568 c 128,-1,149
 162 577 162 577 162 580 c 0,150,151
 161 590 161 590 153 629 c 0,152,153
 153 636 153 636 151 648 c 0,154,155
 148 653 148 653 142 664 c 0,156,157
 139 671 139 671 134 684 c 0,158,159
 131 690 131 690 126 703 c 128,-1,160
 121 716 121 716 110 744 c 0,161,162
 109 749 109 749 106.5 758 c 128,-1,163
 104 767 104 767 95 779 c 128,-1,164
 86 791 86 791 79 791 c 2,165,166
 79 791 79 791 65 792 c 1,167,168
 23 775 23 775 16 735 c 0,169,170
 12 715 12 715 12 713 c 0,171,172
 12 698 12 698 25 670.5 c 128,-1,173
 38 643 38 643 38 628 c 0,174,175
 38 626 38 626 37 622 c 0,176,177
 37 618 37 618 37 616 c 0,0,1
EndSplineSet
Validated: 9
EndChar

StartChar: W
Encoding: 87 87 34
Width: 702
Flags: W
LayerCount: 2
Fore
SplineSet
443 33 m 0,0,1
 466 33 466 33 477 38 c 0,2,3
 491 51 491 51 519 74 c 0,4,5
 523 75 523 75 531 82 c 1,6,7
 535 91 535 91 545 108 c 0,8,9
 547 112 547 112 559.5 129 c 128,-1,10
 572 146 572 146 591 175 c 0,11,12
 593 181 593 181 598 192 c 0,13,14
 601 198 601 198 606 208 c 0,15,16
 611 226 611 226 617 239 c 0,17,18
 618 246 618 246 620 261 c 0,19,20
 625 273 625 273 632 296 c 128,-1,21
 639 319 639 319 650 364 c 0,22,23
 655 387 655 387 655 422 c 0,24,25
 655 428 655 428 651.5 439 c 128,-1,26
 648 450 648 450 647 456 c 0,27,28
 647 471 647 471 647 500 c 0,29,30
 646 508 646 508 644 531 c 0,31,32
 643 550 643 550 643 561 c 0,33,34
 643 567 643 567 646 583.5 c 128,-1,35
 649 600 649 600 649 610 c 0,36,37
 649 625 649 625 644 645 c 0,38,39
 635 675 635 675 635 679 c 0,40,41
 631 700 631 700 631 745 c 1,42,43
 631 744 631 744 622 783 c 0,44,45
 618 804 618 804 611 809.5 c 128,-1,46
 604 815 604 815 582 816 c 1,47,-1
 582 815 l 1,48,49
 575 815 575 815 564 807 c 0,50,51
 536 787 536 787 536 750 c 0,52,53
 536 745 536 745 538.5 733.5 c 128,-1,54
 541 722 541 722 541 716 c 0,55,56
 541 714 541 714 540 709 c 128,-1,57
 539 704 539 704 539 701 c 0,58,59
 539 660 539 660 540 654 c 0,60,61
 545 639 545 639 553 609 c 0,62,63
 553 600 553 600 555 581 c 0,64,65
 559 543 559 543 559 550 c 1,66,67
 559 541 559 541 553.5 523.5 c 128,-1,68
 548 506 548 506 548 497 c 0,69,70
 548 486 548 486 551.5 463 c 128,-1,71
 555 440 555 440 555 429 c 0,72,73
 555 394 555 394 550 350 c 0,74,75
 546 338 546 338 541.5 314 c 128,-1,76
 537 290 537 290 522 242 c 1,77,78
 514 235 514 235 501 219 c 0,79,80
 500 219 500 219 491 193 c 0,81,82
 486 179 486 179 468 170 c 1,83,84
 456 170 456 170 439 180.5 c 128,-1,85
 422 191 422 191 417 202 c 0,86,87
 416 210 416 210 413 225 c 0,88,89
 410 236 410 236 405 260 c 0,90,91
 402 267 402 267 400 281 c 0,92,93
 399 330 399 330 390 374 c 1,94,95
 391 393 391 393 388 430 c 0,96,97
 382 464 382 464 382 487 c 0,98,99
 382 494 382 494 383.5 507 c 128,-1,100
 385 520 385 520 385 527 c 0,101,102
 385 570 385 570 361 570 c 0,103,104
 351 570 351 570 345.5 568 c 128,-1,105
 340 566 340 566 324.5 555 c 128,-1,106
 309 544 309 544 306 539 c 0,107,108
 303 518 303 518 298 484 c 0,109,110
 296 480 296 480 295 473 c 0,111,112
 295 470 295 470 295 444 c 0,113,114
 295 440 295 440 296 432.5 c 128,-1,115
 297 425 297 425 298 422 c 0,116,117
 298 416 298 416 298 404 c 0,118,119
 298 389 298 389 288 305 c 0,120,121
 285 279 285 279 285 277 c 0,122,123
 282 264 282 264 274 250 c 128,-1,124
 266 236 266 236 248 206 c 0,125,126
 245 201 245 201 239 191 c 128,-1,127
 233 181 233 181 226.5 171.5 c 128,-1,128
 220 162 220 162 209 162 c 0,129,130
 196 162 196 162 188 168 c 0,131,132
 170 181 170 181 165 230 c 0,133,134
 165 235 165 235 164 245 c 0,135,136
 161 250 161 250 158.5 262.5 c 128,-1,137
 156 275 156 275 150.5 297 c 128,-1,138
 145 319 145 319 136 361 c 0,139,140
 124 415 124 415 124 439 c 0,141,142
 124 440 124 440 130 499 c 0,143,144
 129 514 129 514 131 543 c 0,145,146
 133 555 133 555 138 580 c 0,147,148
 138 590 138 590 141 608 c 0,149,150
 151 643 151 643 151 642 c 2,151,152
 151 642 151 642 149 660 c 0,153,154
 148 661 148 661 148 692 c 0,155,156
 148 701 148 701 151 718.5 c 128,-1,157
 154 736 154 736 154 745 c 0,158,159
 154 779 154 779 117 779 c 0,160,161
 87 779 87 779 76 757 c 0,162,163
 69 745 69 745 65 709 c 0,164,165
 63 702 63 702 60 689 c 128,-1,166
 57 676 57 676 57 645 c 0,167,168
 57 639 57 639 60 623.5 c 128,-1,169
 63 608 63 608 63 602 c 0,170,171
 63 590 63 590 58 567 c 0,172,173
 52 540 52 540 52 532 c 0,174,175
 50 505 50 505 47 452 c 0,176,177
 45 428 45 428 45 435 c 1,178,179
 45 431 45 431 46 425 c 128,-1,180
 47 419 47 419 47 416 c 0,181,182
 49 397 49 397 49 386 c 0,183,184
 49 384 49 384 49 381 c 0,185,186
 48 378 48 378 48 377 c 2,187,-1
 48 301 l 2,188,189
 48 290 48 290 53 273 c 0,190,191
 60 252 60 252 61 246 c 0,192,193
 62 237 62 237 62 216 c 1,194,195
 62 217 62 217 70 183 c 0,196,197
 71 175 71 175 74 157 c 0,198,199
 74 145 74 145 78 125 c 1,200,201
 90 99 90 99 115 64 c 0,202,203
 119 57 119 57 127 42 c 0,204,205
 142 21 142 21 167 21 c 0,206,207
 176 21 176 21 183 25.5 c 128,-1,208
 190 30 190 30 191 30 c 0,209,210
 207 34 207 34 219 39 c 0,211,212
 224 45 224 45 235 53 c 128,-1,213
 246 61 246 61 264 79 c 1,214,215
 268 89 268 89 276 108 c 0,216,217
 281 113 281 113 290 123 c 0,218,219
 296 133 296 133 302.5 145 c 128,-1,220
 309 157 309 157 322 157 c 256,221,222
 335 157 335 157 340 147 c 0,223,224
 341 146 341 146 348 127 c 0,225,226
 353 118 353 118 362 98 c 0,227,228
 370 73 370 73 370 72 c 0,229,230
 376 57 376 57 388 50 c 0,231,232
 416 33 416 33 443 33 c 0,0,1
EndSplineSet
Validated: 37
EndChar

StartChar: X
Encoding: 88 88 35
Width: 614
Flags: W
LayerCount: 2
Fore
SplineSet
567 123 m 1,0,1
 558 130 558 130 543 143 c 1,2,3
 537 154 537 154 515 175 c 1,4,5
 505 177 505 177 492 186 c 0,6,7
 491 186 491 186 483 199 c 0,8,9
 469 214 469 214 446 248 c 0,10,11
 441 258 441 258 431 279 c 0,12,13
 422 291 422 291 416 294 c 0,14,15
 401 301 401 301 399 303 c 0,16,17
 393 310 393 310 381 322 c 0,18,19
 376 324 376 324 370 331 c 2,20,21
 370 331 370 331 359 355 c 0,22,23
 354 365 354 365 345 386 c 0,24,25
 342 394 342 394 335 412 c 0,26,27
 334 414 334 414 325 427 c 0,28,29
 319 436 319 436 319 442 c 0,30,31
 319 444 319 444 319 446 c 0,32,33
 318 449 318 449 318 451 c 256,34,35
 318 453 318 453 339 497 c 0,36,37
 341 504 341 504 348 517 c 0,38,39
 352 522 352 522 360 531 c 128,-1,40
 368 540 368 540 379 563 c 0,41,42
 384 571 384 571 388 578 c 128,-1,43
 392 585 392 585 392 595 c 0,44,45
 392 599 392 599 395.5 602.5 c 128,-1,46
 399 606 399 606 407 614 c 0,47,48
 412 625 412 625 426 647 c 0,49,50
 438 659 438 659 461 686 c 0,51,52
 464 694 464 694 473 711 c 0,53,54
 479 720 479 720 491 739 c 0,55,56
 493 745 493 745 500 757 c 0,57,58
 503 759 503 759 507 764 c 0,59,60
 520 776 520 776 518 787 c 0,61,62
 520 790 520 790 520 795 c 1,63,64
 520 794 520 794 515 813 c 0,65,66
 515 823 515 823 507.5 835.5 c 128,-1,67
 500 848 500 848 478 848 c 0,68,69
 470 848 470 848 470 841.5 c 128,-1,70
 470 835 470 835 457 827 c 0,71,72
 448 820 448 820 438 814 c 0,73,74
 421 799 421 799 412 773 c 0,75,76
 403 751 403 751 395 728 c 0,77,78
 390 721 390 721 381 707 c 0,79,80
 378 701 378 701 371 689 c 0,81,82
 363 681 363 681 347 663 c 0,83,84
 343 654 343 654 332 637 c 0,85,86
 327 633 327 633 319 623 c 0,87,88
 316 613 316 613 309 593 c 0,89,90
 297 561 297 561 291 557 c 0,91,92
 287 550 287 550 283 550 c 2,93,-1
 281 550 l 2,94,95
 278 549 278 549 275 549 c 0,96,97
 260 549 260 549 249 578 c 0,98,99
 247 584 247 584 238 597 c 1,100,101
 211 617 211 617 179 648 c 0,102,103
 178 653 178 653 174 662 c 0,104,105
 171 667 171 667 166.5 680.5 c 128,-1,106
 162 694 162 694 151 727 c 0,107,108
 150 736 150 736 143 749 c 0,109,110
 141 754 141 754 129 761.5 c 128,-1,111
 117 769 117 769 112 768 c 0,112,113
 111 768 111 768 108 768 c 0,114,115
 103 768 103 768 103 765 c 0,116,117
 103 753 103 753 85 736 c 128,-1,118
 67 719 67 719 67 710 c 0,119,120
 66 709 66 709 66 706 c 0,121,122
 66 685 66 685 83 644 c 0,123,124
 89 632 89 632 99 609 c 1,125,126
 101 594 101 594 104 578 c 128,-1,127
 107 562 107 562 117 553 c 0,128,129
 117 552 117 552 129 542 c 0,130,131
 135 536 135 536 149 524 c 0,132,133
 153 522 153 522 160 517 c 0,134,135
 165 509 165 509 177 493 c 0,136,137
 194 470 194 470 194 437 c 0,138,139
 194 433 194 433 196.5 426 c 128,-1,140
 199 419 199 419 199 415 c 0,141,142
 199 413 199 413 197 410 c 2,143,-1
 198 409 l 2,144,145
 198 404 198 404 193 398 c 0,146,147
 186 388 186 388 185 387 c 0,148,149
 176 369 176 369 170 350 c 0,150,151
 168 338 168 338 158 315 c 0,152,153
 150 306 150 306 137 288 c 0,154,155
 132 279 132 279 122 262 c 0,156,157
 115 254 115 254 105 237 c 0,158,159
 102 228 102 228 98 211 c 0,160,161
 93 202 93 202 86 184 c 0,162,163
 86 177 86 177 81 165 c 0,164,165
 76 158 76 158 66 144 c 0,166,167
 61 132 61 132 49 108 c 128,-1,168
 37 84 37 84 37 55 c 0,169,170
 37 49 37 49 34 37.5 c 128,-1,171
 31 26 31 26 31 20 c 0,172,173
 31 11 31 11 39 9 c 1,174,175
 40 -10 40 -10 61 -10 c 0,176,177
 76 -10 76 -10 93 0 c 1,178,-1
 96 -1 l 2,179,180
 107 -1 107 -1 115 12 c 0,181,182
 118 17 118 17 125 27 c 0,183,184
 129 32 129 32 137 41 c 0,185,186
 156 68 156 68 156 113 c 0,187,188
 156 119 156 119 158 124 c 0,189,190
 164 132 164 132 171 151 c 0,191,192
 171 152 171 152 171 161 c 0,193,194
 171 175 171 175 177 183 c 0,195,196
 180 187 180 187 185 195 c 0,197,198
 186 199 186 199 189 207 c 0,199,200
 196 215 196 215 207 233 c 0,201,202
 215 252 215 252 225 273 c 0,203,204
 227 277 227 277 236.5 285.5 c 128,-1,205
 246 294 246 294 249.5 295.5 c 128,-1,206
 253 297 253 297 258 297 c 0,207,208
 261 297 261 297 263 295 c 0,209,210
 275 296 275 296 287 270 c 0,211,212
 294 251 294 251 302 233 c 0,213,214
 311 219 311 219 328 205.5 c 128,-1,215
 345 192 345 192 348 186 c 0,216,217
 355 176 355 176 365 155 c 0,218,219
 366 150 366 150 369 140 c 0,220,221
 372 137 372 137 376 131 c 0,222,223
 377 127 377 127 381 120 c 0,224,225
 383 117 383 117 389 111 c 0,226,227
 400 98 400 98 416 87 c 0,228,229
 423 84 423 84 437 76 c 0,230,231
 443 68 443 68 456 54 c 0,232,233
 461 51 461 51 469 44 c 0,234,235
 472 37 472 37 479 24 c 0,236,237
 483 21 483 21 489 14 c 0,238,239
 491 7 491 7 498 -3 c 0,240,241
 501 -8 501 -8 515.5 -13.5 c 128,-1,242
 530 -19 530 -19 537 -19 c 0,243,244
 540 -19 540 -19 542 -18 c 0,245,246
 553 -20 553 -20 559 -12 c 1,247,248
 567 -10 567 -10 571 3 c 0,249,250
 578 13 578 13 580.5 26 c 128,-1,251
 583 39 583 39 586 52 c 0,252,253
 588 61 588 61 588 61 c 2,254,255
 588 69 588 69 583.5 78 c 128,-1,256
 579 87 579 87 578 90 c 0,257,258
 577 103 577 103 567 123 c 1,0,1
EndSplineSet
Validated: 41
EndChar

StartChar: Y
Encoding: 89 89 36
Width: 587
Flags: W
LayerCount: 2
Fore
SplineSet
565 726 m 0,0,1
 566 729 566 729 566 732 c 256,2,3
 566 735 566 735 564.5 741.5 c 128,-1,4
 563 748 563 748 563 751 c 0,5,6
 563 755 563 755 565 760.5 c 128,-1,7
 567 766 567 766 568 769 c 2,8,-1
 566 772 l 1,9,-1
 567 773 l 2,10,11
 566 773 566 773 558 784 c 1,12,13
 554 797 554 797 538 813 c 0,14,15
 533 820 533 820 515 820 c 0,16,17
 511 820 511 820 509 820 c 0,18,19
 505 820 505 820 503 817 c 0,20,21
 465 804 465 804 462 773 c 0,22,23
 461 772 461 772 461 759 c 0,24,25
 461 754 461 754 458 744 c 128,-1,26
 455 734 455 734 455 729 c 0,27,28
 455 725 455 725 457 716.5 c 128,-1,29
 459 708 459 708 459 703 c 0,30,31
 459 692 459 692 457 683 c 0,32,33
 457 682 457 682 452 672 c 1,34,35
 451 661 451 661 442 643 c 0,36,37
 441 638 441 638 432.5 632 c 128,-1,38
 424 626 424 626 422.5 620.5 c 128,-1,39
 421 615 421 615 418 605 c 0,40,41
 413 600 413 600 407 590 c 0,42,43
 405 579 405 579 400 565 c 0,44,45
 398 558 398 558 390 551 c 0,46,47
 378 541 378 541 377 540 c 0,48,49
 365 526 365 526 358 514 c 0,50,51
 356 510 356 510 351 503 c 2,52,53
 351 503 351 503 339 494 c 0,54,55
 333 488 333 488 320 479 c 0,56,57
 315 476 315 476 304 471 c 0,58,59
 262 449 262 449 233 449 c 0,60,61
 216 449 216 449 207 457 c 0,62,63
 206 457 206 457 196 465 c 0,64,65
 173 485 173 485 164 510 c 0,66,67
 163 517 163 517 158 532 c 0,68,69
 156 536 156 536 151 544 c 0,70,71
 147 558 147 558 137 586 c 0,72,73
 134 589 134 589 131 598 c 0,74,75
 130 601 130 601 130 604 c 0,76,77
 130 606 130 606 131 610.5 c 128,-1,78
 132 615 132 615 132 617 c 0,79,80
 132 620 132 620 131 624.5 c 128,-1,81
 130 629 130 629 130 631 c 0,82,83
 130 634 130 634 131 639 c 128,-1,84
 132 644 132 644 132 647 c 0,85,86
 132 652 132 652 129 662 c 128,-1,87
 126 672 126 672 126 677 c 256,88,89
 126 682 126 682 128.5 691 c 128,-1,90
 131 700 131 700 132 704 c 1,91,92
 131 698 131 698 131 728 c 0,93,94
 131 731 131 731 132 736 c 0,95,96
 132 742 132 742 132 745 c 0,97,98
 132 772 132 772 124 778 c 1,99,100
 123 785 123 785 111 787 c 0,101,102
 105 792 105 792 85 792 c 0,103,104
 81 792 81 792 79 791 c 0,105,106
 61 791 61 791 48.5 774.5 c 128,-1,107
 36 758 36 758 36 739 c 0,108,109
 35 737 35 737 35 735 c 0,110,111
 35 734 35 734 35 731 c 0,112,113
 36 729 36 729 36 727 c 0,114,115
 36 724 36 724 34.5 718 c 128,-1,116
 33 712 33 712 33 709 c 0,117,118
 33 703 33 703 35.5 693 c 128,-1,119
 38 683 38 683 38 679 c 1,120,121
 37 684 37 684 37 657 c 1,122,123
 37 661 37 661 46 626 c 0,124,125
 47 619 47 619 50 606 c 0,126,127
 59 563 59 563 59 564 c 1,128,129
 59 559 59 559 58 550 c 0,130,131
 58 541 58 541 58 537 c 0,132,133
 58 509 58 509 70 484 c 0,134,135
 72 481 72 481 74 475.5 c 128,-1,136
 76 470 76 470 79.5 461 c 128,-1,137
 83 452 83 452 90 435 c 0,138,139
 92 421 92 421 102 398 c 0,140,141
 107 393 107 393 116 382 c 0,142,143
 123 368 123 368 140 351 c 0,144,145
 141 350 141 350 151 347 c 0,146,147
 174 338 174 338 214 326 c 0,148,149
 219 326 219 326 229 322 c 0,150,151
 245 318 245 318 243 310 c 1,152,153
 247 306 247 306 247 302 c 0,154,155
 247 296 247 296 241 285 c 128,-1,156
 235 274 235 274 233.5 268.5 c 128,-1,157
 232 263 232 263 230 251 c 0,158,159
 228 246 228 246 224 236 c 0,160,161
 224 231 224 231 221.5 224 c 128,-1,162
 219 217 219 217 214 204 c 0,163,164
 212 198 212 198 212 180 c 0,165,166
 212 171 212 171 208.5 153 c 128,-1,167
 205 135 205 135 205 125 c 0,168,169
 205 123 205 123 206 118 c 0,170,171
 206 112 206 112 206 110 c 0,172,173
 206 105 206 105 205 94.5 c 128,-1,174
 204 84 204 84 204 79 c 0,175,176
 204 70 204 70 212 42 c 0,177,178
 218 9 218 9 259 2 c 0,179,180
 262 0 262 0 266 0 c 0,181,182
 293 0 293 0 298 8 c 1,183,184
 311 13 311 13 313 40 c 0,185,186
 316 45 316 45 316 52 c 0,187,188
 316 74 316 74 310 83 c 0,189,190
 307 86 307 86 302 94.5 c 128,-1,191
 297 103 297 103 297 127 c 0,192,193
 297 133 297 133 299.5 144.5 c 128,-1,194
 302 156 302 156 302 161 c 1,195,196
 302 155 302 155 302 185 c 0,197,198
 302 190 302 190 304.5 200.5 c 128,-1,199
 307 211 307 211 307 217 c 0,200,201
 307 220 307 220 305 226.5 c 128,-1,202
 303 233 303 233 303 237 c 0,203,204
 303 247 303 247 312 297 c 0,205,206
 317 325 317 325 317 318 c 1,207,208
 317 320 317 320 317 323 c 0,209,210
 316 327 316 327 316 329 c 0,211,212
 316 333 316 333 319.5 337.5 c 128,-1,213
 323 342 323 342 332 356 c 0,214,215
 334 360 334 360 338 368 c 0,216,217
 353 399 353 399 368 415 c 1,218,219
 383 423 383 423 417 456 c 0,220,221
 423 467 423 467 435 490 c 1,222,223
 446 500 446 500 464 523 c 0,224,225
 467 531 467 531 474 545 c 1,226,227
 485 556 485 556 505 581 c 0,228,229
 511 589 511 589 521 605 c 1,230,231
 529 628 529 628 544 673 c 0,232,233
 545 676 545 676 557 699 c 0,234,235
 565 716 565 716 565 726 c 0,0,1
EndSplineSet
Validated: 37
EndChar

StartChar: Z
Encoding: 90 90 37
Width: 554
Flags: W
LayerCount: 2
Fore
SplineSet
452 125 m 0,0,1
 450 125 450 125 446 124 c 0,2,3
 443 123 443 123 441 123.5 c 128,-1,4
 439 124 439 124 435.5 124 c 128,-1,5
 432 124 432 124 430 124 c 0,6,7
 416 124 416 124 389 122 c 128,-1,8
 362 120 362 120 348 120 c 0,9,10
 347 120 347 120 344 120 c 0,11,12
 341 121 341 121 339 121 c 0,13,14
 335 121 335 121 326.5 119.5 c 128,-1,15
 318 118 318 118 314 118 c 0,16,17
 311 118 311 118 286 121 c 1,18,-1
 286 120 l 2,19,20
 283 120 283 120 278 121.5 c 128,-1,21
 273 123 273 123 270 123 c 0,22,23
 265 123 265 123 256.5 120.5 c 128,-1,24
 248 118 248 118 243 118 c 0,25,26
 239 118 239 118 226 119 c 0,27,28
 216 120 216 120 210 119 c 1,29,30
 202 124 202 124 198 131 c 0,31,32
 199 134 199 134 216 162 c 0,33,34
 223 173 223 173 252 230 c 0,35,36
 254 236 254 236 260 247 c 0,37,38
 264 252 264 252 273 263.5 c 128,-1,39
 282 275 282 275 300 307 c 0,40,41
 304 315 304 315 312 332 c 0,42,43
 318 343 318 343 330 364 c 0,44,45
 339 374 339 374 352 396 c 1,46,-1
 352 396 l 1,47,48
 352 396 352 396 357 403 c 0,49,50
 358 405 358 405 392 459 c 0,51,52
 397 465 397 465 404 478 c 0,53,54
 413 497 413 497 432 534 c 0,55,56
 434 540 434 540 437 551 c 0,57,58
 439 558 439 558 472 609 c 0,59,60
 484 627 484 627 504 661 c 0,61,62
 513 683 513 683 513 687 c 0,63,64
 528 700 528 700 528 728 c 0,65,66
 528 738 528 738 526 742 c 0,67,68
 521 745 521 745 513 753 c 0,69,70
 511 755 511 755 506 760 c 0,71,72
 486 779 486 779 469 779 c 0,73,74
 464 779 464 779 453 779 c 0,75,76
 442 778 442 778 437 778 c 0,77,78
 427 778 427 778 406.5 773.5 c 128,-1,79
 386 769 386 769 376 769 c 0,80,81
 369 769 369 769 356.5 771 c 128,-1,82
 344 773 344 773 337 773 c 256,83,84
 330 773 330 773 315.5 772 c 128,-1,85
 301 771 301 771 293 771 c 0,86,87
 291 771 291 771 286 771 c 0,88,89
 281 772 281 772 279 772 c 1,90,91
 284 772 284 772 258 770 c 1,92,-1
 258 769 l 1,93,-1
 255 770 l 2,94,95
 250 770 250 770 240.5 768 c 128,-1,96
 231 766 231 766 226 766 c 0,97,98
 211 766 211 766 180 769 c 128,-1,99
 149 772 149 772 133 772 c 0,100,101
 111 772 111 772 84 763 c 0,102,103
 79 763 79 763 69 762 c 0,104,105
 51 759 51 759 36 746 c 128,-1,106
 21 733 21 733 19 716 c 1,107,108
 26 704 26 704 34 691 c 0,109,110
 42 682 42 682 60 682 c 0,111,112
 70 682 70 682 86.5 678 c 128,-1,113
 103 674 103 674 110 674 c 0,114,115
 118 674 118 674 134.5 675.5 c 128,-1,116
 151 677 151 677 159 677 c 0,117,118
 160 677 160 677 163 676 c 0,119,120
 166 676 166 676 168 676 c 128,-1,121
 170 676 170 676 175 676 c 0,122,123
 179 677 179 677 181 677 c 256,124,125
 183 677 183 677 186 676 c 0,126,127
 189 676 189 676 191 676 c 256,128,129
 193 676 193 676 197 678 c 128,-1,130
 201 680 201 680 203 680 c 256,131,132
 205 680 205 680 209.5 679 c 128,-1,133
 214 678 214 678 215.5 677.5 c 128,-1,134
 217 677 217 677 239 677 c 0,135,136
 240 677 240 677 260 674 c 1,137,-1
 260 672 l 1,138,-1
 264 672 l 2,139,140
 278 673 278 673 284 669 c 1,141,142
 293 670 293 670 295 670 c 256,143,144
 297 670 297 670 303 669 c 128,-1,145
 309 668 309 668 312 668 c 2,146,-1
 324 669 l 2,147,148
 329 669 329 669 337.5 670.5 c 128,-1,149
 346 672 346 672 350 672 c 0,150,151
 358 672 358 672 364 664.5 c 128,-1,152
 370 657 370 657 370 649 c 0,153,154
 370 642 370 642 364 631 c 128,-1,155
 358 620 358 620 358 614 c 0,156,157
 355 611 355 611 352 604 c 0,158,159
 347 594 347 594 329 576 c 0,160,161
 327 573 327 573 326 570 c 0,162,163
 322 559 322 559 311 539 c 0,164,165
 287 507 287 507 266 465 c 1,166,167
 254 451 254 451 233 426 c 1,168,169
 229 415 229 415 218 393 c 0,170,171
 209 382 209 382 195 359 c 0,172,173
 193 350 193 350 185 336.5 c 128,-1,174
 177 323 177 323 162 299 c 0,175,176
 158 287 158 287 147 265 c 2,177,-1
 127 233 l 2,178,179
 118 221 118 221 101 195 c 0,180,181
 99 188 99 188 94 175 c 0,182,183
 90 170 90 170 82 159 c 0,184,185
 79 154 79 154 73 143 c 0,186,187
 44 93 44 93 44 79 c 0,188,189
 44 69 44 69 49 60 c 1,190,-1
 48 54 l 1,191,-1
 49 54 l 1,192,193
 49 43 49 43 73 31 c 0,194,195
 94 21 94 21 107 21 c 0,196,197
 111 21 111 21 119 23.5 c 128,-1,198
 127 26 127 26 131 26 c 0,199,200
 133 26 133 26 137 25 c 128,-1,201
 141 24 141 24 143 24 c 0,202,203
 146 24 146 24 151.5 25 c 128,-1,204
 157 26 157 26 160 26 c 0,205,206
 177 26 177 26 192 23 c 0,207,208
 203 22 203 22 225 23 c 0,209,210
 228 23 228 23 235.5 25 c 128,-1,211
 243 27 243 27 248 27 c 0,212,213
 255 27 255 27 282 26 c 1,214,-1
 282 25 l 1,215,216
 286 25 286 25 287 25 c 0,217,218
 293 25 293 25 291 25 c 1,219,-1
 291 25 l 1,220,221
 301 27 301 27 302 27 c 0,222,223
 305 27 305 27 311 25 c 128,-1,224
 317 23 317 23 320 22 c 1,225,226
 316 23 316 23 352 23 c 0,227,228
 355 23 355 23 361.5 22 c 128,-1,229
 368 21 368 21 372 21 c 0,230,231
 374 21 374 21 387 23.5 c 128,-1,232
 400 26 400 26 408 26 c 256,233,234
 416 26 416 26 431.5 25 c 128,-1,235
 447 24 447 24 455 24 c 1,236,237
 448 24 448 24 473 27 c 0,238,239
 494 31 494 31 503.5 35.5 c 128,-1,240
 513 40 513 40 522 57 c 128,-1,241
 531 74 531 74 531 88 c 0,242,243
 531 103 531 103 518.5 109 c 128,-1,244
 506 115 506 115 494 120 c 128,-1,245
 482 125 482 125 452 125 c 0,0,1
EndSplineSet
Validated: 37
EndChar

StartChar: a
Encoding: 97 97 38
Width: 580
Flags: W
LayerCount: 2
Fore
SplineSet
65 2 m 0,0,1
 91 2 91 2 103 55 c 0,2,3
 106 69 106 69 106 68 c 1,4,5
 106 72 106 72 104.5 81 c 128,-1,6
 103 90 103 90 103 95 c 0,7,8
 103 103 103 103 108 119 c 128,-1,9
 113 135 113 135 113 143 c 0,10,11
 113 146 113 146 112 151 c 0,12,13
 112 156 112 156 112 159 c 0,14,15
 112 190 112 190 155 190 c 0,16,17
 162 190 162 190 177.5 188 c 128,-1,18
 193 186 193 186 201 186 c 0,19,20
 210 186 210 186 227.5 189 c 128,-1,21
 245 192 245 192 255 192 c 0,22,23
 282 192 282 192 309 200 c 0,24,25
 315 202 315 202 330 213 c 128,-1,26
 345 224 345 224 355 224 c 0,27,28
 362 224 362 224 375 217.5 c 128,-1,29
 388 211 388 211 389.5 205 c 128,-1,30
 391 199 391 199 393 189 c 2,31,-1
 398 177 l 1,32,33
 408 167 408 167 425 142 c 0,34,35
 426 137 426 137 429.5 126.5 c 128,-1,36
 433 116 433 116 441 97 c 0,37,38
 449 73 449 73 468 38 c 1,39,40
 475 35 475 35 489 27 c 0,41,42
 508 13 508 13 519 13 c 0,43,44
 556 13 556 13 566 38 c 0,45,46
 570 46 570 46 570 67 c 0,47,48
 570 97 570 97 565 105 c 0,49,50
 562 109 562 109 555 119 c 0,51,52
 546 136 546 136 528 170 c 1,53,54
 520 176 520 176 507.5 192 c 128,-1,55
 495 208 495 208 492 220 c 0,56,57
 491 227 491 227 486 242 c 0,58,59
 481 247 481 247 473 258 c 0,60,61
 472 264 472 264 467 275 c 0,62,63
 461 280 461 280 453.5 293.5 c 128,-1,64
 446 307 446 307 446 336 c 0,65,66
 446 338 446 338 447 349 c 2,67,-1
 438 383 l 2,68,69
 435 387 435 387 429 396 c 0,70,71
 428 402 428 402 423 415 c 0,72,73
 418 421 418 421 410 435 c 0,74,75
 409 440 409 440 406 449 c 0,76,77
 400 457 400 457 392 475 c 0,78,79
 382 509 382 509 384 524 c 0,80,81
 382 532 382 532 378 549 c 1,82,83
 371 561 371 561 359 582 c 0,84,85
 356 588 356 588 343 656 c 0,86,87
 337 684 337 684 321 706 c 0,88,89
 316 710 316 710 310 719 c 0,90,91
 309 724 309 724 308 735 c 0,92,93
 307 739 307 739 305.5 745 c 128,-1,94
 304 751 304 751 302 763 c 0,95,96
 301 766 301 766 292 781 c 128,-1,97
 283 796 283 796 282 796.5 c 128,-1,98
 281 797 281 797 265 800 c 1,99,100
 222 775 222 775 214 732 c 0,101,102
 208 696 208 696 199 680 c 0,103,104
 193 672 193 672 184 655 c 0,105,106
 164 610 164 610 164 597 c 0,107,108
 164 589 164 589 152.5 570 c 128,-1,109
 141 551 141 551 139 543 c 0,110,111
 135 520 135 520 124 476 c 0,112,113
 120 463 120 463 104 444 c 0,114,115
 102 437 102 437 97 423 c 0,116,117
 97 420 97 420 95 413 c 128,-1,118
 93 406 93 406 89 392 c 2,119,-1
 88 390 l 2,120,121
 88 386 88 386 90.5 378.5 c 128,-1,122
 93 371 93 371 93 367 c 256,123,124
 93 363 93 363 93 354 c 0,125,126
 92 345 92 345 92 340.5 c 128,-1,127
 92 336 92 336 87 329 c 128,-1,128
 82 322 82 322 81.5 319 c 128,-1,129
 81 316 81 316 78.5 309.5 c 128,-1,130
 76 303 76 303 71 292 c 0,131,132
 71 283 71 283 68 267 c 1,133,134
 58 248 58 248 43 208 c 0,135,136
 42 203 42 203 40 192 c 0,137,138
 33 171 33 171 33 172 c 1,139,140
 33 169 33 169 34 163 c 0,141,142
 34 157 34 157 34 154 c 0,143,144
 34 150 34 150 31.5 142.5 c 128,-1,145
 29 135 29 135 29 131 c 128,-1,146
 29 127 29 127 27 117 c 0,147,148
 17 89 17 89 17 78 c 0,149,150
 17 72 17 72 12.5 60.5 c 128,-1,151
 8 49 8 49 8 43 c 0,152,153
 8 22 8 22 21 12 c 0,154,155
 22 11 22 11 53 4 c 0,156,157
 60 2 60 2 65 2 c 0,0,1
245 611 m 1,158,-1
 245 612 l 1,159,160
 249 612 249 612 255 610 c 0,161,162
 265 605 265 605 272.5 586 c 128,-1,163
 280 567 280 567 280 553 c 0,164,165
 280 550 280 550 278.5 544.5 c 128,-1,166
 277 539 277 539 277 536 c 1,167,168
 277 538 277 538 279 523 c 1,169,170
 279 525 279 525 279 509 c 1,171,172
 279 514 279 514 294 468 c 0,173,174
 295 457 295 457 297 438 c 0,175,176
 298 432 298 432 301 421 c 0,177,178
 311 386 311 386 333 352 c 0,179,180
 336 349 336 349 339 344 c 128,-1,181
 342 339 342 339 347 328 c 128,-1,182
 352 317 352 317 352 316 c 0,183,184
 352 313 352 313 345 306 c 0,185,186
 334 297 334 297 301 297 c 0,187,188
 297 297 297 297 290.5 295.5 c 128,-1,189
 284 294 284 294 281 294 c 0,190,191
 240 294 240 294 222 302 c 1,192,193
 211 302 211 302 190 298 c 1,194,195
 158 298 158 298 158 316 c 0,196,197
 158 328 158 328 169.5 349.5 c 128,-1,198
 181 371 181 371 183 380 c 0,199,200
 188 404 188 404 188 417 c 0,201,202
 188 426 188 426 189 444 c 0,203,204
 192 449 192 449 197 461 c 0,205,206
 198 466 198 466 200 476 c 0,207,208
 202 482 202 482 206 495 c 0,209,210
 208 504 208 504 210 531 c 0,211,212
 213 539 213 539 218 554 c 0,213,214
 218 560 218 560 219 570 c 0,215,216
 220 576 220 576 230.5 592 c 128,-1,217
 241 608 241 608 245 611 c 1,158,-1
EndSplineSet
Validated: 37
EndChar

StartChar: b
Encoding: 98 98 39
Width: 547
Flags: W
LayerCount: 2
Fore
SplineSet
429 509 m 0,0,1
 429 524 429 524 456 562 c 0,2,3
 457 564 457 564 468.5 605 c 128,-1,4
 480 646 480 646 480 649 c 0,5,6
 480 656 480 656 476 683 c 0,7,8
 475 684 475 684 468 701 c 128,-1,9
 461 718 461 718 459 720 c 128,-1,10
 457 722 457 722 452 727 c 128,-1,11
 447 732 447 732 438 740 c 0,12,13
 433 742 433 742 422 746 c 0,14,15
 416 749 416 749 404 753 c 0,16,17
 396 753 396 753 380 755 c 0,18,19
 368 757 368 757 369 757 c 1,20,21
 366 757 366 757 360 756 c 128,-1,22
 354 755 354 755 351 755 c 0,23,24
 336 755 336 755 324 759 c 1,25,26
 313 758 313 758 312 758 c 0,27,28
 307 758 307 758 299.5 762.5 c 128,-1,29
 292 767 292 767 287 767 c 0,30,31
 284 767 284 767 282 766 c 0,32,33
 279 766 279 766 273 766 c 0,34,35
 267 765 267 765 264 765 c 0,36,37
 256 765 256 765 236 774.5 c 128,-1,38
 216 784 216 784 207 786 c 1,39,-1
 202 784 l 1,40,41
 189 784 189 784 138 762 c 0,42,43
 132 762 132 762 120 762 c 0,44,45
 109 763 109 763 103 763 c 0,46,47
 49 763 49 763 29 729 c 0,48,49
 27 725 27 725 24 717 c 0,50,51
 16 695 16 695 16 689 c 0,52,53
 16 681 16 681 20.5 665 c 128,-1,54
 25 649 25 649 25 641 c 0,55,56
 25 632 25 632 22 614.5 c 128,-1,57
 19 597 19 597 19 588 c 0,58,59
 19 586 19 586 20 582 c 128,-1,60
 21 578 21 578 21 576 c 0,61,62
 21 572 21 572 20 565 c 128,-1,63
 19 558 19 558 19 554 c 0,64,65
 19 551 19 551 20.5 547 c 128,-1,66
 22 543 22 543 22 541 c 0,67,68
 22 531 22 531 22 511 c 0,69,70
 22 509 22 509 23 505 c 128,-1,71
 24 501 24 501 24 499 c 0,72,73
 24 492 24 492 23 478 c 128,-1,74
 22 464 22 464 22 457 c 256,75,76
 22 450 22 450 24 438 c 128,-1,77
 26 426 26 426 26 422 c 1,78,79
 26 430 26 430 24 393 c 0,80,81
 23 387 23 387 20.5 375 c 128,-1,82
 18 363 18 363 18 357 c 256,83,84
 18 351 18 351 20 340 c 128,-1,85
 22 329 22 329 22 324 c 0,86,87
 22 321 22 321 21 317 c 128,-1,88
 20 313 20 313 20 311 c 256,89,90
 20 309 20 309 21 305.5 c 128,-1,91
 22 302 22 302 22 301 c 0,92,93
 22 295 22 295 21 284 c 0,94,95
 21 273 21 273 21 267 c 0,96,97
 21 263 21 263 23.5 255.5 c 128,-1,98
 26 248 26 248 26 245 c 0,99,100
 26 221 26 221 29 174 c 0,101,102
 32 143 32 143 32 148 c 1,103,104
 32 144 32 144 30.5 134.5 c 128,-1,105
 29 125 29 125 29 121 c 0,106,107
 29 119 29 119 29 114 c 0,108,109
 30 110 30 110 30 108 c 0,110,111
 30 105 30 105 27.5 98 c 128,-1,112
 25 91 25 91 25 87 c 0,113,114
 25 82 25 82 26 73 c 128,-1,115
 27 64 27 64 27 60 c 0,116,117
 27 41 27 41 52.5 18.5 c 128,-1,118
 78 -4 78 -4 97 -4 c 0,119,120
 108 -4 108 -4 127.5 5 c 128,-1,121
 147 14 147 14 158 14 c 0,122,123
 165 14 165 14 178.5 10.5 c 128,-1,124
 192 7 192 7 199 7 c 2,125,-1
 211 7 l 2,126,127
 246 7 246 7 268.5 17.5 c 128,-1,128
 291 28 291 28 315 39 c 0,129,130
 324 40 324 40 342 44 c 0,131,132
 351 46 351 46 372 54 c 0,133,134
 381 56 381 56 398 63 c 0,135,136
 402 68 402 68 410 77 c 1,137,138
 419 80 419 80 434 90 c 0,139,140
 454 107 454 107 472 137 c 0,141,142
 480 144 480 144 492 160 c 0,143,144
 512 199 512 199 517 248 c 0,145,146
 518 251 518 251 518 272 c 0,147,148
 518 288 518 288 521 315.5 c 128,-1,149
 524 343 524 343 525 334 c 2,150,-1
 525 336 l 2,151,152
 522 345 522 345 516 363 c 0,153,154
 515 370 515 370 512 384 c 0,155,156
 507 391 507 391 497 405 c 0,157,158
 481 428 481 428 472 445 c 0,159,160
 470 452 470 452 463 464 c 0,161,162
 460 466 460 466 454 470 c 0,163,164
 429 490 429 490 429 509 c 0,0,1
113 510 m 1,165,166
 113 535 113 535 114 545 c 0,167,168
 117 566 117 566 117 566 c 2,169,170
 117 570 117 570 115.5 578 c 128,-1,171
 114 586 114 586 114 590 c 0,172,173
 114 638 114 638 125.5 649 c 128,-1,174
 137 660 137 660 188 663 c 0,175,176
 209 664 209 664 205 664 c 0,177,178
 197 664 197 664 222 662 c 1,179,180
 218 662 218 662 239 662 c 0,181,182
 243 662 243 662 249 661 c 128,-1,183
 255 660 255 660 259 660 c 0,184,185
 265 660 265 660 277 662 c 128,-1,186
 289 664 289 664 295 664 c 0,187,188
 299 664 299 664 306 661.5 c 128,-1,189
 313 659 313 659 316 659 c 0,190,191
 333 658 333 658 361 652 c 1,192,193
 379 642 379 642 384 632 c 0,194,195
 386 628 386 628 386 622 c 0,196,197
 386 601 386 601 375 573 c 128,-1,198
 364 545 364 545 350 532 c 0,199,200
 341 528 341 528 324 520 c 0,201,202
 321 518 321 518 308 509 c 1,203,204
 297 508 297 508 296 508 c 0,205,206
 293 508 293 508 287 509.5 c 128,-1,207
 281 511 281 511 278 511 c 0,208,209
 265 511 265 511 259 508 c 0,210,211
 250 508 250 508 243 503 c 0,212,213
 235 502 235 502 216 502 c 0,214,215
 207 502 207 502 200.5 496.5 c 128,-1,216
 194 491 194 491 188 485 c 0,217,218
 158 465 158 465 146 465 c 0,219,220
 128 465 128 465 123 469.5 c 128,-1,221
 118 474 118 474 115.5 493.5 c 128,-1,222
 113 513 113 513 113 510 c 1,165,166
304 140 m 0,223,224
 302 140 302 140 298 141 c 0,225,226
 294 141 294 141 293 141 c 0,227,228
 280 141 280 141 265 132 c 1,229,230
 257 132 257 132 241 131 c 0,231,232
 239 130 239 130 235 129 c 128,-1,233
 231 128 231 128 229 128 c 0,234,235
 225 128 225 128 218.5 130.5 c 128,-1,236
 212 133 212 133 209 133 c 256,237,238
 206 133 206 133 203.5 132.5 c 128,-1,239
 201 132 201 132 195 130 c 128,-1,240
 189 128 189 128 185 128 c 2,241,242
 185 128 185 128 177 130 c 0,243,244
 156 135 156 135 150.5 139 c 128,-1,245
 145 143 145 143 137.5 160.5 c 128,-1,246
 130 178 130 178 130 189 c 0,247,248
 130 192 130 192 131 197 c 128,-1,249
 132 202 132 202 132 205 c 256,250,251
 132 208 132 208 130.5 215.5 c 128,-1,252
 129 223 129 223 129 226 c 256,253,254
 129 229 129 229 130 233.5 c 128,-1,255
 131 238 131 238 131 240 c 256,256,257
 131 242 131 242 130 245 c 128,-1,258
 129 248 129 248 129 249 c 0,259,260
 129 251 129 251 129 254 c 128,-1,261
 129 257 129 257 129 259 c 0,262,263
 129 263 129 263 127.5 271.5 c 128,-1,264
 126 280 126 280 126 285 c 0,265,266
 126 333 126 333 136 344 c 0,267,268
 143 351 143 351 178 357 c 0,269,270
 226 365 226 365 226 365 c 2,271,272
 252 373 252 373 248 373 c 1,273,274
 253 373 253 373 260.5 369 c 128,-1,275
 268 365 268 365 272 365 c 0,276,277
 280 365 280 365 286.5 371.5 c 128,-1,278
 293 378 293 378 299 384 c 0,279,280
 305 385 305 385 314 387 c 1,281,282
 324 382 324 382 345 373 c 0,283,284
 378 360 378 360 420 338 c 0,285,286
 423 332 423 332 429 319 c 0,287,288
 437 303 437 303 437 290 c 0,289,290
 437 266 437 266 430 256 c 0,291,292
 425 250 425 250 417 239 c 0,293,294
 405 213 405 213 361 170 c 0,295,296
 351 165 351 165 335 156 c 0,297,298
 308 140 308 140 304 140 c 0,223,224
EndSplineSet
Validated: 5
EndChar

StartChar: c
Encoding: 99 99 40
Width: 561
Flags: W
LayerCount: 2
Fore
SplineSet
-2 351 m 0,0,1
 -2 349 -2 349 -1 345 c 0,2,3
 -1 341 -1 341 -1 339 c 128,-1,4
 -1 337 -1 337 -1 332 c 0,5,6
 -2 327 -2 327 -2 324 c 256,7,8
 -2 321 -2 321 0 313.5 c 128,-1,9
 2 306 2 306 2 303 c 0,10,11
 2 299 2 299 0.5 292.5 c 128,-1,12
 -1 286 -1 286 -1 282 c 0,13,14
 -1 268 -1 268 4 239 c 0,15,16
 9 231 9 231 15 214 c 2,17,-1
 21 174 l 2,18,19
 25 165 25 165 30 154 c 0,20,21
 32 150 32 150 36.5 143.5 c 128,-1,22
 41 137 41 137 48 120 c 0,23,24
 49 116 49 116 54 109 c 0,25,26
 63 103 63 103 82 89 c 0,27,28
 85 85 85 85 92 78 c 0,29,30
 108 68 108 68 139 52 c 0,31,32
 147 51 147 51 161 47 c 1,33,34
 172 39 172 39 195 29 c 0,35,36
 207 27 207 27 229 23 c 0,37,38
 233 22 233 22 259 15 c 0,39,40
 277 10 277 10 289 10 c 0,41,42
 336 10 336 10 372 26 c 0,43,44
 383 29 383 29 403 39 c 0,45,46
 409 45 409 45 422 57 c 0,47,48
 430 61 430 61 444 70 c 0,49,50
 446 73 446 73 453.5 81 c 128,-1,51
 461 89 461 89 477 107 c 0,52,53
 494 134 494 134 502 157 c 0,54,55
 504 163 504 163 508 175 c 0,56,57
 508 176 508 176 519 199 c 0,58,59
 526 214 526 214 526 223 c 0,60,61
 526 262 526 262 493 262 c 0,62,63
 473 262 473 262 454 217 c 0,64,65
 448 203 448 203 439 198 c 0,66,67
 426 192 426 192 422.5 187 c 128,-1,68
 419 182 419 182 413 172 c 0,69,70
 408 166 408 166 379 143 c 0,71,72
 375 143 375 143 367 144 c 0,73,74
 360 144 360 144 356 144 c 0,75,76
 329 144 329 144 315 134 c 0,77,78
 312 133 312 133 308 133 c 2,79,-1
 292 134 l 2,80,81
 289 134 289 134 275.5 140 c 128,-1,82
 262 146 262 146 255 143 c 1,83,84
 259 143 259 143 235 147 c 0,85,86
 228 147 228 147 212 151.5 c 128,-1,87
 196 156 196 156 167 186 c 0,88,89
 162 189 162 189 155 198 c 128,-1,90
 148 207 148 207 137 226 c 0,91,92
 131 230 131 230 123 241 c 0,93,94
 116 260 116 260 112 292 c 0,95,96
 109 317 109 317 106 343 c 0,97,98
 106 346 106 346 102 360 c 0,99,100
 99 371 99 371 99 376 c 256,101,102
 99 381 99 381 103 390 c 128,-1,103
 107 399 107 399 107.5 405.5 c 128,-1,104
 108 412 108 412 109 430 c 0,105,106
 109 432 109 432 110 437.5 c 128,-1,107
 111 443 111 443 111 446 c 256,108,109
 111 449 111 449 111 455 c 0,110,111
 110 460 110 460 110 463 c 0,112,113
 125 509 125 509 128 517 c 0,114,115
 132 522 132 522 136 533 c 0,116,117
 147 571 147 571 149 574 c 2,118,-1
 164 594 l 1,119,120
 165 602 165 602 171 616 c 0,121,122
 183 637 183 637 205 654 c 0,123,124
 209 656 209 656 215 661.5 c 128,-1,125
 221 667 221 667 230 677 c 1,126,127
 261 695 261 695 265 697 c 128,-1,128
 269 699 269 699 319 706 c 0,129,130
 323 707 323 707 332 709.5 c 128,-1,131
 341 712 341 712 346 712 c 0,132,133
 352 712 352 712 364 712 c 0,134,135
 375 711 375 711 381 711 c 128,-1,136
 387 711 387 711 398.5 707 c 128,-1,137
 410 703 410 703 415 703 c 0,138,139
 435 700 435 700 455 700 c 0,140,141
 478 700 478 700 496 710 c 0,142,143
 508 716 508 716 508 741 c 0,144,145
 508 742 508 742 503 758 c 0,146,147
 497 779 497 779 490 783 c 0,148,149
 477 786 477 786 463 789 c 0,150,151
 457 792 457 792 443 797 c 0,152,153
 433 799 433 799 399 799 c 1,154,155
 405 799 405 799 356 793 c 0,156,157
 351 793 351 793 341 792 c 0,158,159
 326 790 326 790 330 789 c 1,160,161
 283 795 283 795 289 795 c 1,162,163
 258 795 258 795 248 789 c 1,164,165
 230 789 230 789 196 755 c 0,166,167
 188 750 188 750 175 739 c 0,168,169
 170 731 170 731 158 718 c 0,170,171
 153 714 153 714 142 706 c 0,172,173
 104 672 104 672 99 659 c 0,174,175
 98 653 98 653 94 641 c 1,176,177
 83 631 83 631 69 611 c 1,178,179
 64 596 64 596 59 589 c 0,180,181
 54 575 54 575 46 547 c 0,182,183
 44 537 44 537 40 518 c 0,184,185
 35 509 35 509 26 493 c 1,186,187
 24 481 24 481 19 462 c 0,188,189
 16 456 16 456 11 445 c 0,190,191
 3 423 3 423 3 408 c 0,192,193
 3 406 3 406 4 400.5 c 128,-1,194
 5 395 5 395 5 392 c 0,195,196
 5 385 5 385 1.5 371.5 c 128,-1,197
 -2 358 -2 358 -2 351 c 0,0,1
EndSplineSet
Validated: 37
EndChar

StartChar: d
Encoding: 100 100 41
Width: 677
Flags: W
LayerCount: 2
Fore
SplineSet
102 1 m 0,0,1
 78 1 78 1 60 28 c 0,2,3
 56 33 56 33 50 45 c 0,4,5
 48 54 48 54 48 96 c 0,6,7
 48 101 48 101 49 115 c 0,8,9
 49 126 49 126 49 133 c 2,10,-1
 52 144 l 2,11,12
 51 154 51 154 51 157 c 0,13,14
 51 159 51 159 53 163.5 c 128,-1,15
 55 168 55 168 55 171 c 256,16,17
 55 174 55 174 52 183 c 2,18,19
 52 183 52 183 52 203 c 0,20,21
 52 207 52 207 49.5 215 c 128,-1,22
 47 223 47 223 47 227 c 0,23,24
 47 230 47 230 48 235 c 0,25,26
 48 241 48 241 48 245.5 c 128,-1,27
 48 250 48 250 48 262 c 0,28,29
 47 274 47 274 47 280 c 0,30,31
 47 282 47 282 47 286 c 0,32,33
 48 290 48 290 48 292 c 0,34,35
 48 303 48 303 45.5 323 c 128,-1,36
 43 343 43 343 42 351 c 0,37,38
 42 360 42 360 42 377 c 0,39,40
 41 381 41 381 39.5 390 c 128,-1,41
 38 399 38 399 38 403 c 0,42,43
 38 408 38 408 40.5 417.5 c 128,-1,44
 43 427 43 427 43 432 c 0,45,46
 43 435 43 435 41.5 442 c 128,-1,47
 40 449 40 449 40 452 c 0,48,49
 41 456 41 456 41 465 c 2,50,-1
 40 490 l 2,51,52
 40 485 40 485 43 508 c 0,53,54
 43 527 43 527 45 565 c 0,55,56
 50 626 50 626 50 635 c 0,57,58
 50 638 50 638 50 643 c 0,59,60
 49 649 49 649 49 652 c 0,61,62
 49 654 49 654 50 660 c 128,-1,63
 51 666 51 666 51 669 c 0,64,65
 51 675 51 675 48 687.5 c 128,-1,66
 45 700 45 700 45 707 c 0,67,68
 45 709 45 709 47 722 c 0,69,70
 55 772 55 772 82 773 c 1,71,72
 91 780 91 780 134 782 c 0,73,74
 137 783 137 783 150 784 c 1,75,-1
 156 787 l 1,76,-1
 173 787 l 2,77,78
 239 786 239 786 260 789 c 0,79,80
 268 790 268 790 266 790 c 1,81,82
 273 790 273 790 290 787 c 128,-1,83
 307 784 307 784 314 784 c 0,84,85
 352 785 352 785 352 785 c 2,86,87
 358 784 358 784 365 782 c 0,88,89
 368 781 368 781 379 781 c 0,90,91
 395 781 395 781 395 781 c 2,92,93
 397 781 397 781 401.5 780 c 128,-1,94
 406 779 406 779 409 779 c 2,95,96
 409 779 409 779 422 780 c 0,97,98
 425 781 425 781 440 782 c 0,99,100
 442 783 442 783 445 783 c 0,101,102
 460 783 460 783 502 769 c 0,103,104
 516 768 516 768 551 757 c 0,105,106
 575 746 575 746 592 725 c 0,107,108
 595 720 595 720 603 710 c 0,109,110
 608 705 608 705 618 693 c 0,111,112
 620 686 620 686 625 674 c 0,113,114
 627 670 627 670 631 662 c 0,115,116
 642 635 642 635 642 596 c 0,117,118
 642 592 642 592 639.5 584 c 128,-1,119
 637 576 637 576 636 573 c 0,120,121
 634 555 634 555 633 545 c 0,122,123
 634 537 634 537 633 525 c 0,124,125
 630 515 630 515 624 496 c 0,126,127
 623 491 623 491 623 481 c 0,128,129
 622 480 622 480 613.5 450 c 128,-1,130
 605 420 605 420 604 419 c 2,131,-1
 588 390 l 2,132,133
 584 385 584 385 576 376 c 0,134,135
 573 369 573 369 568 356 c 0,136,137
 550 325 550 325 503 263 c 0,138,139
 500 258 500 258 495 248 c 1,140,141
 489 245 489 245 479 236 c 0,142,143
 475 231 475 231 464 221 c 0,144,145
 455 216 455 216 452 206 c 0,146,147
 447 193 447 193 445 189 c 0,148,149
 433 179 433 179 411 157 c 1,150,-1
 401 143 l 2,151,152
 397 140 397 140 391 135 c 0,153,154
 379 121 379 121 345 93 c 0,155,156
 340 87 340 87 327 78 c 0,157,158
 316 74 316 74 295 65 c 0,159,160
 279 56 279 56 254 46 c 1,161,162
 221 41 221 41 192 32 c 0,163,164
 186 29 186 29 174 25 c 128,-1,165
 162 21 162 21 141 14 c 0,166,167
 104 1 104 1 102 1 c 0,0,1
311 672 m 0,168,169
 308 672 308 672 300 671 c 0,170,171
 293 671 293 671 290 671 c 128,-1,172
 287 671 287 671 282 671 c 0,173,174
 278 672 278 672 275 672 c 0,175,176
 273 672 273 672 269 671 c 128,-1,177
 265 670 265 670 263 670 c 0,178,179
 260 670 260 670 254 672 c 128,-1,180
 248 674 248 674 245 674 c 0,181,182
 240 674 240 674 231 674 c 0,183,184
 222 673 222 673 217 673 c 0,185,186
 208 673 208 673 200 675 c 0,187,188
 197 674 197 674 177 669 c 0,189,190
 142 661 142 661 142 609 c 0,191,192
 142 604 142 604 144.5 594.5 c 128,-1,193
 147 585 147 585 147 580 c 0,194,195
 147 574 147 574 146 561 c 0,196,197
 146 548 146 548 146 542.5 c 128,-1,198
 146 537 146 537 146 526 c 0,199,200
 147 515 147 515 147 509 c 0,201,202
 147 506 147 506 146 499.5 c 128,-1,203
 145 493 145 493 145 489 c 0,204,205
 145 478 145 478 147 460 c 0,206,207
 148 439 148 439 149 432 c 0,208,209
 149 427 149 427 149 420 c 0,210,211
 148 411 148 411 148 408 c 0,212,213
 148 397 148 397 150.5 375.5 c 128,-1,214
 153 354 153 354 153 343 c 0,215,216
 153 338 153 338 151 326.5 c 128,-1,217
 149 315 149 315 149 310 c 256,218,219
 149 305 149 305 150.5 296 c 128,-1,220
 152 287 152 287 152 284 c 0,221,222
 153 267 153 267 156 182 c 0,223,224
 155 171 155 171 160 152 c 1,225,226
 171 133 171 133 196 133 c 0,227,228
 202 133 202 133 212.5 137 c 128,-1,229
 223 141 223 141 228 141 c 0,230,231
 239 148 239 148 262 160 c 0,232,233
 266 161 266 161 274 164 c 0,234,235
 278 166 278 166 292 178 c 0,236,237
 306 187 306 187 330 203 c 0,238,239
 334 204 334 204 343.5 207 c 128,-1,240
 353 210 353 210 358.5 223 c 128,-1,241
 364 236 364 236 378 251 c 0,242,243
 397 271 397 271 401 276 c 0,244,245
 405 285 405 285 413 301 c 1,246,247
 424 311 424 311 436 323 c 1,248,249
 444 338 444 338 462 366 c 0,250,251
 466 369 466 369 472 377 c 2,252,-1
 483 397 l 2,253,254
 487 400 487 400 493 407 c 0,255,256
 495 413 495 413 500 424 c 0,257,258
 504 432 504 432 515 455 c 2,259,-1
 527 479 l 2,260,261
 529 491 529 491 531 511 c 0,262,263
 531 514 531 514 534 520.5 c 128,-1,264
 537 527 537 527 537 531 c 0,265,266
 537 534 537 534 536 539.5 c 128,-1,267
 535 545 535 545 535 547 c 0,268,269
 532 579 532 579 528 592 c 0,270,271
 522 615 522 615 505 629 c 0,272,273
 497 636 497 636 454 647 c 0,274,275
 418 657 418 657 399 659 c 0,276,277
 393 662 393 662 381 666 c 0,278,279
 359 672 359 672 311 672 c 0,168,169
EndSplineSet
Validated: 37
EndChar

StartChar: e
Encoding: 101 101 42
Width: 621
Flags: W
LayerCount: 2
Fore
SplineSet
140 168 m 2,0,-1
 140 169 l 1,1,2
 150 142 150 142 202 142 c 0,3,4
 206 142 206 142 213 144.5 c 128,-1,5
 220 147 220 147 224 148 c 0,6,7
 242 148 242 148 277 149 c 0,8,9
 281 151 281 151 286 151 c 0,10,11
 292 151 292 151 302 149.5 c 128,-1,12
 312 148 312 148 317 148 c 2,13,-1
 335 148 l 2,14,15
 338 149 338 149 364 149 c 0,16,17
 368 151 368 151 410 151 c 0,18,19
 416 151 416 151 427 149 c 128,-1,20
 438 147 438 147 444 147 c 0,21,22
 448 149 448 149 454 149 c 1,23,24
 446 149 446 149 503 147 c 0,25,26
 505 148 505 148 507 148 c 0,27,28
 524 148 524 148 543 136 c 0,29,30
 549 135 549 135 559 131 c 1,31,32
 567 120 567 120 575 109.5 c 128,-1,33
 583 99 583 99 583 85 c 0,34,35
 583 62 583 62 555 35 c 0,36,37
 545 25 545 25 518 25 c 0,38,39
 513 25 513 25 502 25 c 0,40,41
 491 26 491 26 486 26 c 256,42,43
 481 26 481 26 472 24.5 c 128,-1,44
 463 23 463 23 459 23 c 0,45,46
 456 23 456 23 449 24 c 0,47,48
 443 24 443 24 439 24 c 0,49,50
 415 24 415 24 387.5 17.5 c 128,-1,51
 360 11 360 11 299 11 c 0,52,53
 293 11 293 11 283 11 c 0,54,55
 271 12 271 12 267 13 c 0,56,57
 264 13 264 13 259 12 c 0,58,59
 253 12 253 12 251 12 c 0,60,61
 243 12 243 12 229 12 c 0,62,63
 213 13 213 13 206 13 c 0,64,65
 194 12 194 12 170 13 c 0,66,67
 146 15 146 15 122 17 c 0,68,69
 95 20 95 20 79.5 36 c 128,-1,70
 64 52 64 52 64 63 c 2,71,-1
 64 86 l 2,72,73
 64 89 64 89 60.5 102.5 c 128,-1,74
 57 116 57 116 57 119 c 0,75,76
 57 145 57 145 68 179 c 0,77,78
 68 188 68 188 66 204 c 0,79,80
 63 214 63 214 58 234 c 128,-1,81
 53 254 53 254 53 289 c 0,82,83
 53 292 53 292 57 300.5 c 128,-1,84
 61 309 61 309 61 315 c 0,85,86
 61 327 61 327 54 341 c 128,-1,87
 47 355 47 355 47 363 c 0,88,89
 47 369 47 369 48.5 380 c 128,-1,90
 50 391 50 391 50 396 c 0,91,92
 50 399 50 399 49 404 c 128,-1,93
 48 409 48 409 48 412 c 0,94,95
 48 414 48 414 49 418.5 c 128,-1,96
 50 423 50 423 50 425 c 2,97,98
 50 425 50 425 50 443 c 0,99,100
 50 446 50 446 47 452 c 128,-1,101
 44 458 44 458 44 462 c 0,102,103
 44 468 44 468 50.5 482 c 128,-1,104
 57 496 57 496 57 504 c 128,-1,105
 57 512 57 512 59.5 523 c 128,-1,106
 62 534 62 534 62 540 c 0,107,108
 62 544 62 544 56.5 556.5 c 128,-1,109
 51 569 51 569 51 575 c 0,110,111
 51 578 51 578 52 585 c 0,112,113
 52 592 52 592 52 595 c 256,114,115
 52 598 52 598 50.5 603 c 128,-1,116
 49 608 49 608 49 610 c 0,117,118
 49 615 49 615 50.5 624.5 c 128,-1,119
 52 634 52 634 52 638 c 0,120,121
 52 652 52 652 45 661 c 0,122,123
 35 672 35 672 34 676 c 0,124,125
 29 691 29 691 29 711 c 0,126,127
 29 780 29 780 71 781 c 0,128,129
 77 785 77 785 89.5 785 c 128,-1,130
 102 785 102 785 108 787 c 0,131,132
 124 784 124 784 168 784 c 0,133,134
 175 784 175 784 193 783 c 0,135,136
 209 783 209 783 218 783 c 2,137,-1
 228 783 l 1,138,139
 234 787 234 787 294 787 c 0,140,141
 323 787 323 787 367 782 c 0,142,143
 371 782 371 782 379 784 c 128,-1,144
 387 786 387 786 390 786 c 2,145,-1
 416 787 l 2,146,147
 419 787 419 787 426 788.5 c 128,-1,148
 433 790 433 790 436 790 c 256,149,150
 439 790 439 790 446 789 c 0,151,152
 453 789 453 789 456 789 c 0,153,154
 460 790 460 790 464 790 c 0,155,156
 467 790 467 790 472 790 c 0,157,158
 478 789 478 789 480 789 c 0,159,160
 483 789 483 789 488.5 790 c 128,-1,161
 494 791 494 791 497 791 c 0,162,163
 499 791 499 791 517 780 c 0,164,165
 524 780 524 780 533 777 c 0,166,167
 563 757 563 757 563 728 c 0,168,169
 563 725 563 725 562 719 c 128,-1,170
 561 713 561 713 561 710 c 0,171,172
 561 690 561 690 555.5 681.5 c 128,-1,173
 550 673 550 673 533 665 c 0,174,175
 528 663 528 663 521 663 c 0,176,177
 518 663 518 663 512 664 c 0,178,179
 506 664 506 664 503 664 c 0,180,181
 498 664 498 664 487 663 c 128,-1,182
 476 662 476 662 471 662 c 0,183,184
 468 662 468 662 462 662 c 0,185,186
 455 663 455 663 452 663 c 0,187,188
 443 662 443 662 427 663 c 0,189,190
 386 667 386 667 346 667 c 0,191,192
 342 667 342 667 333 665.5 c 128,-1,193
 324 664 324 664 320 664 c 0,194,195
 307 664 307 664 283 668 c 0,196,197
 267 671 267 671 270 671 c 1,198,199
 265 671 265 671 255.5 668.5 c 128,-1,200
 246 666 246 666 241 666 c 0,201,202
 238 666 238 666 232 667 c 128,-1,203
 226 668 226 668 223 668 c 0,204,205
 203 668 203 668 173 662 c 0,206,207
 137 654 137 654 129.5 644 c 128,-1,208
 122 634 122 634 122 587 c 0,209,210
 122 520 122 520 131 504 c 0,211,212
 145 476 145 476 205 476 c 0,213,214
 212 476 212 476 225 478 c 128,-1,215
 238 480 238 480 245 480 c 0,216,217
 250 480 250 480 262 479 c 0,218,219
 273 479 273 479 278 479 c 1,220,221
 271 479 271 479 294 481 c 0,222,223
 305 481 305 481 327 483 c 0,224,225
 331 486 331 486 348 486 c 0,226,227
 351 487 351 487 356 487 c 0,228,229
 375 487 375 487 384 486 c 0,230,231
 397 484 397 484 423 480 c 0,232,233
 429 480 429 480 440 480 c 0,234,235
 452 481 452 481 456 481 c 256,236,237
 460 481 460 481 468.5 480 c 128,-1,238
 477 479 477 479 481 479 c 0,239,240
 484 479 484 479 491.5 480.5 c 128,-1,241
 499 482 499 482 502 482 c 0,242,243
 509 482 509 482 527 473 c 0,244,245
 537 469 537 469 547 464 c 128,-1,246
 557 459 557 459 562 446 c 0,247,248
 568 430 568 430 568 417 c 0,249,250
 568 391 568 391 537 382 c 1,251,252
 526 374 526 374 502 361 c 0,253,254
 493 358 493 358 448 356 c 0,255,256
 444 356 444 356 434 353.5 c 128,-1,257
 424 351 424 351 419 351 c 0,258,259
 413 351 413 351 403 353 c 0,260,261
 390 356 390 356 386 356 c 0,262,263
 376 358 376 358 355 358 c 0,264,265
 354 358 354 358 350 359 c 128,-1,266
 346 360 346 360 345 360 c 0,267,268
 335 360 335 360 317 360 c 2,269,270
 317 360 317 360 271 367 c 0,271,272
 268 368 268 368 221 360 c 0,273,274
 205 360 205 360 180 357 c 0,275,276
 162 352 162 352 159 350.5 c 128,-1,277
 156 349 156 349 143 337 c 1,278,279
 154 272 154 272 154 273 c 1,280,281
 154 266 154 266 150 253 c 128,-1,282
 146 240 146 240 146 233 c 0,283,284
 146 230 146 230 147.5 223.5 c 128,-1,285
 149 217 149 217 149 214 c 256,286,287
 149 211 149 211 144 196 c 128,-1,288
 139 181 139 181 139 173 c 0,289,290
 139 170 139 170 140 168 c 2,0,-1
EndSplineSet
Validated: 37
EndChar

StartChar: f
Encoding: 102 102 43
Width: 580
Flags: W
LayerCount: 2
Fore
SplineSet
449 656 m 0,0,1
 443 656 443 656 426.5 659.5 c 128,-1,2
 410 663 410 663 409 663 c 2,3,-1
 380 660 l 2,4,5
 378 660 378 660 375 662 c 0,6,7
 365 666 365 666 351 667 c 0,8,9
 302 672 302 672 264 672 c 2,10,-1
 213 672 l 2,11,12
 212 672 212 672 192 668 c 1,13,14
 196 669 196 669 178 669 c 0,15,16
 129 669 129 669 129 611 c 0,17,18
 129 609 129 609 130 604.5 c 128,-1,19
 131 600 131 600 131 598 c 0,20,21
 135 556 135 556 135 533 c 0,22,23
 133 526 133 526 131 518 c 2,24,-1
 131 499 l 2,25,26
 131 494 131 494 131 485 c 0,27,28
 132 476 132 476 144.5 465.5 c 128,-1,29
 157 455 157 455 166 455 c 0,30,31
 170 455 170 455 178.5 455 c 128,-1,32
 187 455 187 455 192 455 c 0,33,34
 196 455 196 455 207.5 450.5 c 128,-1,35
 219 446 219 446 227 446 c 0,36,37
 232 446 232 446 240 447 c 0,38,39
 243 449 243 449 280 452 c 0,40,41
 283 453 283 453 287 453 c 0,42,43
 290 453 290 453 296.5 452 c 128,-1,44
 303 451 303 451 306 451 c 0,45,46
 323 451 323 451 344 455 c 0,47,48
 352 460 352 460 370 460 c 0,49,50
 439 460 439 460 460 451 c 0,51,52
 464 449 464 449 475 435 c 0,53,54
 489 415 489 415 489 405 c 0,55,56
 489 387 489 387 473.5 370 c 128,-1,57
 458 353 458 353 440 349 c 0,58,59
 433 347 433 347 414 347 c 0,60,61
 400 347 400 347 371.5 344 c 128,-1,62
 343 341 343 341 329 341 c 0,63,64
 324 341 324 341 314 342 c 128,-1,65
 304 343 304 343 299 343 c 0,66,67
 287 343 287 343 263.5 345 c 128,-1,68
 240 347 240 347 228 347 c 0,69,70
 224 347 224 347 215 346 c 128,-1,71
 206 345 206 345 201 345 c 256,72,73
 196 345 196 345 184.5 347 c 128,-1,74
 173 349 173 349 167 349 c 0,75,76
 156 349 156 349 145.5 342 c 128,-1,77
 135 335 135 335 135 324 c 0,78,79
 135 318 135 318 136.5 304 c 128,-1,80
 138 290 138 290 138 283 c 1,81,82
 138 289 138 289 136 251 c 0,83,84
 135 242 135 242 135 196 c 0,85,86
 137 189 137 189 138.5 179 c 128,-1,87
 140 169 140 169 141 147 c 0,88,89
 142 142 142 142 144.5 128.5 c 128,-1,90
 147 115 147 115 147 108 c 0,91,92
 147 105 147 105 145.5 98.5 c 128,-1,93
 144 92 144 92 144 89 c 2,94,-1
 144 68 l 2,95,96
 144 74 144 74 134 48 c 0,97,98
 122 19 122 19 97 16 c 0,99,100
 76 13 76 13 78 13 c 1,101,102
 71 13 71 13 63 19 c 0,103,104
 61 20 61 20 56 24 c 0,105,106
 46 32 46 32 46 67 c 0,107,108
 46 76 46 76 47 92.5 c 128,-1,109
 48 109 48 109 48 117 c 0,110,111
 48 134 48 134 47 146 c 0,112,113
 47 150 47 150 45.5 158 c 128,-1,114
 44 166 44 166 44 171 c 0,115,116
 44 172 44 172 48 190 c 0,117,118
 52 205 52 205 52 234 c 0,119,120
 52 245 52 245 49.5 266 c 128,-1,121
 47 287 47 287 47 298 c 0,122,123
 47 301 47 301 48 307 c 128,-1,124
 49 313 49 313 49 317 c 0,125,126
 49 319 49 319 48 324 c 128,-1,127
 47 329 47 329 47 331 c 0,128,129
 46 338 46 338 44 359 c 0,130,131
 42 376 42 376 42 387 c 0,132,133
 42 399 42 399 44 422 c 128,-1,134
 46 445 46 445 46 457 c 0,135,136
 46 458 46 458 43 475 c 0,137,138
 44 479 44 479 44 487 c 2,139,-1
 42 520 l 2,140,141
 42 523 42 523 43 530 c 128,-1,142
 44 537 44 537 44 540 c 0,143,144
 44 544 44 544 42.5 552.5 c 128,-1,145
 41 561 41 561 41 565 c 0,146,147
 41 567 41 567 42 571.5 c 128,-1,148
 43 576 43 576 43 578 c 2,149,-1
 41 602 l 2,150,151
 42 594 42 594 44 619 c 0,152,153
 47 652 47 652 47 662 c 0,154,155
 47 665 47 665 46 671.5 c 128,-1,156
 45 678 45 678 45 682 c 0,157,158
 45 683 45 683 45 687 c 0,159,160
 46 690 46 690 46 692 c 0,161,162
 45 708 45 708 45 708 c 2,163,164
 45 711 45 711 46 717 c 128,-1,165
 47 723 47 723 48 725 c 0,166,167
 48 734 48 734 49 751 c 0,168,169
 54 800 54 800 93 800 c 0,170,171
 98 800 98 800 101 798.5 c 128,-1,172
 104 797 104 797 108 790.5 c 128,-1,173
 112 784 112 784 131 774.5 c 128,-1,174
 150 765 150 765 158 765 c 1,175,176
 150 765 150 765 179 766 c 1,177,178
 190 774 190 774 207 775 c 0,179,180
 216 776 216 776 234 779 c 0,181,182
 249 782 249 782 249 782 c 2,183,184
 256 782 256 782 268 779 c 128,-1,185
 280 776 280 776 286 776 c 0,186,187
 293 776 293 776 306.5 777 c 128,-1,188
 320 778 320 778 326 778 c 0,189,190
 349 778 349 778 367 776 c 0,191,192
 372 774 372 774 383 772 c 0,193,194
 419 771 419 771 458 771 c 2,195,196
 458 771 458 771 470 771 c 0,197,198
 475 771 475 771 480 771 c 0,199,200
 490 769 490 769 504 769 c 0,201,202
 533 769 533 769 541 747 c 0,203,204
 548 731 548 731 548 729 c 0,205,206
 548 720 548 720 543 708 c 0,207,208
 541 703 541 703 528 692 c 0,209,210
 489 656 489 656 449 656 c 0,0,1
EndSplineSet
Validated: 33
EndChar

StartChar: g
Encoding: 103 103 44
Width: 607
Flags: W
LayerCount: 2
Fore
SplineSet
42 359 m 0,0,1
 42 351 42 351 38 339 c 0,2,3
 33 324 33 324 32.5 319 c 128,-1,4
 32 314 32 314 30 303 c 128,-1,5
 28 292 28 292 28 294 c 1,6,7
 28 288 28 288 32 280 c 0,8,9
 36 269 36 269 37 266 c 0,10,11
 38 257 38 257 41 241 c 0,12,13
 42 237 42 237 44 230 c 2,14,15
 44 230 44 230 44 209 c 0,16,17
 44 206 44 206 53 176.5 c 128,-1,18
 62 147 62 147 64.5 143 c 128,-1,19
 67 139 67 139 72 131 c 0,20,21
 83 108 83 108 114 66 c 0,22,23
 120 62 120 62 130.5 54.5 c 128,-1,24
 141 47 141 47 163 31 c 0,25,26
 166 29 166 29 190 25 c 0,27,28
 217 17 217 17 271 2 c 0,29,30
 289 1 289 1 325 -3 c 0,31,32
 329 -3 329 -3 338 -6.5 c 128,-1,33
 347 -10 347 -10 352 -10 c 0,34,35
 353 -10 353 -10 368 -8 c 0,36,37
 394 -3 394 -3 396 -3 c 0,38,39
 407 0 407 0 422 9 c 0,40,41
 429 12 429 12 443 19 c 0,42,43
 452 25 452 25 486 75 c 0,44,45
 491 84 491 84 511 104 c 0,46,47
 516 107 516 107 526 114 c 0,48,49
 539 126 539 126 547 148 c 0,50,51
 548 153 548 153 551 161 c 0,52,53
 555 165 555 165 560 174 c 0,54,55
 568 188 568 188 568 224 c 0,56,57
 568 231 568 231 567 244 c 128,-1,58
 566 257 566 257 566 264 c 2,59,60
 566 264 566 264 575 301 c 1,61,62
 575 299 575 299 575 321 c 0,63,64
 575 332 575 332 577.5 353 c 128,-1,65
 580 374 580 374 580 384 c 1,66,67
 580 383 580 383 577 398 c 0,68,69
 573 417 573 417 571 422 c 0,70,71
 567 431 567 431 558 444 c 0,72,73
 551 454 551 454 547 454 c 0,74,75
 525 454 525 454 518.5 453 c 128,-1,76
 512 452 512 452 509 450 c 0,77,78
 489 450 489 450 476 442 c 1,79,80
 464 442 464 442 460 440 c 2,81,-1
 427 439 l 2,82,83
 424 439 424 439 417 438 c 0,84,85
 410 438 410 438 406 438 c 0,86,87
 404 438 404 438 384.5 431.5 c 128,-1,88
 365 425 365 425 363 423 c 0,89,90
 354 422 354 422 353 422 c 0,91,92
 349 422 349 422 341 424 c 128,-1,93
 333 426 333 426 329 426 c 0,94,95
 327 426 327 426 319 424.5 c 128,-1,96
 311 423 311 423 308 422 c 0,97,98
 299 421 299 421 278.5 413.5 c 128,-1,99
 258 406 258 406 245 406 c 0,100,101
 229 406 229 406 216 397 c 1,102,-1
 209 397 l 2,103,104
 205 398 205 398 202 396 c 0,105,106
 191 396 191 396 178 390 c 0,107,108
 172 390 172 390 158.5 388.5 c 128,-1,109
 145 387 145 387 138 387 c 0,110,111
 114 387 114 387 114 414 c 0,112,113
 114 423 114 423 117 437 c 0,114,115
 121 455 121 455 122 460 c 0,116,117
 122 473 122 473 125 496 c 1,118,119
 131 506 131 506 139 526.5 c 128,-1,120
 147 547 147 547 157 586 c 0,121,122
 161 598 161 598 172 623 c 0,123,124
 178 633 178 633 204 650 c 0,125,126
 211 658 211 658 229 671 c 0,127,128
 235 673 235 673 255 673 c 0,129,130
 267 673 267 673 274 677 c 0,131,132
 286 684 286 684 289 685 c 128,-1,133
 292 686 292 686 323 686 c 0,134,135
 328 686 328 686 337 688.5 c 128,-1,136
 346 691 346 691 351 691 c 0,137,138
 374 691 374 691 392 671.5 c 128,-1,139
 410 652 410 652 432 652 c 0,140,141
 471 652 471 652 471 706 c 0,142,143
 471 732 471 732 446 757 c 0,144,145
 442 760 442 760 434 768 c 0,146,147
 431 774 431 774 422 784 c 0,148,149
 416 785 416 785 404 789 c 0,150,151
 387 796 387 796 367 796 c 0,152,153
 343 796 343 796 335 790 c 1,154,155
 320 790 320 790 309 783 c 0,156,157
 307 783 307 783 301 783 c 0,158,159
 295 784 295 784 292 784 c 0,160,161
 287 784 287 784 284 783 c 0,162,163
 280 783 280 783 269 783 c 0,164,165
 259 784 259 784 254 784 c 0,166,167
 251 784 251 784 245 782.5 c 128,-1,168
 239 781 239 781 235 781 c 0,169,170
 234 781 234 781 229 782 c 0,171,172
 225 782 225 782 223 782 c 0,173,174
 205 782 205 782 183 764 c 0,175,176
 175 759 175 759 160 730 c 0,177,178
 153 723 153 723 140 709 c 0,179,180
 138 705 138 705 132 697 c 0,181,182
 128 693 128 693 121 685 c 0,183,184
 119 681 119 681 115 672 c 0,185,186
 104 653 104 653 82 613 c 0,187,188
 81 611 81 611 81 594 c 0,189,190
 81 586 81 586 76.5 573 c 128,-1,191
 72 560 72 560 71.5 555 c 128,-1,192
 71 550 71 550 69 541 c 0,193,194
 67 537 67 537 63 528 c 0,195,196
 63 521 63 521 61 509 c 0,197,198
 57 504 57 504 53 495 c 0,199,200
 46 473 46 473 46 449 c 0,201,202
 46 442 46 442 43.5 429 c 128,-1,203
 41 416 41 416 41 409 c 0,204,205
 41 401 41 401 41 384 c 0,206,207
 42 368 42 368 42 359 c 0,0,1
227 300 m 0,208,209
 230 300 230 300 234.5 299 c 128,-1,210
 239 298 239 298 242 298 c 0,211,212
 244 298 244 298 249 299.5 c 128,-1,213
 254 301 254 301 256 301 c 0,214,215
 271 303 271 303 302 307 c 0,216,217
 316 308 316 308 345 311 c 0,218,219
 356 311 356 311 376 313 c 0,220,221
 393 315 393 315 411 323 c 1,222,-1
 422 323 l 2,223,224
 461 323 461 323 469 309 c 1,225,226
 469 309 469 309 472 292 c 0,227,228
 475 281 475 281 475 279 c 0,229,230
 475 273 475 273 470 268 c 1,231,232
 473 246 473 246 473 244 c 0,233,234
 473 233 473 233 460 209 c 0,235,236
 458 200 458 200 450 183 c 1,237,238
 441 176 441 176 425 159 c 0,239,240
 420 150 420 150 407 137 c 0,241,242
 399 133 399 133 381 125 c 0,243,244
 373 125 373 125 358 119 c 0,245,246
 356 119 356 119 338 122 c 0,247,248
 324 124 324 124 319 122 c 0,249,250
 306 122 306 122 256 136 c 0,251,252
 249 137 249 137 236 139 c 0,253,254
 209 145 209 145 166 200 c 0,255,256
 162 204 162 204 155 211 c 0,257,258
 153 214 153 214 144 235.5 c 128,-1,259
 135 257 135 257 135 259 c 0,260,261
 135 271 135 271 153 279 c 0,262,263
 168 283 168 283 182 287 c 0,264,265
 225 300 225 300 227 300 c 0,208,209
EndSplineSet
Validated: 9
EndChar

StartChar: h
Encoding: 104 104 45
Width: 571
Flags: W
LayerCount: 2
Fore
SplineSet
525 200 m 0,0,1
 525 203 525 203 523.5 210.5 c 128,-1,2
 522 218 522 218 522 222 c 0,3,4
 522 229 522 229 523 243.5 c 128,-1,5
 524 258 524 258 524 265 c 2,6,-1
 524 286 l 2,7,8
 524 290 524 290 522.5 297 c 128,-1,9
 521 304 521 304 521 307 c 0,10,11
 521 311 521 311 522.5 318.5 c 128,-1,12
 524 326 524 326 524 330 c 0,13,14
 524 343 524 343 520.5 366.5 c 128,-1,15
 517 390 517 390 517 400 c 0,16,17
 517 409 517 409 518 427 c 128,-1,18
 519 445 519 445 519 454 c 0,19,20
 519 457 519 457 520 461.5 c 128,-1,21
 521 466 521 466 521 469 c 0,22,23
 521 474 521 474 519.5 484.5 c 128,-1,24
 518 495 518 495 518 500 c 0,25,26
 518 507 518 507 520.5 521.5 c 128,-1,27
 523 536 523 536 523 543 c 0,28,29
 523 579 523 579 519 595 c 0,30,31
 513 620 513 620 513 637 c 0,32,33
 513 641 513 641 514 648.5 c 128,-1,34
 515 656 515 656 515 660 c 0,35,36
 515 663 515 663 515 667.5 c 128,-1,37
 515 672 515 672 515 674 c 0,38,39
 515 679 515 679 517 689 c 128,-1,40
 519 699 519 699 519 705 c 0,41,42
 519 707 519 707 519 713 c 0,43,44
 518 719 518 719 518 721 c 0,45,46
 518 735 518 735 524.5 761.5 c 128,-1,47
 531 788 531 788 531 802 c 0,48,49
 531 818 531 818 526.5 827 c 128,-1,50
 522 836 522 836 507.5 847.5 c 128,-1,51
 493 859 493 859 484 860 c 1,52,53
 469 852 469 852 447 831 c 1,54,55
 438 813 438 813 438 757 c 0,56,57
 438 753 438 753 437 745.5 c 128,-1,58
 436 738 436 738 436 734 c 0,59,60
 436 729 436 729 437 718.5 c 128,-1,61
 438 708 438 708 438 703 c 1,62,63
 438 708 438 708 432 682 c 0,64,65
 428 663 428 663 428 644 c 0,66,67
 428 638 428 638 429 625.5 c 128,-1,68
 430 613 430 613 430 607 c 256,69,70
 430 601 430 601 428.5 590.5 c 128,-1,71
 427 580 427 580 427 574 c 0,72,73
 427 561 427 561 428 550 c 0,74,75
 428 548 428 548 429 544 c 0,76,77
 429 540 429 540 429 537 c 128,-1,78
 429 534 429 534 429 526 c 0,79,80
 428 518 428 518 428 514 c 1,81,82
 428 519 428 519 433 477 c 0,83,84
 436 448 436 448 436 398 c 0,85,86
 436 396 436 396 434.5 391 c 128,-1,87
 433 386 433 386 433 384 c 0,88,89
 433 381 433 381 434 376.5 c 128,-1,90
 435 372 435 372 435 369 c 0,91,92
 435 328 435 328 413 312 c 1,93,94
 404 311 404 311 385 307 c 1,95,-1
 363 309 l 2,96,97
 357 310 357 310 327 319 c 0,98,99
 314 321 314 321 284 331 c 0,100,101
 283 333 283 333 280 332.5 c 128,-1,102
 277 332 277 332 265 337 c 128,-1,103
 253 342 253 342 246 342 c 0,104,105
 238 342 238 342 233 339 c 0,106,107
 214 341 214 341 187 350 c 0,108,109
 180 350 180 350 168.5 351.5 c 128,-1,110
 157 353 157 353 148 367 c 0,111,112
 142 376 142 376 142 403 c 0,113,114
 142 416 142 416 138.5 440.5 c 128,-1,115
 135 465 135 465 135 477 c 0,116,117
 135 481 135 481 135 490 c 0,118,119
 136 499 136 499 136 503 c 0,120,121
 136 506 136 506 135 512.5 c 128,-1,122
 134 519 134 519 134 523 c 0,123,124
 134 529 134 529 135 543 c 0,125,126
 135 556 135 556 135 562 c 0,127,128
 135 565 135 565 136 571 c 0,129,130
 136 577 136 577 136 579 c 1,131,132
 136 573 136 573 135 591 c 0,133,134
 133 602 133 602 133 628 c 0,135,136
 133 661 133 661 150 689 c 1,137,138
 156 736 156 736 156 729 c 1,139,140
 156 760 156 760 148 773 c 0,141,142
 144 776 144 776 135 784 c 0,143,144
 124 796 124 796 116 796 c 0,145,146
 104 796 104 796 92 780 c 0,147,148
 85 766 85 766 77 753 c 0,149,150
 77 747 77 747 69 723 c 0,151,152
 68 717 68 717 66 705.5 c 128,-1,153
 64 694 64 694 60 671 c 0,154,155
 59 665 59 665 59 654 c 0,156,157
 52 602 52 602 52 604 c 1,158,159
 52 600 52 600 53 593 c 128,-1,160
 54 586 54 586 54 583 c 0,161,162
 54 579 54 579 53 570 c 128,-1,163
 52 561 52 561 52 555 c 0,164,165
 52 546 52 546 47 526.5 c 128,-1,166
 42 507 42 507 42 499 c 0,167,168
 42 494 42 494 43.5 484.5 c 128,-1,169
 45 475 45 475 45 470 c 256,170,171
 45 465 45 465 43.5 456 c 128,-1,172
 42 447 42 447 42 443 c 0,173,174
 42 440 42 440 43 435 c 0,175,176
 43 429 43 429 43 426 c 0,177,178
 43 419 43 419 43 405 c 0,179,180
 42 391 42 391 42 383 c 1,181,182
 42 388 42 388 46 362 c 0,183,184
 47 361 47 361 47 341 c 0,185,186
 47 335 47 335 49 322 c 128,-1,187
 51 309 51 309 51 303 c 0,188,189
 51 294 51 294 47.5 276 c 128,-1,190
 44 258 44 258 44 249 c 0,191,192
 43 236 43 236 44 213 c 0,193,194
 44 187 44 187 44 178 c 256,195,196
 44 169 44 169 41.5 150.5 c 128,-1,197
 39 132 39 132 39 122 c 0,198,199
 39 106 39 106 35.5 74.5 c 128,-1,200
 32 43 32 43 32 27 c 0,201,202
 32 -5 32 -5 40 -14 c 0,203,204
 60 -38 60 -38 80 -38 c 0,205,206
 85 -38 85 -38 105 -29 c 0,207,208
 110 -28 110 -28 119.5 -23 c 128,-1,209
 129 -18 129 -18 137 8 c 0,210,211
 144 30 144 30 144 46 c 0,212,213
 144 51 144 51 141 59 c 128,-1,214
 138 67 138 67 137 71 c 0,215,216
 137 86 137 86 134 116.5 c 128,-1,217
 131 147 131 147 131 141 c 1,218,219
 131 146 131 146 132.5 155 c 128,-1,220
 134 164 134 164 134 169 c 0,221,222
 134 171 134 171 133 176.5 c 128,-1,223
 132 182 132 182 132 185 c 0,224,225
 132 201 132 201 135 211 c 0,226,227
 138 218 138 218 149.5 224 c 128,-1,228
 161 230 161 230 170 230 c 0,229,230
 176 230 176 230 237 213 c 0,231,232
 274 202 274 202 307 202 c 0,233,234
 323 202 323 202 350 217.5 c 128,-1,235
 377 233 377 233 393 233 c 0,236,237
 431 233 431 233 431 197 c 0,238,239
 431 195 431 195 430 191 c 0,240,241
 430 186 430 186 430 184 c 0,242,243
 430 181 430 181 431 176 c 128,-1,244
 432 171 432 171 432 169 c 0,245,246
 432 164 432 164 432 155 c 0,247,248
 431 147 431 147 431 142 c 0,249,250
 431 134 431 134 437.5 106.5 c 128,-1,251
 444 79 444 79 444 64 c 0,252,253
 444 61 444 61 443 55 c 128,-1,254
 442 49 442 49 442 46 c 1,255,256
 442 50 442 50 445 30 c 0,257,258
 446 25 446 25 448 14 c 0,259,260
 457 -8 457 -8 484 -7 c 2,261,-1
 491 -7 l 2,262,263
 497 -7 497 -7 514 7 c 128,-1,264
 531 21 531 21 534 27 c 0,265,266
 538 38 538 38 538 55 c 0,267,268
 538 105 538 105 530 155 c 0,269,270
 525 184 525 184 525 200 c 0,0,1
EndSplineSet
Validated: 41
EndChar

StartChar: i
Encoding: 105 105 46
Width: 169
Flags: W
LayerCount: 2
Fore
SplineSet
134 325 m 2,0,1
 134 349 134 349 134 356 c 0,2,3
 134 359 134 359 135 365.5 c 128,-1,4
 136 372 136 372 136 375 c 0,5,6
 136 379 136 379 134.5 387.5 c 128,-1,7
 133 396 133 396 133 400 c 0,8,9
 133 403 133 403 134 409.5 c 128,-1,10
 135 416 135 416 135 419 c 0,11,12
 135 423 135 423 134 429.5 c 128,-1,13
 133 436 133 436 133 439 c 256,14,15
 133 442 133 442 133 449 c 0,16,17
 134 455 134 455 134 458 c 0,18,19
 134 463 134 463 132 473 c 128,-1,20
 130 483 130 483 130 487 c 0,21,22
 130 490 130 490 130 524 c 0,23,24
 130 526 130 526 131 529 c 128,-1,25
 132 532 132 532 132 533 c 0,26,27
 132 535 132 535 131 539.5 c 128,-1,28
 130 544 130 544 130 546 c 0,29,30
 130 549 130 549 130 554 c 0,31,32
 131 560 131 560 131 562 c 1,33,34
 131 556 131 556 129 574 c 0,35,36
 130 585 130 585 129 606 c 0,37,38
 128 611 128 611 127 620 c 0,39,40
 127 635 127 635 127 665 c 1,41,42
 123 684 123 684 119 720 c 0,43,44
 119 725 119 725 119 734 c 0,45,46
 120 744 120 744 120 747 c 0,47,48
 120 778 120 778 120 779 c 0,49,50
 118 809 118 809 112 817 c 0,51,52
 110 821 110 821 95 825 c 1,53,54
 82 824 82 824 59 813 c 0,55,56
 52 806 52 806 49 787 c 0,57,58
 47 772 47 772 45 757 c 0,59,60
 36 710 36 710 36 713 c 1,61,62
 36 709 36 709 38 701 c 128,-1,63
 40 693 40 693 40 689 c 0,64,65
 40 674 40 674 37 655 c 0,66,67
 34 630 34 630 34 636 c 2,68,-1
 34 588 l 2,69,70
 34 584 34 584 35 575 c 128,-1,71
 36 566 36 566 37 560 c 128,-1,72
 38 554 38 554 40 546 c 0,73,74
 40 527 40 527 43 495 c 0,75,76
 41 488 41 488 41 464 c 0,77,78
 41 462 41 462 40 459 c 0,79,80
 40 455 40 455 40 454 c 0,81,82
 39 451 39 451 39 384 c 0,83,84
 39 370 39 370 41 342.5 c 128,-1,85
 43 315 43 315 43 301 c 1,86,87
 43 303 43 303 41 280 c 1,88,89
 41 285 41 285 41 244 c 0,90,91
 41 239 41 239 38.5 221 c 128,-1,92
 36 203 36 203 36 196 c 1,93,94
 36 199 36 199 37 184 c 1,95,96
 37 189 37 189 37 170 c 0,97,98
 37 166 37 166 37 159 c 0,99,100
 38 151 38 151 38 147 c 0,101,102
 38 144 38 144 36.5 137 c 128,-1,103
 35 130 35 130 35 127 c 0,104,105
 35 123 35 123 36 116 c 0,106,107
 36 109 36 109 36 106 c 0,108,109
 36 104 36 104 35 100 c 128,-1,110
 34 96 34 96 34 94 c 0,111,112
 34 91 34 91 34 85.5 c 128,-1,113
 34 80 34 80 34 78 c 1,114,115
 34 79 34 79 32 62 c 0,116,117
 31 58 31 58 31 24 c 0,118,119
 31 8 31 8 42 -5 c 128,-1,120
 53 -18 53 -18 69 -18 c 0,121,122
 72 -18 72 -18 92 -12 c 1,123,124
 107 -3 107 -3 131 17 c 1,125,126
 149 39 149 39 149 66 c 0,127,128
 149 70 149 70 148 77.5 c 128,-1,129
 147 85 147 85 147 89 c 0,130,131
 145 115 145 115 142 167 c 0,132,133
 141 177 141 177 138 265 c 0,134,135
 138 270 138 270 136 280.5 c 128,-1,136
 134 291 134 291 134 296 c 2,137,-1
 134 325 l 2,0,1
EndSplineSet
Validated: 37
EndChar

StartChar: j
Encoding: 106 106 47
Width: 533
Flags: W
LayerCount: 2
Fore
SplineSet
399 779 m 1,0,1
 413 781 413 781 411 781 c 1,2,3
 415 781 415 781 420 779 c 0,4,5
 447 765 447 765 455 723 c 0,6,7
 456 715 456 715 460.5 700.5 c 128,-1,8
 465 686 465 686 465 674 c 0,9,10
 467 620 467 620 474 512 c 0,11,12
 475 506 475 506 478.5 491.5 c 128,-1,13
 482 477 482 477 482 469 c 0,14,15
 482 464 482 464 480.5 455.5 c 128,-1,16
 479 447 479 447 479 442 c 0,17,18
 479 438 479 438 481.5 431 c 128,-1,19
 484 424 484 424 485 422 c 0,20,21
 489 401 489 401 489 359 c 0,22,23
 489 355 489 355 490 347 c 128,-1,24
 491 339 491 339 491 335 c 0,25,26
 491 332 491 332 489 324.5 c 128,-1,27
 487 317 487 317 487 313 c 0,28,29
 487 310 487 310 489 303.5 c 128,-1,30
 491 297 491 297 491 294 c 0,31,32
 491 292 491 292 490 280 c 0,33,34
 492 275 492 275 492 270 c 0,35,36
 492 237 492 237 484 201 c 0,37,38
 481 173 481 173 468 121 c 1,39,40
 460 110 460 110 444 87 c 0,41,42
 442 80 442 80 435 66 c 0,43,44
 431 63 431 63 425 55 c 0,45,46
 414 40 414 40 396 26 c 1,47,48
 366 13 366 13 362 12 c 0,49,50
 354 11 354 11 340 8 c 0,51,52
 333 3 333 3 319 -7 c 0,53,54
 314 -9 314 -9 275 -17 c 0,55,56
 272 -17 272 -17 264 -20.5 c 128,-1,57
 256 -24 256 -24 251 -24 c 0,58,59
 247 -24 247 -24 239.5 -21.5 c 128,-1,60
 232 -19 232 -19 228 -19 c 256,61,62
 224 -19 224 -19 215.5 -21 c 128,-1,63
 207 -23 207 -23 203 -23 c 0,64,65
 191 -23 191 -23 183 -16 c 0,66,67
 172 -8 172 -8 167 -7 c 0,68,69
 138 1 138 1 106 20 c 0,70,71
 105 20 105 20 59 54 c 0,72,73
 48 62 48 62 38 84.5 c 128,-1,74
 28 107 28 107 28 122 c 0,75,76
 28 141 28 141 40.5 155 c 128,-1,77
 53 169 53 169 72 169 c 0,78,79
 87 169 87 169 104 156 c 0,80,81
 117 144 117 144 130 132 c 0,82,83
 133 130 133 130 139 126 c 0,84,85
 140 122 140 122 145 116 c 0,86,87
 150 114 150 114 160 108 c 0,88,89
 164 102 164 102 174 93 c 0,90,91
 188 83 188 83 213 83 c 1,92,93
 207 83 207 83 247 72 c 1,94,95
 257 74 257 74 276 79 c 0,96,97
 281 78 281 78 283 78 c 0,98,99
 302 82 302 82 306.5 84.5 c 128,-1,100
 311 87 311 87 323 94 c 0,101,102
 340 101 340 101 352 110 c 0,103,104
 374 124 374 124 375 125 c 0,105,106
 383 133 383 133 390 149 c 0,107,108
 392 157 392 157 395 173 c 0,109,110
 399 185 399 185 403 197 c 1,111,112
 403 222 403 222 395 249 c 1,113,-1
 397 255 l 1,114,115
 395 284 395 284 395 297 c 0,116,117
 395 301 395 301 396.5 309.5 c 128,-1,118
 398 318 398 318 398 323 c 0,119,120
 398 324 398 324 397 332 c 0,121,122
 394 346 394 346 394 375 c 0,123,124
 394 379 394 379 396.5 387 c 128,-1,125
 399 395 399 395 399 399 c 0,126,127
 399 404 399 404 398 414 c 0,128,129
 398 425 398 425 398 430 c 0,130,131
 398 432 398 432 398 436 c 0,132,133
 399 439 399 439 399 441 c 0,134,135
 399 444 399 444 397.5 449.5 c 128,-1,136
 396 455 396 455 396 456 c 0,137,138
 396 473 396 473 391 505 c 0,139,140
 386 519 386 519 386 524 c 0,141,142
 386 527 386 527 388 533.5 c 128,-1,143
 390 540 390 540 390 543 c 0,144,145
 390 547 390 547 388 553 c 128,-1,146
 386 559 386 559 386 563 c 0,147,148
 386 565 386 565 387 569.5 c 128,-1,149
 388 574 388 574 388 576 c 0,150,151
 388 579 388 579 384.5 587 c 128,-1,152
 381 595 381 595 380 613 c 128,-1,153
 379 631 379 631 376 640.5 c 128,-1,154
 373 650 373 650 373 657 c 2,155,-1
 373 670 l 2,156,157
 373 674 373 674 371.5 682.5 c 128,-1,158
 370 691 370 691 370 695 c 0,159,160
 369 704 369 704 369 726 c 0,161,162
 369 749 369 749 396 781 c 1,163,-1
 399 779 l 1,0,1
EndSplineSet
Validated: 33
EndChar

